<?xml version="1.0" encoding="UTF-8"?>
<!DOCTYPE svg PUBLIC "-//W3C//DTD SVG 1.1//EN" "http://www.w3.org/Graphics/SVG/1.1/DTD/svg11.dtd">
<svg xmlns="http://www.w3.org/2000/svg" version="1.1" width="1975px" height="557px" style="shape-rendering:geometricPrecision; text-rendering:geometricPrecision; image-rendering:optimizeQuality; fill-rule:evenodd; clip-rule:evenodd" xmlns:xlink="http://www.w3.org/1999/xlink">
<g><path style="opacity:1" fill="#5ec8f8" d="M 279.5,1.5 C 306.502,1.33336 333.502,1.50003 360.5,2C 359.054,3.70319 357.387,5.86985 355.5,8.5C 355.956,12.1172 354.956,15.6172 352.5,19C 353.854,20.9571 353.521,22.9571 351.5,25C 351.132,27.0333 351.132,29.1999 351.5,31.5C 350.96,32.7481 350.293,33.9148 349.5,35C 349.833,36 350.167,37 350.5,38C 348.127,41.7161 346.46,45.3827 345.5,49C 345.833,52 346.167,55 346.5,58C 343.804,61.456 343.137,64.7893 344.5,68C 342.608,70.6731 342.275,73.3398 343.5,76C 342.833,77 342.167,78 341.5,79C 341.833,81.3333 342.167,83.6667 342.5,86C 341.707,87.0852 341.04,88.2519 340.5,89.5C 342.203,90.8903 342.87,92.3903 342.5,94C 339.713,96.5884 339.38,99.2551 341.5,102C 340.12,103.324 339.786,104.657 340.5,106C 339.078,109.013 337.411,109.18 335.5,106.5C 335.167,107 334.833,107.5 334.5,108C 336.029,109.582 336.529,111.415 336,113.5C 332.985,110.317 329.818,107.317 326.5,104.5C 325.345,107.446 325.179,110.446 326,113.5C 326.667,108.167 327.333,108.167 328,113.5C 328.333,112.833 328.667,112.167 329,111.5C 329.785,113.286 330.951,114.786 332.5,116C 332.167,116.333 331.833,116.667 331.5,117C 332.823,117.816 333.489,118.983 333.5,120.5C 332.5,122.167 331.167,123.5 329.5,124.5C 328.5,124.833 327.833,125.5 327.5,126.5C 326.5,126.833 325.833,127.5 325.5,128.5C 324.5,128.833 323.833,129.5 323.5,130.5C 319.486,128.666 315.153,127.999 310.5,128.5C 309.009,127.008 309.009,128.341 310.5,132.5C 308.267,132.136 306.434,131.136 305,129.5C 304.308,130.025 303.808,130.692 303.5,131.5C 304.213,133.776 304.713,136.109 305,138.5C 306.833,139.667 308.333,141.167 309.5,143C 308.551,143.617 307.718,143.451 307,142.5C 306.333,145.167 305.667,145.167 305,142.5C 304.333,144.5 303.667,146.5 303,148.5C 302.667,147.5 302.333,146.5 302,145.5C 301.808,147.577 301.308,149.577 300.5,151.5C 298.995,148.869 298.329,149.203 298.5,152.5C 295.289,152.988 292.456,152.321 290,150.5C 289.167,151.333 288.333,152.167 287.5,153C 289.416,154.817 291.749,155.984 294.5,156.5C 294.863,157.183 295.196,157.85 295.5,158.5C 294.5,158.833 293.833,159.5 293.5,160.5C 292.5,160.833 291.833,161.5 291.5,162.5C 290.5,162.833 289.833,163.5 289.5,164.5C 288.5,164.833 287.833,165.5 287.5,166.5C 285.413,167.585 284.08,169.251 283.5,171.5C 281.167,171.833 279.833,173.167 279.5,175.5C 277.167,175.833 275.833,177.167 275.5,179.5C 274.167,179.5 273.5,180.167 273.5,181.5C 270.833,184.167 268.167,186.833 265.5,189.5C 264.167,189.5 263.5,190.167 263.5,191.5C 260.788,193.885 258.122,196.218 255.5,198.5C 254.5,198.833 253.833,199.5 253.5,200.5C 252.167,203.167 250.167,205.167 247.5,206.5C 246.5,206.833 245.833,207.5 245.5,208.5C 244.21,207.942 243.377,206.942 243,205.5C 241.234,207.596 239.901,209.929 239,212.5C 238.667,211.5 238.333,210.5 238,209.5C 236.585,211.843 236.418,214.177 237.5,216.5C 237.5,217.167 237.167,217.5 236.5,217.5C 235.5,217.833 234.833,218.5 234.5,219.5C 233.5,219.833 232.833,220.5 232.5,221.5C 231.833,222.833 230.833,223.833 229.5,224.5C 229.539,223.244 229.039,222.244 228,221.5C 224.984,224.52 222.317,227.854 220,231.5C 219.667,230.833 219.333,230.167 219,229.5C 218.529,231.246 217.862,232.913 217,234.5C 216.667,233.833 216.333,233.167 216,232.5C 214.51,235.83 212.51,238.83 210,241.5C 209.667,240.833 209.333,240.167 209,239.5C 208.138,241.087 207.471,242.754 207,244.5C 206.667,243.5 206.333,242.5 206,241.5C 205.333,248.167 204.667,248.167 204,241.5C 203.667,243.5 203.333,245.5 203,247.5C 201.287,248.878 199.953,250.545 199,252.5C 198.667,251.833 198.333,251.167 198,250.5C 197.333,255.833 196.667,255.833 196,250.5C 195.667,252.167 195.333,253.833 195,255.5C 192.546,257.441 190.713,259.775 189.5,262.5C 188.778,262.082 188.278,261.416 188,260.5C 187.482,263.023 186.148,265.023 184,266.5C 183.667,266.167 183.333,265.833 183,265.5C 182.099,268.071 180.766,270.404 179,272.5C 178.026,270.122 177.359,270.456 177,273.5C 174.833,275.667 172.667,277.833 170.5,280C 171.167,280.333 171.833,280.667 172.5,281C 171.748,281.671 171.414,282.504 171.5,283.5C 171.5,284.167 171.167,284.5 170.5,284.5C 168.29,284.894 166.957,286.227 166.5,288.5C 166.167,289.5 165.5,290.167 164.5,290.5C 163.5,290.833 162.833,291.5 162.5,292.5C 158.5,294.5 155.5,297.5 153.5,301.5C 153.5,302.167 153.167,302.5 152.5,302.5C 150.968,303.37 149.468,303.036 148,301.5C 148.019,303.107 148.185,304.774 148.5,306.5C 148.167,307.5 147.5,308.167 146.5,308.5C 141.224,312.437 136.224,316.771 131.5,321.5C 129.628,320.205 127.962,320.372 126.5,322C 127.731,323.183 127.731,324.349 126.5,325.5C 125.833,325.167 125.167,324.833 124.5,324.5C 123.526,326.743 123.192,329.076 123.5,331.5C 122.833,331.833 122.167,332.167 121.5,332.5C 121.649,331.448 121.483,330.448 121,329.5C 120.077,330.759 119.243,332.092 118.5,333.5C 117.833,333.167 117.167,332.833 116.5,332.5C 115.833,334.167 115.167,335.833 114.5,337.5C 113.914,337.291 113.414,336.957 113,336.5C 113.077,337.738 112.911,338.738 112.5,339.5C 111.749,338.624 111.249,337.624 111,336.5C 110.821,338.424 110.654,340.091 110.5,341.5C 109.702,339.922 109.202,338.256 109,336.5C 108.242,338.769 108.409,340.936 109.5,343C 107.866,343.494 106.199,343.66 104.5,343.5C 104.883,346.462 103.883,347.462 101.5,346.5C 100.994,349.5 99.4939,351.833 97,353.5C 95.1084,353.223 93.7751,352.223 93,350.5C 91.967,353.217 92.8003,355.051 95.5,356C 94.3333,356.5 93.5,357.333 93,358.5C 92.6667,357.833 92.3333,357.167 92,356.5C 91.3333,361.833 90.6667,361.833 90,356.5C 89.8485,359.119 89.0152,361.453 87.5,363.5C 88.1272,364.417 88.4606,365.417 88.5,366.5C 87.7494,367.573 86.7494,367.74 85.5,367C 85.8333,366.667 86.1667,366.333 86.5,366C 74.2716,353.604 61.9383,341.437 49.5,329.5C 49.1667,328.5 48.5,327.833 47.5,327.5C 47.1667,326.5 46.5,325.833 45.5,325.5C 31.8285,311.004 16.8285,296.17 0.5,281C 85.4183,195.242 170.418,109.742 255.5,24.5C 264.112,17.5561 272.112,9.88943 279.5,1.5 Z"/></g>
<g><path style="opacity:0.997" fill="#5ac4f4" d="M 279.5,1.5 C 336.668,0.168585 394.001,0.168585 451.5,1.5C 442.178,12.4885 432.178,22.8218 421.5,32.5C 420.5,32.8333 419.833,33.5 419.5,34.5C 418.5,36.1667 417.167,37.5 415.5,38.5C 414.5,38.8333 413.833,39.5 413.5,40.5C 412.5,40.8333 411.833,41.5 411.5,42.5C 410.5,42.8333 409.833,43.5 409.5,44.5C 409.167,45.5 408.5,46.1667 407.5,46.5C 406.5,46.8333 405.833,47.5 405.5,48.5C 404.5,50.1667 403.167,51.5 401.5,52.5C 400.5,52.8333 399.833,53.5 399.5,54.5C 379.833,74.8333 359.833,94.8333 339.5,114.5C 338.5,114.833 337.833,115.5 337.5,116.5C 336.5,116.833 335.833,117.5 335.5,118.5C 335.167,119.5 334.5,120.167 333.5,120.5C 333.489,118.983 332.823,117.816 331.5,117C 331.833,116.667 332.167,116.333 332.5,116C 330.951,114.786 329.785,113.286 329,111.5C 328.667,112.167 328.333,112.833 328,113.5C 327.333,108.167 326.667,108.167 326,113.5C 325.179,110.446 325.345,107.446 326.5,104.5C 329.818,107.317 332.985,110.317 336,113.5C 336.529,111.415 336.029,109.582 334.5,108C 334.833,107.5 335.167,107 335.5,106.5C 337.411,109.18 339.078,109.013 340.5,106C 339.786,104.657 340.12,103.324 341.5,102C 339.38,99.2551 339.713,96.5884 342.5,94C 342.87,92.3903 342.203,90.8903 340.5,89.5C 341.04,88.2519 341.707,87.0852 342.5,86C 342.167,83.6667 341.833,81.3333 341.5,79C 342.167,78 342.833,77 343.5,76C 342.275,73.3398 342.608,70.6731 344.5,68C 343.137,64.7893 343.804,61.456 346.5,58C 346.167,55 345.833,52 345.5,49C 346.46,45.3827 348.127,41.7161 350.5,38C 350.167,37 349.833,36 349.5,35C 350.293,33.9148 350.96,32.7481 351.5,31.5C 351.132,29.1999 351.132,27.0333 351.5,25C 353.521,22.9571 353.854,20.9571 352.5,19C 354.956,15.6172 355.956,12.1172 355.5,8.5C 357.387,5.86985 359.054,3.70319 360.5,2C 333.502,1.50003 306.502,1.33336 279.5,1.5 Z"/></g>
<g><path style="opacity:0.478" fill="#3f859e" d="M 279.5,1.5 C 272.112,9.88943 264.112,17.5561 255.5,24.5C 262.888,16.1106 270.888,8.4439 279.5,1.5 Z"/></g>
<g><path style="opacity:0.016" fill="#051116" d="M 421.5,32.5 C 421.5,33.8333 420.833,34.5 419.5,34.5C 419.833,33.5 420.5,32.8333 421.5,32.5 Z"/></g>
<g><path style="opacity:0.016" fill="#09181d" d="M 415.5,38.5 C 415.5,39.8333 414.833,40.5 413.5,40.5C 413.833,39.5 414.5,38.8333 415.5,38.5 Z"/></g>
<g><path style="opacity:0.016" fill="#09181d" d="M 413.5,40.5 C 413.5,41.8333 412.833,42.5 411.5,42.5C 411.833,41.5 412.5,40.8333 413.5,40.5 Z"/></g>
<g><path style="opacity:0.016" fill="#051116" d="M 411.5,42.5 C 411.5,43.8333 410.833,44.5 409.5,44.5C 409.833,43.5 410.5,42.8333 411.5,42.5 Z"/></g>
<g><path style="opacity:0.016" fill="#051116" d="M 407.5,46.5 C 407.5,47.8333 406.833,48.5 405.5,48.5C 405.833,47.5 406.5,46.8333 407.5,46.5 Z"/></g>
<g><path style="opacity:0.016" fill="#051116" d="M 401.5,52.5 C 401.5,53.8333 400.833,54.5 399.5,54.5C 399.833,53.5 400.5,52.8333 401.5,52.5 Z"/></g>
<g><path style="opacity:0.016" fill="#01080d" d="M 339.5,114.5 C 339.5,115.833 338.833,116.5 337.5,116.5C 337.833,115.5 338.5,114.833 339.5,114.5 Z"/></g>
<g><path style="opacity:0.016" fill="#01080d" d="M 337.5,116.5 C 337.5,117.833 336.833,118.5 335.5,118.5C 335.833,117.5 336.5,116.833 337.5,116.5 Z"/></g>
<g><path style="opacity:0.528" fill="#000000" d="M 679.5,117.5 C 742.501,117.333 805.501,117.5 868.5,118C 869.833,130.667 869.833,143.333 868.5,156C 818.834,156.5 769.168,156.667 719.5,156.5C 719.5,192.833 719.5,229.167 719.5,265.5C 764.5,265.5 809.5,265.5 854.5,265.5C 854.5,278.5 854.5,291.5 854.5,304.5C 809.5,304.5 764.5,304.5 719.5,304.5C 719.5,351.5 719.5,398.5 719.5,445.5C 705.961,445.706 692.628,445.706 679.5,445.5C 679.291,336.147 679.291,226.814 679.5,117.5 Z"/></g>
<g><path style="opacity:0.527" fill="#000101" d="M 912.5,117.5 C 926.079,117.177 939.579,117.51 953,118.5C 953.5,227.166 953.667,335.833 953.5,444.5C 939.833,444.5 926.167,444.5 912.5,444.5C 912.5,335.5 912.5,226.5 912.5,117.5 Z"/></g>
<g><path style="opacity:0.016" fill="#01080d" d="M 329.5,124.5 C 329.5,125.833 328.833,126.5 327.5,126.5C 327.833,125.5 328.5,124.833 329.5,124.5 Z"/></g>
<g><path style="opacity:0.016" fill="#01080d" d="M 327.5,126.5 C 327.5,127.833 326.833,128.5 325.5,128.5C 325.833,127.5 326.5,126.833 327.5,126.5 Z"/></g>
<g><path style="opacity:0.016" fill="#01080d" d="M 325.5,128.5 C 326.66,130.203 325.993,130.869 323.5,130.5C 323.833,129.5 324.5,128.833 325.5,128.5 Z"/></g>
<g><path style="opacity:0.996" fill="#56b7e2" d="M 323.5,130.5 C 320.5,134.167 317.167,137.5 313.5,140.5C 312.5,140.833 311.833,141.5 311.5,142.5C 306.5,148.167 301.167,153.5 295.5,158.5C 295.196,157.85 294.863,157.183 294.5,156.5C 291.749,155.984 289.416,154.817 287.5,153C 288.333,152.167 289.167,151.333 290,150.5C 292.456,152.321 295.289,152.988 298.5,152.5C 298.329,149.203 298.995,148.869 300.5,151.5C 301.308,149.577 301.808,147.577 302,145.5C 302.333,146.5 302.667,147.5 303,148.5C 303.667,146.5 304.333,144.5 305,142.5C 305.667,145.167 306.333,145.167 307,142.5C 307.718,143.451 308.551,143.617 309.5,143C 308.333,141.167 306.833,139.667 305,138.5C 304.713,136.109 304.213,133.776 303.5,131.5C 303.808,130.692 304.308,130.025 305,129.5C 306.434,131.136 308.267,132.136 310.5,132.5C 309.009,128.341 309.009,127.008 310.5,128.5C 315.153,127.999 319.486,128.666 323.5,130.5 Z"/></g>
<g><path style="opacity:0.016" fill="#01070b" d="M 313.5,140.5 C 313.5,141.833 312.833,142.5 311.5,142.5C 311.833,141.5 312.5,140.833 313.5,140.5 Z"/></g>
<g><path style="opacity:0.532" fill="#000000" d="M 1289.5,145.5 C 1303.08,145.177 1316.58,145.51 1330,146.5C 1330.83,168.073 1330.66,189.573 1329.5,211C 1348.5,211.5 1367.5,211.667 1386.5,211.5C 1386.82,223.747 1386.49,235.914 1385.5,248C 1367.17,248.5 1348.84,248.667 1330.5,248.5C 1330.33,294.501 1330.5,340.501 1331,386.5C 1332.63,404.794 1342.63,414.127 1361,414.5C 1370.19,413.935 1378.69,411.269 1386.5,406.5C 1387.67,419.487 1387.83,432.487 1387,445.5C 1380.08,448.524 1372.91,450.857 1365.5,452.5C 1344.54,454.376 1325.88,449.043 1309.5,436.5C 1297.51,425.199 1291.01,411.532 1290,395.5C 1289.67,346.167 1289.33,296.833 1289,247.5C 1275.91,248.655 1262.74,248.822 1249.5,248C 1249.46,236.043 1249.46,223.876 1249.5,211.5C 1262.75,211.823 1275.91,211.489 1289,210.5C 1289.5,188.836 1289.67,167.169 1289.5,145.5 Z"/></g>
<g><path style="opacity:0.533" fill="#000000" d="M 1453.5,145.5 C 1467.32,145.019 1480.99,145.519 1494.5,147C 1494.62,167.835 1494.29,189.169 1493.5,211C 1512.65,211.012 1531.65,211.679 1550.5,213C 1549.74,224.45 1549.41,236.117 1549.5,248C 1530.83,248.333 1512.17,248.667 1493.5,249C 1494.4,291.885 1494.4,334.885 1493.5,378C 1493.89,406.061 1507.89,417.727 1535.5,413C 1540.73,411.384 1545.73,409.217 1550.5,406.5C 1551.67,419.487 1551.83,432.487 1551,445.5C 1545.95,447.505 1540.95,449.505 1536,451.5C 1524.26,451.943 1512.43,451.443 1500.5,450C 1473.62,443.142 1458.12,426.309 1454,399.5C 1453.67,348.833 1453.33,298.167 1453,247.5C 1439.91,248.489 1426.75,248.823 1413.5,248.5C 1413.5,236.167 1413.5,223.833 1413.5,211.5C 1426.75,211.823 1439.91,211.489 1453,210.5C 1453.5,188.836 1453.67,167.169 1453.5,145.5 Z"/></g>
<g><path style="opacity:0.016" fill="#010609" d="M 295.5,158.5 C 295.5,159.833 294.833,160.5 293.5,160.5C 293.833,159.5 294.5,158.833 295.5,158.5 Z"/></g>
<g><path style="opacity:0.016" fill="#010609" d="M 293.5,160.5 C 293.5,161.833 292.833,162.5 291.5,162.5C 291.833,161.5 292.5,160.833 293.5,160.5 Z"/></g>
<g><path style="opacity:0.016" fill="#010609" d="M 291.5,162.5 C 291.5,163.833 290.833,164.5 289.5,164.5C 289.833,163.5 290.5,162.833 291.5,162.5 Z"/></g>
<g><path style="opacity:0.016" fill="#010609" d="M 289.5,164.5 C 289.5,165.833 288.833,166.5 287.5,166.5C 287.833,165.5 288.5,164.833 289.5,164.5 Z"/></g>
<g><path style="opacity:0.016" fill="#01070b" d="M 287.5,166.5 C 286.92,168.749 285.587,170.415 283.5,171.5C 284.08,169.251 285.413,167.585 287.5,166.5 Z"/></g>
<g><path style="opacity:0.016" fill="#01070b" d="M 283.5,171.5 C 282.5,173.167 281.167,174.5 279.5,175.5C 279.833,173.167 281.167,171.833 283.5,171.5 Z"/></g>
<g><path style="opacity:0.016" fill="#0d171e" d="M 279.5,175.5 C 278.5,177.167 277.167,178.5 275.5,179.5C 275.833,177.167 277.167,175.833 279.5,175.5 Z"/></g>
<g><path style="opacity:0.016" fill="#01080c" d="M 275.5,179.5 C 275.5,180.833 274.833,181.5 273.5,181.5C 273.5,180.167 274.167,179.5 275.5,179.5 Z"/></g>
<g><path style="opacity:0.016" fill="#01070b" d="M 265.5,189.5 C 265.167,190.5 264.5,191.167 263.5,191.5C 263.5,190.167 264.167,189.5 265.5,189.5 Z"/></g>
<g><path style="opacity:0.016" fill="#010609" d="M 255.5,198.5 C 255.5,199.833 254.833,200.5 253.5,200.5C 253.833,199.5 254.5,198.833 255.5,198.5 Z"/></g>
<g><path style="opacity:0.531" fill="#000000" d="M 1710.5,449.5 C 1638.82,457.173 1593.48,426.339 1574.5,357C 1574.96,356.586 1575.29,356.086 1575.5,355.5C 1571.29,333.573 1571.96,312.407 1577.5,292C 1585.66,257.724 1605.66,231.724 1637.5,214C 1673.45,199.015 1708.78,200.348 1743.5,218C 1777.05,240.614 1795.05,272.28 1797.5,313C 1797.04,318.105 1797.04,323.105 1797.5,328C 1796.96,330.4 1796.29,332.733 1795.5,335C 1734.5,335.333 1673.5,335.667 1612.5,336C 1616.77,383.536 1642.6,409.703 1690,414.5C 1720.78,413.362 1743.62,399.362 1758.5,372.5C 1769.99,377.744 1781.32,383.244 1792.5,389C 1774.96,421.618 1747.62,441.784 1710.5,449.5 Z M 1672.5,241.5 C 1698.6,237.589 1720.77,244.922 1739,263.5C 1747.48,275.129 1752.64,288.129 1754.5,302.5C 1708.17,302.667 1661.83,302.5 1615.5,302C 1619.92,282.138 1629.92,265.804 1645.5,253C 1648.87,250.995 1652.2,248.995 1655.5,247C 1661.24,245.029 1666.91,243.196 1672.5,241.5 Z"/></g>
<g><path style="opacity:0.526" fill="#000000" d="M 1974.5,208.5 C 1974.5,223.167 1974.5,237.833 1974.5,252.5C 1930.78,236.385 1900.45,249.551 1883.5,292C 1883.83,292.333 1884.17,292.667 1884.5,293C 1883.43,296.12 1882.43,299.287 1881.5,302.5C 1881.71,303.086 1882.04,303.586 1882.5,304C 1881.83,307.333 1881.17,310.667 1880.5,314C 1881.03,357.096 1881.36,400.263 1881.5,443.5C 1879.67,445.05 1877.5,446.05 1875,446.5C 1865,446.5 1855,446.5 1845,446.5C 1843.27,445.751 1841.43,445.251 1839.5,445C 1840.5,367.237 1840.83,289.404 1840.5,211.5C 1853.17,211.333 1865.84,211.5 1878.5,212C 1878.97,223.595 1879.3,235.095 1879.5,246.5C 1897.12,215.522 1923.78,201.689 1959.5,205C 1964.56,206.014 1969.56,207.181 1974.5,208.5 Z"/></g>
<g><path style="opacity:1" fill="#4fa1c6" d="M 245.5,208.5 C 243.167,211.5 240.5,214.167 237.5,216.5C 236.418,214.177 236.585,211.843 238,209.5C 238.333,210.5 238.667,211.5 239,212.5C 239.901,209.929 241.234,207.596 243,205.5C 243.377,206.942 244.21,207.942 245.5,208.5 Z"/></g>
<g><path style="opacity:0.016" fill="#010609" d="M 247.5,206.5 C 247.5,207.833 246.833,208.5 245.5,208.5C 245.833,207.5 246.5,206.833 247.5,206.5 Z"/></g>
<g><path style="opacity:0.532" fill="#000000" d="M 1166.5,346.5 C 1167.83,301.833 1167.83,257.167 1166.5,212.5C 1180.33,211.339 1194.33,211.173 1208.5,212C 1207.5,289.429 1207.17,366.929 1207.5,444.5C 1194.83,444.5 1182.17,444.5 1169.5,444.5C 1169.83,433.813 1169.5,423.146 1168.5,412.5C 1148.02,439.66 1120.85,452.993 1087,452.5C 1037.62,447.458 1011.12,420.625 1007.5,372C 1006.83,370.333 1006.17,368.667 1005.5,367C 1006.5,315.238 1006.83,263.405 1006.5,211.5C 1020.17,211.5 1033.83,211.5 1047.5,211.5C 1047.33,263.168 1047.5,314.834 1048,366.5C 1050.39,392.508 1064.22,408.342 1089.5,414C 1127.36,417.139 1152.2,400.639 1164,364.5C 1165.81,358.631 1166.64,352.631 1166.5,346.5 Z"/></g>
<g><path style="opacity:0.039" fill="#0a232c" d="M 1166.5,212.5 C 1167.83,257.167 1167.83,301.833 1166.5,346.5C 1166.49,301.528 1166.49,256.861 1166.5,212.5 Z"/></g>
<g><path style="opacity:0.016" fill="#010609" d="M 236.5,217.5 C 236.5,218.833 235.833,219.5 234.5,219.5C 234.833,218.5 235.5,217.833 236.5,217.5 Z"/></g>
<g><path style="opacity:0.016" fill="#010609" d="M 234.5,219.5 C 234.5,220.833 233.833,221.5 232.5,221.5C 232.833,220.5 233.5,219.833 234.5,219.5 Z"/></g>
<g><path style="opacity:1" fill="#50a8cf" d="M 229.5,224.5 C 220.91,233.426 212.243,242.426 203.5,251.5C 198.806,255.527 194.473,259.86 190.5,264.5C 190.672,263.508 190.338,262.842 189.5,262.5C 190.713,259.775 192.546,257.441 195,255.5C 195.333,253.833 195.667,252.167 196,250.5C 196.667,255.833 197.333,255.833 198,250.5C 198.333,251.167 198.667,251.833 199,252.5C 199.953,250.545 201.287,248.878 203,247.5C 203.333,245.5 203.667,243.5 204,241.5C 204.667,248.167 205.333,248.167 206,241.5C 206.333,242.5 206.667,243.5 207,244.5C 207.471,242.754 208.138,241.087 209,239.5C 209.333,240.167 209.667,240.833 210,241.5C 212.51,238.83 214.51,235.83 216,232.5C 216.333,233.167 216.667,233.833 217,234.5C 217.862,232.913 218.529,231.246 219,229.5C 219.333,230.167 219.667,230.833 220,231.5C 222.317,227.854 224.984,224.52 228,221.5C 229.039,222.244 229.539,223.244 229.5,224.5 Z"/></g>
<g><path style="opacity:0.016" fill="#01090e" d="M 203.5,251.5 C 204.833,252.167 204.833,252.167 203.5,251.5 Z"/></g>
<g><path style="opacity:0.997" fill="#59c3f2" d="M 450.5,260.5 C 449.735,260.077 448.902,259.743 448,259.5C 414.169,260.593 382.003,261.093 351.5,261C 352.28,262.073 352.113,263.24 351,264.5C 350.667,263.833 350.333,263.167 350,262.5C 347.885,265.067 345.885,267.734 344,270.5C 343.667,269.5 343.333,268.5 343,267.5C 342.749,269.433 342.249,271.266 341.5,273C 342.634,274.016 342.301,274.683 340.5,275C 340.833,275.333 341.167,275.667 341.5,276C 338.667,276.167 337.167,277.667 337,280.5C 336.282,279.549 335.449,279.383 334.5,280C 334.616,281.268 334.949,282.602 335.5,284C 334.5,284.333 333.5,284.667 332.5,285C 332.5,286 332.5,287 332.5,288C 330.939,288.318 329.772,289.151 329,290.5C 328.667,290.167 328.333,289.833 328,289.5C 327.16,293.112 325.66,295.612 323.5,297C 323.833,297.333 324.167,297.667 324.5,298C 321.731,300.106 318.731,301.773 315.5,303C 319.852,303.419 320.185,304.086 316.5,305C 314.875,305.853 314.542,306.853 315.5,308C 314.099,309.318 312.265,310.485 310,311.5C 309.667,312.5 309.333,313.5 309,314.5C 308.667,314.167 308.333,313.833 308,313.5C 307.517,314.448 307.351,315.448 307.5,316.5C 304.95,316.561 303.45,317.894 303,320.5C 302.667,320.167 302.333,319.833 302,319.5C 301.667,320.5 301.333,321.5 301,322.5C 297.89,321.327 297.723,321.827 300.5,324C 297.894,325.27 295.561,326.937 293.5,329C 294.34,330.666 293.84,330.833 292,329.5C 291.093,332.796 289.26,334.296 286.5,334C 289.277,336.173 289.11,336.673 286,335.5C 285.667,336.5 285.333,337.5 285,338.5C 284.333,339.833 283.667,339.833 283,338.5C 281.833,340.333 280.333,341.833 278.5,343C 278.833,343.333 279.167,343.667 279.5,344C 276.509,345.113 274.509,346.613 273.5,348.5C 271.471,347.371 271.137,347.871 272.5,350C 271.216,350.684 270.049,350.517 269,349.5C 268.383,350.449 268.549,351.282 269.5,352C 268.5,352.333 267.5,352.667 266.5,353C 267.34,354.666 266.84,354.833 265,353.5C 263.758,355.541 261.925,356.707 259.5,357C 260.5,357.333 261.5,357.667 262.5,358C 260.026,358.113 258.026,359.113 256.5,361C 261.649,367.316 267.316,373.15 273.5,378.5C 273.376,379.107 273.043,379.44 272.5,379.5C 252.637,360.813 233.97,341.646 216.5,322C 217.056,321.617 217.389,321.117 217.5,320.5C 237.556,299.277 258.222,278.444 279.5,258C 336.832,257.5 394.166,257.333 451.5,257.5C 451.737,258.791 451.404,259.791 450.5,260.5 Z"/></g>
<g><path style="opacity:1" fill="#59c5f6" d="M 450.5,260.5 C 450.167,261.5 449.5,262.167 448.5,262.5C 447.5,262.833 446.833,263.5 446.5,264.5C 443.527,268.14 440.194,271.473 436.5,274.5C 435.094,274.973 434.427,275.973 434.5,277.5C 429.807,281.861 425.141,286.195 420.5,290.5C 419.5,290.833 418.833,291.5 418.5,292.5C 416.471,294.858 414.471,297.192 412.5,299.5C 411.167,299.5 410.5,300.167 410.5,301.5C 404.833,306.5 399.5,311.833 394.5,317.5C 391.833,320.167 389.167,322.833 386.5,325.5C 385.5,325.833 384.833,326.5 384.5,327.5C 380.527,332.14 376.194,336.473 371.5,340.5C 370.5,340.833 369.833,341.5 369.5,342.5C 368.5,342.833 367.833,343.5 367.5,344.5C 364.522,345.478 362.522,347.478 361.5,350.5C 359.5,350.5 358.5,351.5 358.5,353.5C 358.158,354.338 357.492,354.672 356.5,354.5C 354.805,355.011 353.139,355.678 351.5,356.5C 351.709,357.086 352.043,357.586 352.5,358C 351.117,359.271 350.117,360.771 349.5,362.5C 348.5,362.833 347.833,363.5 347.5,364.5C 346.5,364.833 345.833,365.5 345.5,366.5C 342.833,367.167 341.167,368.833 340.5,371.5C 339.5,371.833 338.833,372.5 338.5,373.5C 337.178,373.67 336.011,373.337 335,372.5C 334.53,373.577 334.697,374.577 335.5,375.5C 335.167,376.167 334.833,376.833 334.5,377.5C 323.527,387.806 312.86,398.473 302.5,409.5C 302.167,409.5 301.833,409.5 301.5,409.5C 291.833,399.5 282.167,389.5 272.5,379.5C 273.043,379.44 273.376,379.107 273.5,378.5C 267.316,373.15 261.649,367.316 256.5,361C 258.026,359.113 260.026,358.113 262.5,358C 261.5,357.667 260.5,357.333 259.5,357C 261.925,356.707 263.758,355.541 265,353.5C 266.84,354.833 267.34,354.666 266.5,353C 267.5,352.667 268.5,352.333 269.5,352C 268.549,351.282 268.383,350.449 269,349.5C 270.049,350.517 271.216,350.684 272.5,350C 271.137,347.871 271.471,347.371 273.5,348.5C 274.509,346.613 276.509,345.113 279.5,344C 279.167,343.667 278.833,343.333 278.5,343C 280.333,341.833 281.833,340.333 283,338.5C 283.667,339.833 284.333,339.833 285,338.5C 285.333,337.5 285.667,336.5 286,335.5C 289.11,336.673 289.277,336.173 286.5,334C 289.26,334.296 291.093,332.796 292,329.5C 293.84,330.833 294.34,330.666 293.5,329C 295.561,326.937 297.894,325.27 300.5,324C 297.723,321.827 297.89,321.327 301,322.5C 301.333,321.5 301.667,320.5 302,319.5C 302.333,319.833 302.667,320.167 303,320.5C 303.45,317.894 304.95,316.561 307.5,316.5C 307.351,315.448 307.517,314.448 308,313.5C 308.333,313.833 308.667,314.167 309,314.5C 309.333,313.5 309.667,312.5 310,311.5C 312.265,310.485 314.099,309.318 315.5,308C 314.542,306.853 314.875,305.853 316.5,305C 320.185,304.086 319.852,303.419 315.5,303C 318.731,301.773 321.731,300.106 324.5,298C 324.167,297.667 323.833,297.333 323.5,297C 325.66,295.612 327.16,293.112 328,289.5C 328.333,289.833 328.667,290.167 329,290.5C 329.772,289.151 330.939,288.318 332.5,288C 332.5,287 332.5,286 332.5,285C 333.5,284.667 334.5,284.333 335.5,284C 334.949,282.602 334.616,281.268 334.5,280C 335.449,279.383 336.282,279.549 337,280.5C 337.167,277.667 338.667,276.167 341.5,276C 341.167,275.667 340.833,275.333 340.5,275C 342.301,274.683 342.634,274.016 341.5,273C 342.249,271.266 342.749,269.433 343,267.5C 343.333,268.5 343.667,269.5 344,270.5C 345.885,267.734 347.885,265.067 350,262.5C 350.333,263.167 350.667,263.833 351,264.5C 352.113,263.24 352.28,262.073 351.5,261C 382.003,261.093 414.169,260.593 448,259.5C 448.902,259.743 449.735,260.077 450.5,260.5 Z"/></g>
<g><path style="opacity:0.016" fill="#010609" d="M 448.5,262.5 C 448.5,263.833 447.833,264.5 446.5,264.5C 446.833,263.5 447.5,262.833 448.5,262.5 Z"/></g>
<g><path style="opacity:1" fill="#4590b1" d="M 189.5,262.5 C 190.338,262.842 190.672,263.508 190.5,264.5C 184.527,271.14 178.194,277.473 171.5,283.5C 171.414,282.504 171.748,281.671 172.5,281C 171.833,280.667 171.167,280.333 170.5,280C 172.667,277.833 174.833,275.667 177,273.5C 177.359,270.456 178.026,270.122 179,272.5C 180.766,270.404 182.099,268.071 183,265.5C 183.333,265.833 183.667,266.167 184,266.5C 186.148,265.023 187.482,263.023 188,260.5C 188.278,261.416 188.778,262.082 189.5,262.5 Z"/></g>
<g><path style="opacity:0.016" fill="#01060a" d="M 436.5,274.5 C 436.573,276.027 435.906,277.027 434.5,277.5C 434.427,275.973 435.094,274.973 436.5,274.5 Z"/></g>
<g><path style="opacity:0.039" fill="#142a34" d="M 170.5,284.5 C 169.598,286.341 168.264,287.674 166.5,288.5C 166.957,286.227 168.29,284.894 170.5,284.5 Z"/></g>
<g><path style="opacity:0.016" fill="#01090e" d="M 164.5,290.5 C 164.5,291.833 163.833,292.5 162.5,292.5C 162.833,291.5 163.5,290.833 164.5,290.5 Z"/></g>
<g><path style="opacity:0.016" fill="#010609" d="M 420.5,290.5 C 420.5,291.833 419.833,292.5 418.5,292.5C 418.833,291.5 419.5,290.833 420.5,290.5 Z"/></g>
<g><path style="opacity:0.039" fill="#173542" d="M 162.5,292.5 C 159.833,295.833 156.833,298.833 153.5,301.5C 155.5,297.5 158.5,294.5 162.5,292.5 Z"/></g>
<g><path style="opacity:0.016" fill="#01070b" d="M 412.5,299.5 C 412.167,300.5 411.5,301.167 410.5,301.5C 410.5,300.167 411.167,299.5 412.5,299.5 Z"/></g>
<g><path style="opacity:0.996" fill="#37718b" d="M 152.5,302.5 C 151.674,304.264 150.341,305.598 148.5,306.5C 148.185,304.774 148.019,303.107 148,301.5C 149.468,303.036 150.968,303.37 152.5,302.5 Z"/></g>
<g><path style="opacity:0.039" fill="#173542" d="M 146.5,308.5 C 141.833,313.833 136.833,318.833 131.5,323.5C 131.5,322.833 131.5,322.167 131.5,321.5C 136.224,316.771 141.224,312.437 146.5,308.5 Z"/></g>
<g><path style="opacity:0.016" fill="#01090e" d="M 394.5,317.5 C 395.833,318.167 395.833,318.167 394.5,317.5 Z"/></g>
<g><path style="opacity:1" fill="#31b8f5" d="M 217.5,320.5 C 217.389,321.117 217.056,321.617 216.5,322C 233.97,341.646 252.637,360.813 272.5,379.5C 282.167,389.5 291.833,399.5 301.5,409.5C 294.5,415.833 287.833,422.5 281.5,429.5C 259.833,450.5 238.5,471.833 217.5,493.5C 216.609,494.11 215.609,494.443 214.5,494.5C 211.167,491.833 208.167,488.833 205.5,485.5C 205.167,484.5 204.5,483.833 203.5,483.5C 202.833,483.5 202.5,483.167 202.5,482.5C 202.167,481.5 201.5,480.833 200.5,480.5C 200.167,479.5 199.5,478.833 198.5,478.5C 192.5,473.167 186.833,467.5 181.5,461.5C 181.167,460.5 180.5,459.833 179.5,459.5C 179.167,458.5 178.5,457.833 177.5,457.5C 177.167,456.5 176.5,455.833 175.5,455.5C 174.167,454.833 173.167,453.833 172.5,452.5C 172.953,451.542 173.619,450.708 174.5,450C 173.809,448.933 173.309,447.766 173,446.5C 172.667,447.5 172.333,448.5 172,449.5C 170.333,446.5 168.667,443.5 167,440.5C 166.333,444.5 165.667,444.5 165,440.5C 160.632,436.467 156.632,432.134 153,427.5C 152.667,428.167 152.333,428.833 152,429.5C 149.667,426.5 147.333,423.5 145,420.5C 144.586,420.957 144.086,421.291 143.5,421.5C 142.083,419.739 140.417,418.406 138.5,417.5C 135.333,414.502 132,411.669 128.5,409C 158.11,379.223 187.776,349.723 217.5,320.5 Z"/></g>
<g><path style="opacity:1" fill="#4796b8" d="M 131.5,321.5 C 131.5,322.167 131.5,322.833 131.5,323.5C 129.194,326.473 126.527,329.14 123.5,331.5C 123.192,329.076 123.526,326.743 124.5,324.5C 125.167,324.833 125.833,325.167 126.5,325.5C 127.731,324.349 127.731,323.183 126.5,322C 127.962,320.372 129.628,320.205 131.5,321.5 Z"/></g>
<g><path style="opacity:0.016" fill="#01090e" d="M 45.5,325.5 C 46.5,325.833 47.1667,326.5 47.5,327.5C 46.1667,327.5 45.5,326.833 45.5,325.5 Z"/></g>
<g><path style="opacity:0.016" fill="#01090e" d="M 386.5,325.5 C 387.833,326.167 387.833,326.167 386.5,325.5 Z"/></g>
<g><path style="opacity:0.016" fill="#01090e" d="M 47.5,327.5 C 48.5,327.833 49.1667,328.5 49.5,329.5C 48.1667,329.5 47.5,328.833 47.5,327.5 Z"/></g>
<g><path style="opacity:0.016" fill="#01090e" d="M 384.5,327.5 C 385.833,328.167 385.833,328.167 384.5,327.5 Z"/></g>
<g><path style="opacity:0.016" fill="#01090e" d="M 371.5,340.5 C 371.5,341.833 370.833,342.5 369.5,342.5C 369.833,341.5 370.5,340.833 371.5,340.5 Z"/></g>
<g><path style="opacity:0.016" fill="#01090e" d="M 369.5,342.5 C 369.5,343.833 368.833,344.5 367.5,344.5C 367.833,343.5 368.5,342.833 369.5,342.5 Z"/></g>
<g><path style="opacity:0.996" fill="#53b3dd" d="M 121.5,332.5 C 110.549,343.786 99.5488,355.119 88.5,366.5C 88.4606,365.417 88.1272,364.417 87.5,363.5C 89.0152,361.453 89.8485,359.119 90,356.5C 90.6667,361.833 91.3333,361.833 92,356.5C 92.3333,357.167 92.6667,357.833 93,358.5C 93.5,357.333 94.3333,356.5 95.5,356C 92.8003,355.051 91.967,353.217 93,350.5C 93.7751,352.223 95.1084,353.223 97,353.5C 99.4939,351.833 100.994,349.5 101.5,346.5C 103.883,347.462 104.883,346.462 104.5,343.5C 106.199,343.66 107.866,343.494 109.5,343C 108.409,340.936 108.242,338.769 109,336.5C 109.202,338.256 109.702,339.922 110.5,341.5C 110.654,340.091 110.821,338.424 111,336.5C 111.249,337.624 111.749,338.624 112.5,339.5C 112.911,338.738 113.077,337.738 113,336.5C 113.414,336.957 113.914,337.291 114.5,337.5C 115.167,335.833 115.833,334.167 116.5,332.5C 117.167,332.833 117.833,333.167 118.5,333.5C 119.243,332.092 120.077,330.759 121,329.5C 121.483,330.448 121.649,331.448 121.5,332.5 Z"/></g>
<g><path style="opacity:0.039" fill="#152c37" d="M 367.5,344.5 C 365.785,346.882 363.785,348.882 361.5,350.5C 362.522,347.478 364.522,345.478 367.5,344.5 Z"/></g>
<g><path style="opacity:0.039" fill="#16303c" d="M 361.5,350.5 C 360.833,351.833 359.833,352.833 358.5,353.5C 358.5,351.5 359.5,350.5 361.5,350.5 Z"/></g>
<g><path style="opacity:0.997" fill="#2f6881" d="M 356.5,354.5 C 354.854,357.81 352.52,360.477 349.5,362.5C 350.117,360.771 351.117,359.271 352.5,358C 352.043,357.586 351.709,357.086 351.5,356.5C 353.139,355.678 354.805,355.011 356.5,354.5 Z"/></g>
<g><path style="opacity:0.016" fill="#01090e" d="M 349.5,362.5 C 349.5,363.833 348.833,364.5 347.5,364.5C 347.833,363.5 348.5,362.833 349.5,362.5 Z"/></g>
<g><path style="opacity:0.016" fill="#01090e" d="M 347.5,364.5 C 347.5,365.833 346.833,366.5 345.5,366.5C 345.833,365.5 346.5,364.833 347.5,364.5 Z"/></g>
<g><path style="opacity:0.039" fill="#173542" d="M 345.5,366.5 C 344.167,368.5 342.5,370.167 340.5,371.5C 341.167,368.833 342.833,367.167 345.5,366.5 Z"/></g>
<g><path style="opacity:0.998" fill="#35738f" d="M 338.5,373.5 C 338.622,374.707 337.622,375.374 335.5,375.5C 334.697,374.577 334.53,373.577 335,372.5C 336.011,373.337 337.178,373.67 338.5,373.5 Z"/></g>
<g><path style="opacity:0.016" fill="#01090e" d="M 334.5,377.5 C 335.833,378.167 335.833,378.167 334.5,377.5 Z"/></g>
<g><path style="opacity:0.016" fill="#01090e" d="M 131.5,413.5 C 132.833,414.167 132.833,414.167 131.5,413.5 Z"/></g>
<g><path style="opacity:0.016" fill="#01090e" d="M 151.5,432.5 C 150.833,433.167 150.833,433.167 151.5,432.5 Z"/></g>
<g><path style="opacity:1" fill="#2d9dce" d="M 138.5,417.5 C 140.417,418.406 142.083,419.739 143.5,421.5C 144.086,421.291 144.586,420.957 145,420.5C 147.333,423.5 149.667,426.5 152,429.5C 152.333,428.833 152.667,428.167 153,427.5C 156.632,432.134 160.632,436.467 165,440.5C 165.667,444.5 166.333,444.5 167,440.5C 168.667,443.5 170.333,446.5 172,449.5C 172.333,448.5 172.667,447.5 173,446.5C 173.309,447.766 173.809,448.933 174.5,450C 173.619,450.708 172.953,451.542 172.5,452.5C 169.167,449.833 166.167,446.833 163.5,443.5C 163.167,442.5 162.5,441.833 161.5,441.5C 158.167,438.5 154.833,435.5 151.5,432.5C 147.167,427.5 142.833,422.5 138.5,417.5 Z"/></g>
<g><path style="opacity:0.999" fill="#05599c" d="M 301.5,409.5 C 301.833,409.5 302.167,409.5 302.5,409.5C 320.446,426.779 338.113,444.446 355.5,462.5C 353.972,462.517 353.472,463.184 354,464.5C 363.825,474.124 373.658,483.79 383.5,493.5C 384.527,494.791 385.527,494.791 386.5,493.5C 407.501,514.168 428.168,535.168 448.5,556.5C 390.833,556.5 333.167,556.5 275.5,556.5C 254.756,536.548 234.422,515.881 214.5,494.5C 215.609,494.443 216.609,494.11 217.5,493.5C 218.601,494.598 219.934,494.765 221.5,494C 244.895,485.459 267.395,476.959 289,468.5C 289.333,468.833 289.667,469.167 290,469.5C 290.982,468.241 291.315,466.908 291,465.5C 289.47,464.364 288.137,463.364 287,462.5C 286.667,463.167 286.333,463.833 286,464.5C 284.333,461.833 282.667,459.167 281,456.5C 280.667,457.5 280.333,458.5 280,459.5C 279.695,457.443 279.695,455.443 280,453.5C 277.667,451.167 275.333,448.833 273,446.5C 272.085,447.328 271.419,448.328 271,449.5C 270.833,449 270.667,448.5 270.5,448C 270.525,446.012 270.525,444.012 270.5,442C 275.077,437.97 278.744,433.803 281.5,429.5C 287.833,422.5 294.5,415.833 301.5,409.5 Z"/></g>
<g><path style="opacity:0.016" fill="#09181d" d="M 161.5,441.5 C 162.5,441.833 163.167,442.5 163.5,443.5C 162.167,443.5 161.5,442.833 161.5,441.5 Z"/></g>
<g><path style="opacity:0.016" fill="#01090e" d="M 1710.5,449.5 C 1711.83,450.167 1711.83,450.167 1710.5,449.5 Z"/></g>
<g><path style="opacity:0.016" fill="#051116" d="M 175.5,455.5 C 176.5,455.833 177.167,456.5 177.5,457.5C 176.167,457.5 175.5,456.833 175.5,455.5 Z"/></g>
<g><path style="opacity:1" fill="#0d5098" d="M 281.5,429.5 C 278.744,433.803 275.077,437.97 270.5,442C 270.525,444.012 270.525,446.012 270.5,448C 270.667,448.5 270.833,449 271,449.5C 271.419,448.328 272.085,447.328 273,446.5C 275.333,448.833 277.667,451.167 280,453.5C 279.695,455.443 279.695,457.443 280,459.5C 280.333,458.5 280.667,457.5 281,456.5C 282.667,459.167 284.333,461.833 286,464.5C 286.333,463.833 286.667,463.167 287,462.5C 288.137,463.364 289.47,464.364 291,465.5C 291.315,466.908 290.982,468.241 290,469.5C 289.667,469.167 289.333,468.833 289,468.5C 267.395,476.959 244.895,485.459 221.5,494C 219.934,494.765 218.601,494.598 217.5,493.5C 238.5,471.833 259.833,450.5 281.5,429.5 Z"/></g>
<g><path style="opacity:0.016" fill="#051116" d="M 177.5,457.5 C 178.5,457.833 179.167,458.5 179.5,459.5C 178.167,459.5 177.5,458.833 177.5,457.5 Z"/></g>
<g><path style="opacity:0.016" fill="#051116" d="M 179.5,459.5 C 180.5,459.833 181.167,460.5 181.5,461.5C 180.167,461.5 179.5,460.833 179.5,459.5 Z"/></g>
<g><path style="opacity:1" fill="#114a7d" d="M 355.5,462.5 C 366.167,472.5 376.5,482.833 386.5,493.5C 385.527,494.791 384.527,494.791 383.5,493.5C 373.658,483.79 363.825,474.124 354,464.5C 353.472,463.184 353.972,462.517 355.5,462.5 Z"/></g>
<g><path style="opacity:0.016" fill="#01080d" d="M 198.5,478.5 C 199.5,478.833 200.167,479.5 200.5,480.5C 199.167,480.5 198.5,479.833 198.5,478.5 Z"/></g>
<g><path style="opacity:0.016" fill="#01080d" d="M 200.5,480.5 C 201.5,480.833 202.167,481.5 202.5,482.5C 201.167,482.5 200.5,481.833 200.5,480.5 Z"/></g>
<g><path style="opacity:0.016" fill="#01080d" d="M 203.5,483.5 C 204.5,483.833 205.167,484.5 205.5,485.5C 204.167,485.5 203.5,484.833 203.5,483.5 Z"/></g>
</svg>
