<?xml version="1.0" encoding="UTF-8"?>
<!DOCTYPE svg PUBLIC "-//W3C//DTD SVG 1.1//EN" "http://www.w3.org/Graphics/SVG/1.1/DTD/svg11.dtd">
<svg xmlns="http://www.w3.org/2000/svg" version="1.1" width="910px" height="380px" style="shape-rendering:geometricPrecision; text-rendering:geometricPrecision; image-rendering:optimizeQuality; fill-rule:evenodd; clip-rule:evenodd" xmlns:xlink="http://www.w3.org/1999/xlink">
<g><path style="opacity:0.986" fill="#ef5032" d="M 182.5,-0.5 C 186.833,-0.5 191.167,-0.5 195.5,-0.5C 198.9,1.03697 202.233,2.8703 205.5,5C 261.667,61.1667 317.833,117.333 374,173.5C 380.929,183.924 381.262,194.591 375,205.5C 318.5,262 262,318.5 205.5,375C 202.901,376.795 200.234,378.295 197.5,379.5C 192.5,379.5 187.5,379.5 182.5,379.5C 180.259,378.379 177.925,377.213 175.5,376C 118,318.5 60.5,261 3,203.5C 1.78739,201.075 0.620727,198.741 -0.5,196.5C -0.5,191.5 -0.5,186.5 -0.5,181.5C 1.22576,179.058 2.72576,176.391 4,173.5C 42.5,135 81,96.5 119.5,58C 120.167,57.3333 120.833,57.3333 121.5,58C 135.333,71.8333 149.167,85.6667 163,99.5C 159.846,110.601 161.513,120.934 168,130.5C 170.871,134.016 174.371,136.683 178.5,138.5C 179.667,173.829 179.833,209.162 179,244.5C 161.468,254.954 157.468,269.287 167,287.5C 179.911,301.469 194.078,302.969 209.5,292C 219.239,281.428 221.072,269.595 215,256.5C 211.977,251.977 208.144,248.31 203.5,245.5C 202.333,210.505 202.167,175.505 203,140.5C 216,153.5 229,166.5 242,179.5C 237.604,196.663 243.104,209.496 258.5,218C 277.353,223.324 290.186,216.824 297,198.5C 299.534,181.398 292.701,169.898 276.5,164C 270.462,163.529 264.462,163.529 258.5,164C 245,150.5 231.5,137 218,123.5C 221.777,104.881 214.943,92.0478 197.5,85C 191.462,84.5292 185.462,84.5292 179.5,85C 165.333,70.8333 151.167,56.6667 137,42.5C 136.333,41.8333 136.333,41.1667 137,40.5C 148.833,28.6667 160.667,16.8333 172.5,5C 175.767,2.8703 179.1,1.03697 182.5,-0.5 Z"/></g>
<g><path style="opacity:0.974" fill="#3c2d00" d="M 698.5,-0.5 C 705.833,-0.5 713.167,-0.5 720.5,-0.5C 727.75,1.37929 733.583,5.37929 738,11.5C 739.725,14.674 741.058,18.0073 742,21.5C 745.533,54.9658 730.7,68.7991 697.5,63C 685.986,59.8292 679.152,52.3292 677,40.5C 672.697,20.4258 679.864,6.75913 698.5,-0.5 Z"/></g>
<g><path style="opacity:0.98" fill="#3c2d00" d="M 909.5,264.5 C 909.5,265.833 909.5,267.167 909.5,268.5C 882.154,282.001 853.487,285.835 823.5,280C 803.432,273.579 792.599,259.746 791,238.5C 790.667,201.5 790.333,164.5 790,127.5C 789.5,127 789,126.5 788.5,126C 779.84,125.5 771.173,125.334 762.5,125.5C 762.5,114.5 762.5,103.5 762.5,92.5C 785.029,91.3309 799.529,79.9975 806,58.5C 808.338,50.3089 809.838,41.9756 810.5,33.5C 822.5,33.5 834.5,33.5 846.5,33.5C 846.5,51.8333 846.5,70.1667 846.5,88.5C 864.5,88.5 882.5,88.5 900.5,88.5C 900.5,100.833 900.5,113.167 900.5,125.5C 882.5,125.5 864.5,125.5 846.5,125.5C 846.333,158.502 846.5,191.502 847,224.5C 849.851,236.446 857.517,242.112 870,241.5C 880.448,240.846 890.615,238.846 900.5,235.5C 902.928,245.444 905.928,255.11 909.5,264.5 Z"/></g>
<g><path style="opacity:0.981" fill="#3c2d00" d="M 528.5,92.5 C 544.32,91.7907 559.987,92.9573 575.5,96C 599.164,96.5 622.831,96.6666 646.5,96.5C 646.832,106.855 646.499,117.188 645.5,127.5C 634.837,128.539 624.17,129.705 613.5,131C 621.979,141.431 626.312,153.431 626.5,167C 624.55,199.891 607.55,220.225 575.5,228C 566.437,229.906 557.27,230.739 548,230.5C 538.441,230.386 528.941,229.886 519.5,229C 516.167,234.333 512.833,239.667 509.5,245C 538.764,247.22 568.098,249.887 597.5,253C 631.785,257.62 646.952,277.12 643,311.5C 639.433,333.072 627.6,348.239 607.5,357C 586.462,365.197 564.628,369.03 542,368.5C 521.033,368.9 500.533,366.067 480.5,360C 453.044,347.895 445.544,328.062 458,300.5C 462.133,295.366 466.633,290.532 471.5,286C 457.604,278.33 453.104,266.83 458,251.5C 466.377,238.785 476.544,227.619 488.5,218C 472.43,208.727 462.597,194.893 459,176.5C 454.671,125.668 477.837,97.6684 528.5,92.5 Z M 536.5,129.5 C 550.546,127.295 562.38,131.295 572,141.5C 580.676,157.426 578.843,171.926 566.5,185C 553.054,192.489 539.054,193.489 524.5,188C 513.021,180.267 508.521,169.434 511,155.5C 513.667,141.001 522.167,132.334 536.5,129.5 Z M 505.5,295.5 C 529.868,297.158 554.201,299.325 578.5,302C 586.3,303.76 589.466,308.594 588,316.5C 586.167,322.333 582.333,326.167 576.5,328C 564.987,331.854 553.154,333.354 541,332.5C 527.541,333.729 514.708,331.563 502.5,326C 496.341,320.688 494.841,314.188 498,306.5C 500.33,302.678 502.83,299.012 505.5,295.5 Z"/></g>
<g><path style="opacity:0.977" fill="#3c2d00" d="M 666.5,92.5 C 691.833,92.5 717.167,92.5 742.5,92.5C 742.333,144.501 742.5,196.501 743,248.5C 750.641,250.712 758.475,252.045 766.5,252.5C 766.5,262.5 766.5,272.5 766.5,282.5C 731.833,282.5 697.167,282.5 662.5,282.5C 662.5,272.5 662.5,262.5 662.5,252.5C 669.188,251.902 675.854,251.069 682.5,250C 683.931,249.535 685.097,248.701 686,247.5C 686.667,209.5 686.667,171.5 686,133.5C 685.5,131.667 684.333,130.5 682.5,130C 675.835,127.722 669.168,125.556 662.5,123.5C 663.264,113.053 664.597,102.72 666.5,92.5 Z"/></g>
</svg>
