<?xml version="1.0" encoding="UTF-8"?>
<!DOCTYPE svg PUBLIC "-//W3C//DTD SVG 1.1//EN" "http://www.w3.org/Graphics/SVG/1.1/DTD/svg11.dtd">
<svg xmlns="http://www.w3.org/2000/svg" version="1.1" width="1200px" height="449px" style="shape-rendering:geometricPrecision; text-rendering:geometricPrecision; image-rendering:optimizeQuality; fill-rule:evenodd; clip-rule:evenodd" xmlns:xlink="http://www.w3.org/1999/xlink">
<g><path style="opacity:0.993" fill="#00acd7" d="M 554.5,-0.5 C 570.167,-0.5 585.833,-0.5 601.5,-0.5C 674.303,10.1458 726.136,48.8125 757,115.5C 758.462,121.051 756.295,124.218 750.5,125C 715.167,134.167 679.833,143.333 644.5,152.5C 642.39,151.946 640.39,151.112 638.5,150C 619.157,125.202 593.657,112.369 562,111.5C 523.69,115.163 492.357,131.83 468,161.5C 441.375,198.499 435.708,238.499 451,281.5C 468.83,316.015 497.33,333.682 536.5,334.5C 569.603,333.197 597.103,320.197 619,295.5C 624.289,288.422 629.456,281.255 634.5,274C 594.107,273.983 553.774,273.316 513.5,272C 509.272,267.462 508.438,262.295 511,256.5C 520.787,232.094 532.287,208.594 545.5,186C 547.275,184.561 549.275,183.561 551.5,183C 615.5,182.667 679.5,182.333 743.5,182C 784.771,73.647 863.437,14.647 979.5,5C 1060.23,-0.544278 1124.06,29.2891 1171,94.5C 1187.44,121.666 1196.94,151 1199.5,182.5C 1199.5,197.167 1199.5,211.833 1199.5,226.5C 1193.89,278.058 1173.39,322.724 1138,360.5C 1085.3,415.427 1020.8,444.761 944.5,448.5C 943.167,448.5 941.833,448.5 940.5,448.5C 878.135,447.11 825.302,424.11 782,379.5C 763.495,358.501 750.162,334.501 742,307.5C 683.912,411.458 595.412,456.625 476.5,443C 422.464,431.591 379.631,403.424 348,358.5C 321.491,313.953 312.158,265.953 320,214.5C 328.016,168.81 347.016,128.477 377,93.5C 423.697,38.8984 482.863,7.56507 554.5,-0.5 Z M 973.5,112.5 C 1024.74,110.018 1059.24,132.684 1077,180.5C 1088.02,241.115 1067.19,287.282 1014.5,319C 972.693,342.433 932.027,340.766 892.5,314C 857.321,281.445 848.154,242.612 865,197.5C 880.955,155.914 910.455,129.081 953.5,117C 960.259,115.285 966.925,113.785 973.5,112.5 Z"/></g>
<g><path style="opacity:0.986" fill="#00abd6" d="M 106.5,112.5 C 176.501,112.333 246.501,112.5 316.5,113C 318.158,113.725 318.658,114.892 318,116.5C 314.667,121.833 311.333,127.167 308,132.5C 306.681,134.487 304.848,135.654 302.5,136C 230.839,135.63 159.172,135.463 87.5,135.5C 87.3433,134.127 87.51,132.793 88,131.5C 92.3097,125.689 96.8097,120.023 101.5,114.5C 103.336,113.972 105.003,113.306 106.5,112.5 Z"/></g>
<g><path style="opacity:0.953" fill="#00abd7" d="M -0.5,189.5 C -0.5,187.833 -0.5,186.167 -0.5,184.5C 3.84687,180.314 7.68021,175.647 11,170.5C 12.3189,168.513 14.1523,167.346 16.5,167C 106.833,166.333 197.167,166.333 287.5,167C 288.081,167.893 288.415,168.893 288.5,170C 287.137,176.431 284.803,182.431 281.5,188C 187.501,188.682 93.5006,189.182 -0.5,189.5 Z"/></g>
<g><path style="opacity:0.951" fill="#00acd6" d="M 152.5,220.5 C 193.168,220.333 233.835,220.5 274.5,221C 275.98,222.299 276.646,223.966 276.5,226C 275.88,230.82 275.38,235.653 275,240.5C 274.5,241.667 273.667,242.5 272.5,243C 229.167,243.667 185.833,243.667 142.5,243C 140.717,241.933 140.217,240.433 141,238.5C 144.109,231.927 147.942,225.927 152.5,220.5 Z"/></g>
</svg>
