<?xml version="1.0" encoding="UTF-8"?>
<!DOCTYPE svg PUBLIC "-//W3C//DTD SVG 1.1//EN" "http://www.w3.org/Graphics/SVG/1.1/DTD/svg11.dtd">
<svg xmlns="http://www.w3.org/2000/svg" version="1.1" width="4000px" height="2500px" style="shape-rendering:geometricPrecision; text-rendering:geometricPrecision; image-rendering:optimizeQuality; fill-rule:evenodd; clip-rule:evenodd" xmlns:xlink="http://www.w3.org/1999/xlink">
<g><path style="opacity:1" fill="#eb2025" d="M 1132.5,132.5 C 1131.96,132.56 1131.62,132.893 1131.5,133.5C 1136.54,141.119 1140.54,149.286 1143.5,158C 1143.84,159.03 1144.5,159.53 1145.5,159.5C 1164.9,224.9 1169.07,291.233 1158,358.5C 1154.72,377.495 1149.55,395.828 1142.5,413.5C 1137.13,425.274 1132.13,437.274 1127.5,449.5C 1126.34,453.151 1124.67,456.485 1122.5,459.5C 1115.79,470.455 1108.63,481.788 1101,493.5C 1100.52,494.448 1100.35,495.448 1100.5,496.5C 1089.39,513.792 1076.89,530.126 1063,545.5C 1005.6,601.064 948.105,656.398 890.5,711.5C 890.44,710.957 890.107,710.624 889.5,710.5C 886.987,712.328 885.321,714.661 884.5,717.5C 839.111,760.35 796.944,806.017 758,854.5C 747.315,869.22 737.149,884.22 727.5,899.5C 718.04,913.756 710.706,929.09 705.5,945.5C 700.76,959.128 697.593,973.128 696,987.5C 695.465,999.209 695.965,1010.88 697.5,1022.5C 700.044,1041.84 704.71,1060.67 711.5,1079C 711.836,1080.03 712.503,1080.53 713.5,1080.5C 714.234,1081.71 714.567,1083.04 714.5,1084.5C 715.615,1091.08 717.615,1097.41 720.5,1103.5C 720.957,1104.3 721.624,1104.63 722.5,1104.5C 728.009,1119.19 734.342,1133.52 741.5,1147.5C 740.957,1147.56 740.624,1147.89 740.5,1148.5C 741.804,1152.15 743.804,1155.15 746.5,1157.5C 750.847,1166.19 755.18,1174.86 759.5,1183.5C 762.795,1191.42 766.628,1199.09 771,1206.5C 771.759,1208.06 772.926,1209.06 774.5,1209.5C 775.167,1209.5 775.5,1209.83 775.5,1210.5C 774.957,1210.56 774.624,1210.89 774.5,1211.5C 781.436,1225.05 789.436,1237.71 798.5,1249.5C 819.596,1283.36 841.929,1316.36 865.5,1348.5C 864.957,1348.56 864.624,1348.89 864.5,1349.5C 866.375,1352.75 868.375,1355.92 870.5,1359C 870.272,1359.4 869.938,1359.57 869.5,1359.5C 841.817,1334.48 815.817,1307.82 791.5,1279.5C 791.167,1278.5 790.5,1277.83 789.5,1277.5C 727.479,1212.14 671.646,1143.14 622,1070.5C 612.761,1054.36 603.761,1038.03 595,1021.5C 589.503,1010.17 584.836,998.505 581,986.5C 578.97,980.322 577.804,973.988 577.5,967.5C 575.367,941.559 579.2,916.559 589,892.5C 592.571,883.694 596.404,875.028 600.5,866.5C 605.398,856.368 611.065,846.701 617.5,837.5C 618.496,837.586 619.329,837.252 620,836.5C 624.349,831.122 628.182,825.455 631.5,819.5C 631.5,819.167 631.5,818.833 631.5,818.5C 637.294,813.866 642.294,808.366 646.5,802C 646.272,801.601 645.938,801.435 645.5,801.5C 651.941,793.606 658.607,785.939 665.5,778.5C 672.812,773.188 679.146,766.854 684.5,759.5C 684.782,758.222 685.449,757.222 686.5,756.5C 687.922,756.291 689.255,755.791 690.5,755C 698.702,746.965 706.702,738.798 714.5,730.5C 717.869,726.131 721.869,722.464 726.5,719.5C 734.138,713.196 741.472,706.53 748.5,699.5C 749.326,697.736 750.659,696.402 752.5,695.5C 762.177,688.969 771.177,681.469 779.5,673C 779.272,672.601 778.938,672.435 778.5,672.5C 779.795,671.512 781.128,670.512 782.5,669.5C 787.381,667.291 791.381,663.957 794.5,659.5C 795.167,658.167 796.167,657.167 797.5,656.5C 807.563,649.282 817.23,641.449 826.5,633C 826.272,632.601 825.938,632.435 825.5,632.5C 840.276,619.938 855.276,607.605 870.5,595.5C 881.707,588.298 892.04,579.965 901.5,570.5C 918.728,555.541 936.395,541.041 954.5,527C 990.194,498.144 1021.53,465.31 1048.5,428.5C 1049.5,428.586 1050.33,428.252 1051,427.5C 1055.42,420.328 1060.09,413.328 1065,406.5C 1067.22,403.46 1068.72,400.127 1069.5,396.5C 1118.76,311.998 1134.76,221.498 1117.5,125C 1117.56,118.22 1120.06,117.053 1125,121.5C 1127.33,125.322 1129.83,128.988 1132.5,132.5 Z"/></g>
<g><path style="opacity:0.595" fill="#da3237" d="M 1132.5,132.5 C 1138.16,140.828 1142.5,149.828 1145.5,159.5C 1144.5,159.53 1143.84,159.03 1143.5,158C 1140.54,149.286 1136.54,141.119 1131.5,133.5C 1131.62,132.893 1131.96,132.56 1132.5,132.5 Z"/></g>
<g><path style="opacity:0.625" fill="#df2e33" d="M 1069.5,396.5 C 1068.72,400.127 1067.22,403.46 1065,406.5C 1060.09,413.328 1055.42,420.328 1051,427.5C 1050.33,428.252 1049.5,428.586 1048.5,428.5C 1055.53,417.811 1062.53,407.144 1069.5,396.5 Z"/></g>
<g><path style="opacity:0.595" fill="#db3137" d="M 1142.5,413.5 C 1139.04,426.213 1134.04,438.213 1127.5,449.5C 1132.13,437.274 1137.13,425.274 1142.5,413.5 Z"/></g>
<g><path style="opacity:0.625" fill="#dc3035" d="M 1122.5,459.5 C 1116.42,472.667 1109.09,485.001 1100.5,496.5C 1100.35,495.448 1100.52,494.448 1101,493.5C 1108.63,481.788 1115.79,470.455 1122.5,459.5 Z"/></g>
<g><path style="opacity:0.533" fill="#e02c31" d="M 901.5,570.5 C 892.04,579.965 881.707,588.298 870.5,595.5C 880.539,586.794 890.872,578.461 901.5,570.5 Z"/></g>
<g><path style="opacity:0.639" fill="#dc3136" d="M 1379.5,589.5 C 1379.37,588.761 1379.54,588.094 1380,587.5C 1381.59,586.624 1383.09,585.624 1384.5,584.5C 1383.83,584.167 1383.17,583.833 1382.5,583.5C 1371.23,586.818 1359.89,589.818 1348.5,592.5C 1359.88,588.266 1371.54,584.599 1383.5,581.5C 1384.88,582 1385.55,583 1385.5,584.5C 1383.92,586.63 1381.92,588.297 1379.5,589.5 Z"/></g>
<g><path style="opacity:1" fill="#eb2025" d="M 1379.5,589.5 C 1353.84,605.019 1328.18,621.352 1302.5,638.5C 1301.28,637.535 1299.95,637.702 1298.5,639C 1296.5,640.333 1294.5,641.667 1292.5,643C 1291.75,643.671 1291.41,644.504 1291.5,645.5C 1291.17,645.5 1290.83,645.5 1290.5,645.5C 1286.91,646.442 1284.24,648.442 1282.5,651.5C 1221.9,691.241 1164.57,735.407 1110.5,784C 1077.41,814.432 1050.24,849.266 1029,888.5C 1014.51,918.003 1012.35,948.336 1022.5,979.5C 1021.96,979.56 1021.62,979.893 1021.5,980.5C 1025.36,991.22 1030.03,1001.55 1035.5,1011.5C 1035.96,1012.3 1036.62,1012.63 1037.5,1012.5C 1040.77,1018.04 1043.77,1023.7 1046.5,1029.5C 1049.95,1037.43 1054.62,1044.43 1060.5,1050.5C 1075.23,1072.56 1089.56,1094.9 1103.5,1117.5C 1102.43,1118.25 1102.26,1119.25 1103,1120.5C 1107.86,1128.9 1112.69,1137.23 1117.5,1145.5C 1119.01,1152.42 1122.01,1158.42 1126.5,1163.5C 1136.41,1186.14 1141.74,1209.81 1142.5,1234.5C 1141.88,1263.18 1133.72,1289.51 1118,1313.5C 1096.02,1345.15 1070.19,1373.31 1040.5,1398C 1017.63,1416.69 993.459,1433.52 968,1448.5C 965.754,1448.02 965.254,1447.02 966.5,1445.5C 967.496,1445.59 968.329,1445.25 969,1444.5C 974.613,1435.89 980.613,1427.55 987,1419.5C 994.276,1409.28 1000.78,1398.61 1006.5,1387.5C 1008.07,1383.27 1010.07,1379.27 1012.5,1375.5C 1015.48,1372.9 1017.48,1369.57 1018.5,1365.5C 1037.33,1325.49 1035.5,1286.49 1013,1248.5C 989.654,1212.47 965.321,1177.14 940,1142.5C 933.974,1133.77 928.474,1124.77 923.5,1115.5C 922.756,1111 920.756,1107.34 917.5,1104.5C 882.581,1038.56 876.748,971.564 900,903.5C 903.634,894.234 907.8,885.234 912.5,876.5C 919.994,864.711 927.661,852.878 935.5,841C 935.272,840.601 934.938,840.435 934.5,840.5C 954.641,812.948 977.974,788.281 1004.5,766.5C 1008.05,764.889 1011.05,762.556 1013.5,759.5C 1014.17,758.167 1015.17,757.167 1016.5,756.5C 1024.71,751.563 1032.38,745.896 1039.5,739.5C 1042.19,736.815 1045.19,734.482 1048.5,732.5C 1049.55,732.649 1050.55,732.483 1051.5,732C 1067.43,720.909 1083.76,710.409 1100.5,700.5C 1101.3,700.043 1101.63,699.376 1101.5,698.5C 1124.34,684.91 1148.01,672.577 1172.5,661.5C 1176.58,660.624 1180.25,658.957 1183.5,656.5C 1192.42,651.41 1201.75,647.077 1211.5,643.5C 1212.87,643.657 1214.21,643.49 1215.5,643C 1220.74,640.768 1225.74,638.268 1230.5,635.5C 1268.88,618.814 1308.22,604.48 1348.5,592.5C 1359.89,589.818 1371.23,586.818 1382.5,583.5C 1383.17,583.833 1383.83,584.167 1384.5,584.5C 1383.09,585.624 1381.59,586.624 1380,587.5C 1379.54,588.094 1379.37,588.761 1379.5,589.5 Z"/></g>
<g><path style="opacity:0.554" fill="#de2f33" d="M 1230.5,635.5 C 1225.74,638.268 1220.74,640.768 1215.5,643C 1214.21,643.49 1212.87,643.657 1211.5,643.5C 1217.43,640.039 1223.76,637.373 1230.5,635.5 Z"/></g>
<g><path style="opacity:0.625" fill="#d7353b" d="M 1302.5,638.5 C 1299,641.083 1295.34,643.416 1291.5,645.5C 1291.41,644.504 1291.75,643.671 1292.5,643C 1294.5,641.667 1296.5,640.333 1298.5,639C 1299.95,637.702 1301.28,637.535 1302.5,638.5 Z"/></g>
<g><path style="opacity:0.533" fill="#de2e33" d="M 825.5,632.5 C 825.938,632.435 826.272,632.601 826.5,633C 817.23,641.449 807.563,649.282 797.5,656.5C 806.514,648.155 815.847,640.155 825.5,632.5 Z"/></g>
<g><path style="opacity:0.625" fill="#d7353b" d="M 1290.5,645.5 C 1288.23,647.975 1285.56,649.975 1282.5,651.5C 1284.24,648.442 1286.91,646.442 1290.5,645.5 Z"/></g>
<g><path style="opacity:0.718" fill="#d93338" d="M 1183.5,656.5 C 1180.25,658.957 1176.58,660.624 1172.5,661.5C 1175.75,659.043 1179.42,657.376 1183.5,656.5 Z"/></g>
<g><path style="opacity:0.579" fill="#d93338" d="M 794.5,659.5 C 791.381,663.957 787.381,667.291 782.5,669.5C 786.122,665.692 790.122,662.359 794.5,659.5 Z"/></g>
<g><path style="opacity:0.579" fill="#dc3136" d="M 778.5,672.5 C 778.938,672.435 779.272,672.601 779.5,673C 771.177,681.469 762.177,688.969 752.5,695.5C 761.126,687.843 769.793,680.176 778.5,672.5 Z"/></g>
<g><path style="opacity:0.57" fill="#dc3036" d="M 748.5,699.5 C 741.472,706.53 734.138,713.196 726.5,719.5C 732.858,711.811 740.191,705.144 748.5,699.5 Z"/></g>
<g><path style="opacity:0.718" fill="#d3373f" d="M 890.5,711.5 C 888.833,713.833 886.833,715.833 884.5,717.5C 885.321,714.661 886.987,712.328 889.5,710.5C 890.107,710.624 890.44,710.957 890.5,711.5 Z"/></g>
<g><path style="opacity:0.625" fill="#dd2f34" d="M 1101.5,698.5 C 1101.63,699.376 1101.3,700.043 1100.5,700.5C 1083.76,710.409 1067.43,720.909 1051.5,732C 1050.55,732.483 1049.55,732.649 1048.5,732.5C 1065.62,720.385 1083.29,709.052 1101.5,698.5 Z"/></g>
<g><path style="opacity:0.533" fill="#db3136" d="M 714.5,730.5 C 706.702,738.798 698.702,746.965 690.5,755C 689.255,755.791 687.922,756.291 686.5,756.5C 695.527,747.472 704.86,738.806 714.5,730.5 Z"/></g>
<g><path style="opacity:0.625" fill="#dc3035" d="M 1039.5,739.5 C 1032.38,745.896 1024.71,751.563 1016.5,756.5C 1023.62,750.104 1031.29,744.437 1039.5,739.5 Z"/></g>
<g><path style="opacity:0.533" fill="#db3237" d="M 684.5,759.5 C 679.146,766.854 672.812,773.188 665.5,778.5C 671.575,771.758 677.908,765.425 684.5,759.5 Z"/></g>
<g><path style="opacity:0.533" fill="#d93338" d="M 1013.5,759.5 C 1011.05,762.556 1008.05,764.889 1004.5,766.5C 1006.95,763.444 1009.95,761.111 1013.5,759.5 Z"/></g>
<g><path style="opacity:0.595" fill="#d93339" d="M 645.5,801.5 C 645.938,801.435 646.272,801.601 646.5,802C 642.294,808.366 637.294,813.866 631.5,818.5C 635.938,812.61 640.605,806.943 645.5,801.5 Z"/></g>
<g><path style="opacity:0.533" fill="#dc3136" d="M 631.5,819.5 C 628.182,825.455 624.349,831.122 620,836.5C 619.329,837.252 618.496,837.586 617.5,837.5C 621.815,831.19 626.482,825.19 631.5,819.5 Z"/></g>
<g><path style="opacity:0.625" fill="#de2f34" d="M 934.5,840.5 C 934.938,840.435 935.272,840.601 935.5,841C 927.661,852.878 919.994,864.711 912.5,876.5C 918.844,863.797 926.177,851.797 934.5,840.5 Z"/></g>
<g><path style="opacity:0.611" fill="#dc3035" d="M 600.5,866.5 C 596.404,875.028 592.571,883.694 589,892.5C 579.2,916.559 575.367,941.559 577.5,967.5C 573.833,939.49 577.999,912.49 590,886.5C 592.75,879.33 596.25,872.663 600.5,866.5 Z"/></g>
<g><path style="opacity:0.595" fill="#de2f34" d="M 727.5,899.5 C 719.601,914.629 712.268,929.962 705.5,945.5C 710.706,929.09 718.04,913.756 727.5,899.5 Z"/></g>
<g><path style="opacity:1" fill="#eb2025" d="M 2207.5,1764.5 C 2206.41,1764.62 2205.75,1765.29 2205.5,1766.5C 2199.07,1793.78 2190.07,1820.11 2178.5,1845.5C 2154.24,1895.93 2117.24,1934.1 2067.5,1960C 2062.91,1962.13 2058.25,1963.96 2053.5,1965.5C 2046,1968.06 2038.5,1970.72 2031,1973.5C 2029.97,1973.84 2029.47,1974.5 2029.5,1975.5C 2027.18,1976.17 2024.85,1976.33 2022.5,1976C 2019.04,1973.54 2015.87,1970.7 2013,1967.5C 1997.04,1947.87 1980.71,1928.54 1964,1909.5C 1963.38,1908.55 1963.55,1907.72 1964.5,1907C 1968.42,1905.2 1972.42,1903.7 1976.5,1902.5C 1986.59,1899.29 1995.59,1894.29 2003.5,1887.5C 2019.29,1874.62 2033.29,1859.95 2045.5,1843.5C 2051.51,1838.13 2055.51,1831.46 2057.5,1823.5C 2060.7,1820.13 2063.2,1816.13 2065,1811.5C 2067.36,1806.08 2069.53,1800.58 2071.5,1795C 2071.43,1794.24 2071.1,1793.74 2070.5,1793.5C 2080.62,1765.76 2086.45,1737.09 2088,1707.5C 2088.33,1463.83 2088.67,1220.17 2089,976.5C 2089.47,975.069 2090.3,973.903 2091.5,973C 2129.95,972.811 2168.12,972.311 2206,971.5C 2208.07,972.264 2210.24,972.764 2212.5,973C 2214.33,973.5 2215.5,974.667 2216,976.5C 2216.67,1215.17 2216.67,1453.83 2216,1692.5C 2215.46,1716.79 2212.63,1740.79 2207.5,1764.5 Z"/></g>
<g><path style="opacity:0.595" fill="#dc3035" d="M 1022.5,979.5 C 1026.69,990.888 1031.69,1001.89 1037.5,1012.5C 1036.62,1012.63 1035.96,1012.3 1035.5,1011.5C 1030.03,1001.55 1025.36,991.22 1021.5,980.5C 1021.62,979.893 1021.96,979.56 1022.5,979.5 Z"/></g>
<g><path style="opacity:0.533" fill="#de2f33" d="M 1046.5,1029.5 C 1051.4,1036.29 1056.07,1043.29 1060.5,1050.5C 1054.62,1044.43 1049.95,1037.43 1046.5,1029.5 Z"/></g>
<g><path style="opacity:0.59" fill="#dd2f34" d="M 697.5,1022.5 C 701.564,1042.08 706.898,1061.41 713.5,1080.5C 712.503,1080.53 711.836,1080.03 711.5,1079C 704.71,1060.67 700.044,1041.84 697.5,1022.5 Z"/></g>
<g><path style="opacity:0.595" fill="#d8343a" d="M 714.5,1084.5 C 717.128,1091.1 719.795,1097.77 722.5,1104.5C 721.624,1104.63 720.957,1104.3 720.5,1103.5C 717.615,1097.41 715.615,1091.08 714.5,1084.5 Z"/></g>
<g><path style="opacity:0.533" fill="#d3373e" d="M 917.5,1104.5 C 920.756,1107.34 922.756,1111 923.5,1115.5C 921.25,1112 919.25,1108.33 917.5,1104.5 Z"/></g>
<g><path style="opacity:0.6" fill="#de2e33" d="M 1103.5,1117.5 C 1108.71,1126.59 1113.38,1135.93 1117.5,1145.5C 1112.69,1137.23 1107.86,1128.9 1103,1120.5C 1102.26,1119.25 1102.43,1118.25 1103.5,1117.5 Z"/></g>
<g><path style="opacity:0.595" fill="#da3237" d="M 1117.5,1145.5 C 1120.99,1151.16 1123.99,1157.16 1126.5,1163.5C 1122.01,1158.42 1119.01,1152.42 1117.5,1145.5 Z"/></g>
<g><path style="opacity:0.718" fill="#d93338" d="M 741.5,1147.5 C 743.167,1150.83 744.833,1154.17 746.5,1157.5C 743.804,1155.15 741.804,1152.15 740.5,1148.5C 740.624,1147.89 740.957,1147.56 741.5,1147.5 Z"/></g>
<g><path style="opacity:1" fill="#eb2025" d="M 2667.5,1189.5 C 2670.75,1191.96 2674.42,1193.62 2678.5,1194.5C 2704.3,1207.63 2724.63,1226.63 2739.5,1251.5C 2738.96,1251.56 2738.62,1251.89 2738.5,1252.5C 2743.02,1262.17 2747.69,1271.51 2752.5,1280.5C 2757.24,1294.79 2760.4,1309.45 2762,1324.5C 2762.67,1470.83 2762.67,1617.17 2762,1763.5C 2761.25,1764.13 2760.42,1764.63 2759.5,1765C 2745.33,1765.17 2731.17,1765.33 2717,1765.5C 2701.77,1765.64 2686.6,1765.14 2671.5,1764C 2669.4,1761.96 2668.23,1759.46 2668,1756.5C 2665.72,1741.43 2663.05,1726.43 2660,1711.5C 2659.88,1709.43 2658.88,1708.09 2657,1707.5C 2640.42,1722.25 2622.59,1735.25 2603.5,1746.5C 2603.44,1745.96 2603.11,1745.62 2602.5,1745.5C 2598.19,1747.13 2594.53,1749.47 2591.5,1752.5C 2576.17,1760.15 2560.51,1766.15 2544.5,1770.5C 2516.74,1780.63 2488.41,1783.47 2459.5,1779C 2432.46,1776.82 2406.79,1770.49 2382.5,1760C 2345.22,1742.38 2321.39,1713.55 2311,1673.5C 2298.99,1630.12 2299.83,1587.28 2313.5,1545C 2315.49,1542.84 2316.83,1540.34 2317.5,1537.5C 2321.09,1533.99 2323.42,1529.66 2324.5,1524.5C 2337.41,1503.59 2354.08,1486.26 2374.5,1472.5C 2393.01,1460.83 2412.51,1450.83 2433,1442.5C 2434.03,1442.16 2434.53,1441.5 2434.5,1440.5C 2461.82,1430.11 2489.32,1424.11 2517,1422.5C 2558.01,1417.97 2599.17,1414.8 2640.5,1413C 2641.42,1412.63 2642.25,1412.13 2643,1411.5C 2646.59,1380.91 2644.25,1350.58 2636,1320.5C 2625.9,1287.74 2604.07,1267.9 2570.5,1261C 2559.57,1259.15 2548.57,1257.98 2537.5,1257.5C 2537.39,1256.88 2537.06,1256.38 2536.5,1256C 2528.94,1255.23 2521.61,1255.73 2514.5,1257.5C 2473.61,1258.93 2434.44,1265.93 2397,1278.5C 2396.67,1278.17 2396.33,1277.83 2396,1277.5C 2383.79,1281.29 2371.29,1285.46 2358.5,1290C 2355.96,1290.8 2353.63,1290.63 2351.5,1289.5C 2347.83,1274.48 2343.99,1259.48 2340,1244.5C 2339.76,1242.88 2338.93,1241.88 2337.5,1241.5C 2335.7,1235.96 2334.37,1230.29 2333.5,1224.5C 2333.36,1222.19 2334.03,1220.19 2335.5,1218.5C 2347.88,1211.48 2360.88,1205.81 2374.5,1201.5C 2393.73,1196.03 2413.06,1190.86 2432.5,1186C 2434.12,1185.76 2435.12,1184.93 2435.5,1183.5C 2491.12,1169.67 2547.45,1165.5 2604.5,1171C 2620.53,1173.14 2636.19,1176.81 2651.5,1182C 2657.32,1183.75 2662.65,1186.25 2667.5,1189.5 Z M 2616.5,1650.5 C 2607.83,1655.84 2599.16,1661.17 2590.5,1666.5C 2563.95,1681.81 2535.28,1689.31 2504.5,1689C 2480.02,1686.68 2459.52,1676.51 2443,1658.5C 2441.39,1655.59 2439.56,1652.93 2437.5,1650.5C 2433.58,1643.34 2430.25,1636.01 2427.5,1628.5C 2420.68,1599.37 2423.84,1571.37 2437,1544.5C 2449.93,1525.59 2467.43,1512.76 2489.5,1506C 2521.24,1496.45 2553.41,1492.28 2586,1493.5C 2588.33,1492.83 2590.67,1492.17 2593,1491.5C 2593.33,1491.83 2593.67,1492.17 2594,1492.5C 2609.59,1491.59 2624.25,1490.92 2638,1490.5C 2639.4,1491.23 2640.9,1491.73 2642.5,1492C 2643.13,1492.75 2643.63,1493.58 2644,1494.5C 2644.67,1537.5 2644.67,1580.5 2644,1623.5C 2643.49,1628.01 2641.33,1631.51 2637.5,1634C 2630.07,1639.04 2623.07,1644.54 2616.5,1650.5 Z"/></g>
<g><path style="opacity:1" fill="#eb2025" d="M 3730.5,1177.5 C 3730.62,1178.59 3731.29,1179.25 3732.5,1179.5C 3740.88,1182.18 3749.21,1184.85 3757.5,1187.5C 3784.2,1197.68 3805.86,1214.34 3822.5,1237.5C 3827.98,1245.78 3832.98,1254.45 3837.5,1263.5C 3837.96,1264.3 3838.62,1264.63 3839.5,1264.5C 3849.07,1285.44 3854.57,1307.44 3856,1330.5C 3857,1474.91 3856.66,1619.25 3855,1763.5C 3854.5,1764 3854,1764.5 3853.5,1765C 3839,1765.17 3824.5,1765.33 3810,1765.5C 3794.74,1765.65 3779.58,1765.15 3764.5,1764C 3762.8,1760.71 3761.63,1757.21 3761,1753.5C 3758.33,1738.83 3755.67,1724.17 3753,1709.5C 3751.51,1707.18 3749.68,1707.01 3747.5,1709C 3692.11,1760.14 3626.61,1783.97 3551,1780.5C 3514.33,1776.39 3480.49,1764.56 3449.5,1745C 3437.58,1735.27 3427.91,1723.77 3420.5,1710.5C 3418.63,1705.09 3416.46,1699.75 3414,1694.5C 3413.58,1693.24 3412.75,1692.58 3411.5,1692.5C 3394.95,1652.15 3391.12,1611.15 3400,1569.5C 3401.55,1561.95 3403.72,1554.62 3406.5,1547.5C 3411.1,1540.31 3415.27,1532.64 3419,1524.5C 3421.77,1520.61 3424.27,1516.61 3426.5,1512.5C 3442.41,1490.6 3462.41,1473.26 3486.5,1460.5C 3497.65,1455.09 3508.98,1449.93 3520.5,1445C 3521.76,1444.58 3522.42,1443.75 3522.5,1442.5C 3551.3,1431.07 3580.13,1424.41 3609,1422.5C 3650.67,1417.91 3692.5,1414.74 3734.5,1413C 3735.74,1411.85 3736.74,1410.51 3737.5,1409C 3737.45,1394.99 3737.45,1380.99 3737.5,1367C 3736.55,1360.1 3735.55,1353.43 3734.5,1347C 3734.03,1340.29 3732.87,1333.46 3731,1326.5C 3730.5,1326 3730,1325.5 3729.5,1325C 3729.97,1323.7 3729.97,1322.2 3729.5,1320.5C 3729.67,1319.51 3729.34,1318.84 3728.5,1318.5C 3722.97,1299.25 3711.97,1284.08 3695.5,1273C 3677.25,1263.41 3657.75,1258.25 3637,1257.5C 3607.89,1256.27 3579.06,1258.1 3550.5,1263C 3535.78,1265.98 3521.11,1269.14 3506.5,1272.5C 3505.51,1272.33 3504.84,1272.66 3504.5,1273.5C 3484.96,1279.17 3465.46,1285.17 3446,1291.5C 3444.97,1291.16 3444.47,1290.5 3444.5,1289.5C 3440.63,1271.37 3436.13,1253.37 3431,1235.5C 3430.76,1233.88 3429.93,1232.88 3428.5,1232.5C 3426.73,1228.24 3426.4,1223.91 3427.5,1219.5C 3432.88,1215.81 3438.54,1212.65 3444.5,1210C 3526.41,1177.01 3611.07,1164.01 3698.5,1171C 3709.34,1172.42 3720.01,1174.58 3730.5,1177.5 Z M 3736.5,1493.5 C 3737.82,1541.17 3737.82,1585.17 3736.5,1625.5C 3736.29,1626.92 3735.79,1628.26 3735,1629.5C 3732.97,1632.03 3730.8,1634.36 3728.5,1636.5C 3723.21,1639.79 3718.21,1643.45 3713.5,1647.5C 3690.52,1664.49 3665.18,1676.99 3637.5,1685C 3602.77,1694.65 3571.44,1688.32 3543.5,1666C 3528.71,1651.25 3520.21,1633.42 3518,1612.5C 3514.35,1584.7 3520.35,1559.37 3536,1536.5C 3545.92,1524.62 3558.08,1515.79 3572.5,1510C 3590.47,1502.76 3609.47,1498.09 3629.5,1496C 3648.72,1494.52 3667.89,1493.02 3687,1491.5C 3692.55,1491.24 3698.21,1491.57 3704,1492.5C 3711.14,1491.82 3718.3,1491.15 3725.5,1490.5C 3727.38,1490.62 3729.21,1490.62 3731,1490.5C 3733.21,1490.99 3735.04,1491.99 3736.5,1493.5 Z"/></g>
<g><path style="opacity:1" fill="#e72529" d="M 3871.5,1180.5 C 3882.84,1180.33 3894.17,1180.5 3905.5,1181C 3907.65,1183.07 3907.98,1185.41 3906.5,1188C 3902.7,1189.05 3898.86,1189.88 3895,1190.5C 3893.25,1197.13 3893.09,1203.8 3894.5,1210.5C 3893.72,1215.45 3893.22,1220.45 3893,1225.5C 3889.34,1228.33 3886,1228 3883,1224.5C 3882.67,1213.83 3882.33,1203.17 3882,1192.5C 3881.63,1191.58 3881.13,1190.75 3880.5,1190C 3876.77,1189.93 3873.27,1189.1 3870,1187.5C 3869.17,1184.83 3869.67,1182.5 3871.5,1180.5 Z"/></g>
<g><path style="opacity:1" fill="#e92328" d="M 3917.5,1180.5 C 3921.58,1180.04 3925.42,1180.71 3929,1182.5C 3932.81,1191.62 3936.81,1200.62 3941,1209.5C 3942,1208.17 3943,1206.83 3944,1205.5C 3946.64,1197.57 3949.8,1189.9 3953.5,1182.5C 3957.23,1180.49 3961.23,1179.99 3965.5,1181C 3966.33,1181.83 3967.17,1182.67 3968,1183.5C 3968.67,1197.5 3968.67,1211.5 3968,1225.5C 3965,1228.17 3962,1228.17 3959,1225.5C 3958.75,1218.12 3958.08,1210.79 3957,1203.5C 3952.77,1210.5 3949.1,1217.83 3946,1225.5C 3943.85,1227.44 3941.35,1227.94 3938.5,1227C 3934.61,1219.39 3931.11,1211.56 3928,1203.5C 3926.96,1204.62 3926.29,1205.96 3926,1207.5C 3925.67,1213.17 3925.33,1218.83 3925,1224.5C 3921.67,1229.83 3918.33,1229.83 3915,1224.5C 3914.33,1210.5 3914.33,1196.5 3915,1182.5C 3915.99,1181.93 3916.83,1181.27 3917.5,1180.5 Z"/></g>
<g><path style="opacity:1" fill="#eb2025" d="M 2998.5,1287.5 C 2997.9,1287.74 2997.57,1288.24 2997.5,1289C 3004.5,1311.33 3011.5,1333.67 3018.5,1356C 3018.84,1357.03 3019.5,1357.53 3020.5,1357.5C 3035.57,1405.71 3050.24,1454.05 3064.5,1502.5C 3063.85,1503.98 3063.52,1505.48 3063.5,1507C 3070.02,1526.59 3075.86,1546.42 3081,1566.5C 3081.24,1568.12 3082.07,1569.12 3083.5,1569.5C 3090.04,1592.3 3095.88,1615.3 3101,1638.5C 3101.67,1639.17 3102.33,1639.83 3103,1640.5C 3121.34,1589.33 3138.17,1537.66 3153.5,1485.5C 3155.48,1484.15 3156.65,1482.15 3157,1479.5C 3164.46,1454.32 3171.3,1428.98 3177.5,1403.5C 3196.1,1331.64 3209.93,1258.3 3219,1183.5C 3219.5,1183 3220,1182.5 3220.5,1182C 3261.83,1181.5 3303.17,1181.33 3344.5,1181.5C 3328.02,1267.25 3308.35,1352.25 3285.5,1436.5C 3284.07,1436.88 3283.24,1437.88 3283,1439.5C 3276.85,1460.77 3271.02,1482.11 3265.5,1503.5C 3260.27,1522.84 3254.27,1541.84 3247.5,1560.5C 3242.38,1573.52 3238.05,1586.85 3234.5,1600.5C 3229.56,1615.64 3224.23,1630.64 3218.5,1645.5C 3216.72,1646.57 3215.55,1648.24 3215,1650.5C 3209.33,1664.03 3204.16,1677.69 3199.5,1691.5C 3192.95,1708.26 3185.62,1724.59 3177.5,1740.5C 3174.02,1744.79 3171.35,1750.12 3169.5,1756.5C 3165.9,1763.56 3160.07,1767.22 3152,1767.5C 3109.58,1766.34 3066.58,1766.34 3023,1767.5C 3020.93,1766.74 3018.76,1766.24 3016.5,1766C 3015.3,1765.1 3014.47,1763.93 3014,1762.5C 2953.51,1569.73 2893.67,1377.57 2834.5,1186C 2834.68,1184.34 2835.34,1183.01 2836.5,1182C 2877.5,1181.33 2918.5,1181.33 2959.5,1182C 2963.33,1183.17 2965.83,1185.67 2967,1189.5C 2977.41,1222.23 2987.91,1254.9 2998.5,1287.5 Z"/></g>
<g><path style="opacity:0.595" fill="#d93339" d="M 3730.5,1177.5 C 3739.88,1180.07 3748.88,1183.4 3757.5,1187.5C 3749.21,1184.85 3740.88,1182.18 3732.5,1179.5C 3731.29,1179.25 3730.62,1178.59 3730.5,1177.5 Z"/></g>
<g><path style="opacity:0.579" fill="#dd2f34" d="M 2435.5,1183.5 C 2435.12,1184.93 2434.12,1185.76 2432.5,1186C 2413.06,1190.86 2393.73,1196.03 2374.5,1201.5C 2394.42,1194.43 2414.75,1188.43 2435.5,1183.5 Z"/></g>
<g><path style="opacity:0.718" fill="#d93338" d="M 2667.5,1189.5 C 2671.58,1190.38 2675.25,1192.04 2678.5,1194.5C 2674.42,1193.62 2670.75,1191.96 2667.5,1189.5 Z"/></g>
<g><path style="opacity:0.607" fill="#db3136" d="M 759.5,1183.5 C 764.99,1191.8 769.99,1200.47 774.5,1209.5C 772.926,1209.06 771.759,1208.06 771,1206.5C 766.628,1199.09 762.795,1191.42 759.5,1183.5 Z"/></g>
<g><path style="opacity:0.533" fill="#dd3035" d="M 775.5,1210.5 C 782.915,1223.66 790.581,1236.66 798.5,1249.5C 789.436,1237.71 781.436,1225.05 774.5,1211.5C 774.624,1210.89 774.957,1210.56 775.5,1210.5 Z"/></g>
<g><path style="opacity:0.615" fill="#df2e33" d="M 3428.5,1232.5 C 3429.93,1232.88 3430.76,1233.88 3431,1235.5C 3436.13,1253.37 3440.63,1271.37 3444.5,1289.5C 3438.96,1270.33 3433.63,1251.33 3428.5,1232.5 Z"/></g>
<g><path style="opacity:0.595" fill="#ce3a43" d="M 2537.5,1257.5 C 2529.83,1257.5 2522.17,1257.5 2514.5,1257.5C 2521.61,1255.73 2528.94,1255.23 2536.5,1256C 2537.06,1256.38 2537.39,1256.88 2537.5,1257.5 Z"/></g>
<g><path style="opacity:0.718" fill="#da3238" d="M 2739.5,1251.5 C 2744.66,1260.81 2748.99,1270.48 2752.5,1280.5C 2747.69,1271.51 2743.02,1262.17 2738.5,1252.5C 2738.62,1251.89 2738.96,1251.56 2739.5,1251.5 Z"/></g>
<g><path style="opacity:0.533" fill="#dc3136" d="M 3822.5,1237.5 C 3829.4,1245.62 3835.07,1254.62 3839.5,1264.5C 3838.62,1264.63 3837.96,1264.3 3837.5,1263.5C 3832.98,1254.45 3827.98,1245.78 3822.5,1237.5 Z"/></g>
<g><path style="opacity:0.636" fill="#de2e33" d="M 2337.5,1241.5 C 2338.93,1241.88 2339.76,1242.88 2340,1244.5C 2343.99,1259.48 2347.83,1274.48 2351.5,1289.5C 2346.55,1273.7 2341.88,1257.7 2337.5,1241.5 Z"/></g>
<g><path style="opacity:0.137" fill="#9a4f6d" d="M 3506.5,1272.5 C 3505.99,1274.11 3505.33,1274.44 3504.5,1273.5C 3504.84,1272.66 3505.51,1272.33 3506.5,1272.5 Z"/></g>
<g><path style="opacity:0.137" fill="#9a4f6d" d="M 789.5,1277.5 C 790.5,1277.83 791.167,1278.5 791.5,1279.5C 790.167,1279.5 789.5,1278.83 789.5,1277.5 Z"/></g>
<g><path style="opacity:0.137" fill="#9a4f6d" d="M 3728.5,1318.5 C 3729.34,1318.84 3729.67,1319.51 3729.5,1320.5C 3727.89,1319.99 3727.56,1319.33 3728.5,1318.5 Z"/></g>
<g><path style="opacity:0.589" fill="#de2f34" d="M 2998.5,1287.5 C 3005.64,1310.91 3012.97,1334.24 3020.5,1357.5C 3019.5,1357.53 3018.84,1357.03 3018.5,1356C 3011.5,1333.67 3004.5,1311.33 2997.5,1289C 2997.57,1288.24 2997.9,1287.74 2998.5,1287.5 Z"/></g>
<g><path style="opacity:1" fill="#1589c6" d="M 1376.5,1803.5 C 1375.83,1803.5 1375.5,1803.17 1375.5,1802.5C 1401.77,1785.36 1428.1,1768.19 1454.5,1751C 1492.43,1723.91 1527.76,1693.74 1560.5,1660.5C 1564.83,1658.17 1568.17,1654.83 1570.5,1650.5C 1587.1,1632.06 1601.6,1612.06 1614,1590.5C 1631.42,1560.03 1638.92,1528.2 1636.5,1495C 1626.97,1432.47 1590.97,1396.14 1528.5,1386C 1496.08,1381 1463.75,1381.5 1431.5,1387.5C 1430.5,1387.33 1429.5,1387.17 1428.5,1387C 1443.65,1373.21 1460.99,1364.21 1480.5,1360C 1552.51,1341.93 1617.17,1355.59 1674.5,1401C 1729.07,1449.78 1743.57,1508.61 1718,1577.5C 1701.56,1611.52 1679.39,1641.36 1651.5,1667C 1598.82,1712.91 1539.49,1748.24 1473.5,1773C 1445.22,1783.8 1416.56,1793.47 1387.5,1802C 1383.91,1803.11 1380.25,1803.61 1376.5,1803.5 Z"/></g>
<g><path style="opacity:0.56" fill="#d3373e" d="M 865.5,1348.5 C 869.38,1353.26 871.88,1358.59 873,1364.5C 871.198,1363.21 870.031,1361.54 869.5,1359.5C 869.938,1359.57 870.272,1359.4 870.5,1359C 868.375,1355.92 866.375,1352.75 864.5,1349.5C 864.624,1348.89 864.957,1348.56 865.5,1348.5 Z"/></g>
<g><path style="opacity:0.718" fill="#d93338" d="M 1018.5,1365.5 C 1017.48,1369.57 1015.48,1372.9 1012.5,1375.5C 1014.01,1371.8 1016.01,1368.47 1018.5,1365.5 Z"/></g>
<g><path style="opacity:1" fill="#1689c6" d="M 567.5,1376.5 C 577.167,1376.5 586.833,1376.5 596.5,1376.5C 596.5,1377.5 596.5,1378.5 596.5,1379.5C 546.617,1391.95 497.951,1407.12 450.5,1425C 432.274,1432.78 414.941,1442.11 398.5,1453C 392.112,1458.04 387.279,1464.21 384,1471.5C 382.574,1477.82 384.407,1482.98 389.5,1487C 405.121,1495.41 421.788,1500.74 439.5,1503C 510.552,1512.67 582.218,1517.67 654.5,1518C 760.134,1520.76 864.634,1516.92 968,1506.5C 1096.23,1497.7 1227.23,1482.03 1361,1459.5C 1363.15,1460.6 1363.65,1462.1 1362.5,1464C 1332.83,1481.5 1303.5,1499.5 1274.5,1518C 1271.91,1519.2 1269.24,1520.2 1266.5,1521C 1083.77,1550.29 898.938,1568.79 712,1576.5C 700.115,1575.35 688.782,1575.35 678,1576.5C 642.65,1575.07 607.65,1573.4 573,1571.5C 491.721,1569.05 409.721,1561.72 327,1549.5C 298.176,1546.08 269.343,1539.24 240.5,1529C 228.428,1524.82 219.428,1517.15 213.5,1506C 216.243,1495.21 222.243,1486.55 231.5,1480C 261.595,1460.62 293.595,1444.95 327.5,1433C 405.495,1405.04 485.495,1386.21 567.5,1376.5 Z"/></g>
<g><path style="opacity:0.533" fill="#dd2f34" d="M 1006.5,1387.5 C 1000.78,1398.61 994.276,1409.28 987,1419.5C 980.613,1427.55 974.613,1435.89 969,1444.5C 968.329,1445.25 967.496,1445.59 966.5,1445.5C 980.256,1426.42 993.59,1407.09 1006.5,1387.5 Z"/></g>
<g><path style="opacity:0.59" fill="#e02d32" d="M 3177.5,1403.5 C 3171.3,1428.98 3164.46,1454.32 3157,1479.5C 3156.65,1482.15 3155.48,1484.15 3153.5,1485.5C 3161.52,1458.07 3169.52,1430.73 3177.5,1403.5 Z"/></g>
<g><path style="opacity:0.591" fill="#e12c30" d="M 2434.5,1440.5 C 2434.53,1441.5 2434.03,1442.16 2433,1442.5C 2412.51,1450.83 2393.01,1460.83 2374.5,1472.5C 2393,1459.25 2413,1448.58 2434.5,1440.5 Z"/></g>
<g><path style="opacity:0.718" fill="#d93339" d="M 3522.5,1442.5 C 3522.42,1443.75 3521.76,1444.58 3520.5,1445C 3508.98,1449.93 3497.65,1455.09 3486.5,1460.5C 3497.9,1453.46 3509.9,1447.46 3522.5,1442.5 Z"/></g>
<g><path style="opacity:0.604" fill="#df2d32" d="M 3285.5,1436.5 C 3279.28,1459.07 3272.61,1481.4 3265.5,1503.5C 3271.02,1482.11 3276.85,1460.77 3283,1439.5C 3283.24,1437.88 3284.07,1436.88 3285.5,1436.5 Z"/></g>
<g><path style="opacity:0.718" fill="#ce3a43" d="M 3736.5,1493.5 C 3737.22,1493.92 3737.72,1494.58 3738,1495.5C 3738.67,1538.5 3738.67,1581.5 3738,1624.5C 3737.62,1625.06 3737.12,1625.39 3736.5,1625.5C 3737.82,1585.17 3737.82,1541.17 3736.5,1493.5 Z"/></g>
<g><path style="opacity:0.533" fill="#e02d32" d="M 3426.5,1512.5 C 3424.27,1516.61 3421.77,1520.61 3419,1524.5C 3415.27,1532.64 3411.1,1540.31 3406.5,1547.5C 3411.4,1534.69 3418.06,1523.02 3426.5,1512.5 Z"/></g>
<g><path style="opacity:0.533" fill="#d7353b" d="M 2324.5,1524.5 C 2323.42,1529.66 2321.09,1533.99 2317.5,1537.5C 2319.6,1532.97 2321.93,1528.64 2324.5,1524.5 Z"/></g>
<g><path style="opacity:0.591" fill="#de2e33" d="M 3064.5,1502.5 C 3070.99,1524.79 3077.32,1547.12 3083.5,1569.5C 3082.07,1569.12 3081.24,1568.12 3081,1566.5C 3075.86,1546.42 3070.02,1526.59 3063.5,1507C 3063.52,1505.48 3063.85,1503.98 3064.5,1502.5 Z"/></g>
<g><path style="opacity:0.595" fill="#db3136" d="M 3247.5,1560.5 C 3243.94,1574.17 3239.61,1587.5 3234.5,1600.5C 3238.05,1586.85 3242.38,1573.52 3247.5,1560.5 Z"/></g>
<g><path style="opacity:0.718" fill="#d83439" d="M 3728.5,1636.5 C 3724.35,1641.32 3719.35,1644.99 3713.5,1647.5C 3718.21,1643.45 3723.21,1639.79 3728.5,1636.5 Z"/></g>
<g><path style="opacity:0.46" fill="#72729f" d="M 509.5,1643.5 C 511.035,1642.21 512.701,1642.21 514.5,1643.5C 514.145,1644.52 513.478,1645.19 512.5,1645.5C 512.179,1643.95 511.179,1643.29 509.5,1643.5 Z"/></g>
<g><path style="opacity:1" fill="#1389c6" d="M 509.5,1643.5 C 511.179,1643.29 512.179,1643.95 512.5,1645.5C 507.167,1651.67 502.001,1658 497,1664.5C 486.833,1679.67 488.666,1693.17 502.5,1705C 523.017,1717.72 545.35,1725.39 569.5,1728C 583.112,1730.11 596.779,1731.77 610.5,1733C 670.18,1737.4 728.68,1738.23 786,1735.5C 915.162,1732.75 1043.49,1720.08 1171,1697.5C 1174.67,1697.5 1178.33,1697.5 1182,1697.5C 1192.59,1702.75 1202.09,1709.59 1210.5,1718C 1230,1733.25 1251.67,1744.59 1275.5,1752C 1265.29,1757.1 1254.63,1761.1 1243.5,1764C 1226.62,1769.02 1209.62,1773.52 1192.5,1777.5C 1176.81,1781.01 1161.14,1784.67 1145.5,1788.5C 1144.29,1788.75 1143.62,1789.41 1143.5,1790.5C 1021.12,1818.17 896.616,1828.5 770,1821.5C 751.389,1820.17 733.055,1819.17 715,1818.5C 713.564,1818.56 712.231,1818.89 711,1819.5C 702.908,1817.89 695.241,1817.56 688,1818.5C 685.539,1817.78 683.039,1817.12 680.5,1816.5C 674.077,1816.15 667.744,1816.15 661.5,1816.5C 658.601,1815.27 655.767,1814.94 653,1815.5C 602.006,1811.73 549.839,1804.23 496.5,1793C 468.171,1786.78 441.504,1776.45 416.5,1762C 399.12,1748.19 394.62,1731.03 403,1710.5C 408.155,1697.35 416.322,1686.52 427.5,1678C 451.92,1659.8 479.254,1648.3 509.5,1643.5 Z"/></g>
<g><path style="opacity:0.533" fill="#d6353b" d="M 2427.5,1628.5 C 2430.25,1636.01 2433.58,1643.34 2437.5,1650.5C 2432.06,1644.28 2428.73,1636.95 2427.5,1628.5 Z"/></g>
<g><path style="opacity:0.71" fill="#6279ab" d="M 1570.5,1650.5 C 1568.17,1654.83 1564.83,1658.17 1560.5,1660.5C 1563.5,1656.83 1566.83,1653.5 1570.5,1650.5 Z"/></g>
<g><path style="opacity:0.625" fill="#de2f34" d="M 2616.5,1650.5 C 2608.8,1657.35 2600.13,1662.69 2590.5,1666.5C 2599.16,1661.17 2607.83,1655.84 2616.5,1650.5 Z"/></g>
<g><path style="opacity:0.595" fill="#db3136" d="M 3218.5,1645.5 C 3212.68,1661.13 3206.35,1676.46 3199.5,1691.5C 3204.16,1677.69 3209.33,1664.03 3215,1650.5C 3215.55,1648.24 3216.72,1646.57 3218.5,1645.5 Z"/></g>
<g><path style="opacity:0.718" fill="#d6353c" d="M 3411.5,1692.5 C 3412.75,1692.58 3413.58,1693.24 3414,1694.5C 3416.46,1699.75 3418.63,1705.09 3420.5,1710.5C 3416.99,1704.82 3413.99,1698.82 3411.5,1692.5 Z"/></g>
<g><path style="opacity:0.533" fill="#d93338" d="M 3177.5,1740.5 C 3175.34,1746.15 3172.67,1751.48 3169.5,1756.5C 3171.35,1750.12 3174.02,1744.79 3177.5,1740.5 Z"/></g>
<g><path style="opacity:0.533" fill="#d93338" d="M 2603.5,1746.5 C 2599.5,1748.5 2595.5,1750.5 2591.5,1752.5C 2594.53,1749.47 2598.19,1747.13 2602.5,1745.5C 2603.11,1745.62 2603.44,1745.96 2603.5,1746.5 Z"/></g>
<g><path style="opacity:0.543" fill="#4b81b7" d="M 1192.5,1777.5 C 1176.37,1782.28 1160.04,1786.62 1143.5,1790.5C 1143.62,1789.41 1144.29,1788.75 1145.5,1788.5C 1161.14,1784.67 1176.81,1781.01 1192.5,1777.5 Z"/></g>
<g><path style="opacity:0.573" fill="#de2f33" d="M 2207.5,1764.5 C 2201.57,1792.95 2191.91,1819.95 2178.5,1845.5C 2190.07,1820.11 2199.07,1793.78 2205.5,1766.5C 2205.75,1765.29 2206.41,1764.62 2207.5,1764.5 Z"/></g>
<g><path style="opacity:0.595" fill="#db3237" d="M 2070.5,1793.5 C 2071.1,1793.74 2071.43,1794.24 2071.5,1795C 2069.53,1800.58 2067.36,1806.08 2065,1811.5C 2063.2,1816.13 2060.7,1820.13 2057.5,1823.5C 2062.38,1813.74 2066.71,1803.74 2070.5,1793.5 Z"/></g>
<g><path style="opacity:0.137" fill="#9a4f6d" d="M 1375.5,1802.5 C 1375.5,1803.17 1375.83,1803.5 1376.5,1803.5C 1376.44,1804.04 1376.11,1804.38 1375.5,1804.5C 1374.23,1803.74 1374.23,1803.08 1375.5,1802.5 Z"/></g>
<g><path style="opacity:0.612" fill="#d5363c" d="M 2057.5,1823.5 C 2055.51,1831.46 2051.51,1838.13 2045.5,1843.5C 2049.51,1836.8 2053.51,1830.13 2057.5,1823.5 Z"/></g>
<g><path style="opacity:1" fill="#1189c6" d="M 1086.5,2045.5 C 1072.17,2048.27 1057.84,2051.1 1043.5,2054C 1041.56,2054.12 1040.23,2054.95 1039.5,2056.5C 987.839,2066.85 936.505,2072.85 885.5,2074.5C 859.167,2073.17 832.833,2073.17 806.5,2074.5C 744.812,2072.68 682.479,2066.18 619.5,2055C 584.593,2048.53 550.927,2038.19 518.5,2024C 504.769,2017.38 492.269,2008.88 481,1998.5C 462.691,1978 462.024,1957 479,1935.5C 494.076,1920.7 511.576,1909.54 531.5,1902C 541.552,1898.07 551.886,1895.24 562.5,1893.5C 563.614,1894.72 563.781,1896.06 563,1897.5C 547.511,1919.37 552.011,1935.87 576.5,1947C 596.778,1954.86 617.778,1959.52 639.5,1961C 758.056,1968.45 876.723,1966.45 995.5,1955C 1032.33,1951.45 1068.67,1945.12 1104.5,1936C 1108.83,1935.33 1113.17,1935.33 1117.5,1936C 1139.67,1948.92 1162,1961.59 1184.5,1974C 1203.26,1983.38 1222.26,1992.21 1241.5,2000.5C 1221.08,2009.37 1200.91,2016.03 1181,2020.5C 1149.91,2030.32 1118.41,2038.65 1086.5,2045.5 Z"/></g>
<g><path style="opacity:0.533" fill="#d93339" d="M 2003.5,1887.5 C 1995.59,1894.29 1986.59,1899.29 1976.5,1902.5C 1985.65,1897.76 1994.65,1892.76 2003.5,1887.5 Z"/></g>
<g><path style="opacity:0.595" fill="#de2f34" d="M 2053.5,1965.5 C 2045.81,1969.4 2037.81,1972.73 2029.5,1975.5C 2029.47,1974.5 2029.97,1973.84 2031,1973.5C 2038.5,1970.72 2046,1968.06 2053.5,1965.5 Z"/></g>
<g><path style="opacity:0.543" fill="#4682ba" d="M 1086.5,2045.5 C 1071.03,2049.62 1055.36,2053.28 1039.5,2056.5C 1040.23,2054.95 1041.56,2054.12 1043.5,2054C 1057.84,2051.1 1072.17,2048.27 1086.5,2045.5 Z"/></g>
<g><path style="opacity:1" fill="#1589c6" d="M 1528.5,2197.5 C 1521.76,2199.7 1515.09,2202.2 1508.5,2205C 1507.24,2205.42 1506.58,2206.25 1506.5,2207.5C 1445.19,2228.99 1382.52,2245.49 1318.5,2257C 1217.65,2274.36 1118.81,2284.52 1022,2287.5C 1019.67,2288.17 1017.33,2288.83 1015,2289.5C 1011.69,2288.6 1008.19,2288.26 1004.5,2288.5C 999.968,2289.14 995.468,2289.81 991,2290.5C 980.882,2290.25 970.215,2290.25 959,2290.5C 955.667,2291.17 952.333,2291.83 949,2292.5C 935.12,2292.22 921.287,2292.22 907.5,2292.5C 899.906,2293.95 892.406,2294.28 885,2293.5C 872.596,2293.98 860.262,2294.64 848,2295.5C 845.521,2294.99 842.688,2294.66 839.5,2294.5C 798.182,2295.89 756.849,2296.56 715.5,2296.5C 684.258,2296.04 653.091,2296.04 622,2296.5C 598.259,2294.98 574.592,2293.98 551,2293.5C 545.725,2293.57 540.392,2293.9 535,2294.5C 529.91,2293.63 524.744,2292.96 519.5,2292.5C 510.371,2292.53 501.205,2292.53 492,2292.5C 487.333,2291.83 482.667,2291.17 478,2290.5C 468.359,2291.22 458.192,2291.22 447.5,2290.5C 439.541,2289.5 431.708,2288.5 424,2287.5C 421,2287.83 418,2288.17 415,2288.5C 412.204,2287.79 409.37,2287.12 406.5,2286.5C 330.43,2283.22 253.763,2274.72 176.5,2261C 143.067,2255.14 110.4,2246.48 78.5,2235C 64.3806,2229.78 51.714,2222.28 40.5,2212.5C 29.8046,2201.36 27.638,2188.69 34,2174.5C 39.3026,2162.4 47.136,2152.23 57.5,2144C 78.7225,2127.72 102.056,2115.05 127.5,2106C 196.219,2082.12 266.885,2067.46 339.5,2062C 355.524,2061.22 371.524,2061.56 387.5,2063C 388.938,2063.22 390.271,2063.72 391.5,2064.5C 361.807,2070.12 332.141,2075.95 302.5,2082C 265.491,2089.33 230.491,2102 197.5,2120C 189.579,2125.92 183.079,2133.09 178,2141.5C 177.103,2144.49 176.269,2147.49 175.5,2150.5C 176.938,2157.45 180.605,2162.95 186.5,2167C 200.464,2175.66 215.464,2181.99 231.5,2186C 268.064,2195.51 305.064,2202.85 342.5,2208C 439.658,2221.23 537.158,2230.06 635,2234.5C 807.565,2235.32 981.399,2229.82 1156.5,2218C 1249.05,2212.01 1341.05,2201.35 1432.5,2186C 1463.47,2180.33 1493.81,2173.33 1523.5,2165C 1546.59,2158.43 1567.92,2148.43 1587.5,2135C 1593.96,2130.21 1598.46,2124.05 1601,2116.5C 1602.34,2104.35 1599.84,2093.01 1593.5,2082.5C 1593.83,2082.17 1594.17,2081.83 1594.5,2081.5C 1605.71,2087.55 1614.88,2095.88 1622,2106.5C 1627.43,2115.94 1627.43,2125.27 1622,2134.5C 1613.46,2146.04 1603.29,2155.87 1591.5,2164C 1571.61,2177.28 1550.61,2188.45 1528.5,2197.5 Z"/></g>
<g><path style="opacity:0.561" fill="#597db0" d="M 806.5,2074.5 C 832.833,2073.17 859.167,2073.17 885.5,2074.5C 859.29,2075.82 832.957,2075.82 806.5,2074.5 Z"/></g>
<g><path style="opacity:1" fill="#1989c5" d="M 1728.5,2196.5 C 1729.52,2199.38 1729.35,2202.38 1728,2205.5C 1725.28,2213.87 1721.28,2221.54 1716,2228.5C 1691.42,2258.88 1661.59,2282.71 1626.5,2300C 1556.75,2335.42 1483.42,2359.09 1406.5,2371C 1283.38,2392.94 1160.88,2406.44 1039,2411.5C 1013.94,2413.17 989.609,2414.5 966,2415.5C 961.866,2415.61 957.866,2415.28 954,2414.5C 942.667,2415.17 931.333,2415.83 920,2416.5C 903.127,2415.58 886.127,2415.58 869,2416.5C 861.623,2415.87 854.289,2415.2 847,2414.5C 837.493,2414.81 829.16,2415.14 822,2415.5C 757.553,2413.4 692.053,2408.9 625.5,2402C 534.235,2392.68 445.568,2375.34 359.5,2350C 356.209,2349.25 353.542,2347.58 351.5,2345C 351.667,2344.5 351.833,2344 352,2343.5C 476.518,2356.89 600.851,2365.89 725,2370.5C 726.824,2369.76 728.824,2369.43 731,2369.5C 751.811,2370.13 773.144,2371.13 795,2372.5C 852.436,2372.45 909.102,2372.45 965,2372.5C 984.483,2371.89 1003.82,2370.89 1023,2369.5C 1146.73,2366.71 1270.56,2353.87 1394.5,2331C 1463.68,2317.87 1531.01,2298.54 1596.5,2273C 1644.23,2253.32 1688.23,2227.82 1728.5,2196.5 Z"/></g>
<g><path style="opacity:0.599" fill="#527fb4" d="M 1528.5,2197.5 C 1521.47,2201.35 1514.14,2204.68 1506.5,2207.5C 1506.58,2206.25 1507.24,2205.42 1508.5,2205C 1515.09,2202.2 1521.76,2199.7 1528.5,2197.5 Z"/></g>
</svg>
