<?xml version="1.0" encoding="UTF-8"?>
<!DOCTYPE svg PUBLIC "-//W3C//DTD SVG 1.1//EN" "http://www.w3.org/Graphics/SVG/1.1/DTD/svg11.dtd">
<svg xmlns="http://www.w3.org/2000/svg" version="1.1" width="700px" height="398px" style="shape-rendering:geometricPrecision; text-rendering:geometricPrecision; image-rendering:optimizeQuality; fill-rule:evenodd; clip-rule:evenodd" xmlns:xlink="http://www.w3.org/1999/xlink">
<g><path style="opacity:0.912" fill="#ff2d1f" d="M 41.5,83.5 C 55.3511,90.5107 68.8511,98.1774 82,106.5C 82.1668,133.173 82.6668,159.84 83.5,186.5C 93.2481,181.211 102.748,175.544 112,169.5C 112.333,155.5 112.667,141.5 113,127.5C 125.084,120.207 137.251,113.041 149.5,106C 151.044,104.813 152.711,104.48 154.5,105C 167.415,112.374 180.249,119.874 193,127.5C 193.667,143.167 193.667,158.833 193,174.5C 180.836,181.248 168.836,188.248 157,195.5C 156.667,209.5 156.333,223.5 156,237.5C 130.707,252.562 105.207,267.229 79.5,281.5C 53.2979,267.482 27.4646,252.816 2,237.5C 1.33333,194.167 1.33333,150.833 2,107.5C 14.7892,98.8773 27.9558,90.8773 41.5,83.5 Z M 41.5,91.5 C 51.6365,97.0693 61.6365,102.903 71.5,109C 61.7315,114.634 51.8982,120.134 42,125.5C 32.5101,120.016 23.0101,114.516 13.5,109C 14.1667,108.333 14.8333,107.667 15.5,107C 24.3954,102.059 33.062,96.8923 41.5,91.5 Z M 152.5,112.5 C 162.637,118.069 172.637,123.903 182.5,130C 172.731,135.634 162.898,141.134 153,146.5C 143.843,141.35 134.677,136.183 125.5,131C 124.289,130.107 124.289,129.274 125.5,128.5C 134.728,123.392 143.728,118.059 152.5,112.5 Z M 8.5,115.5 C 18.2731,120.555 27.9398,125.888 37.5,131.5C 38.3332,159.827 38.8332,188.161 39,216.5C 50.836,223.752 62.836,230.752 75,237.5C 75.6667,248.833 75.6667,260.167 75,271.5C 53.2485,258.707 31.4152,246.04 9.5,233.5C 8.5001,194.172 8.16676,154.839 8.5,115.5 Z M 74.5,115.5 C 75.829,140.67 75.829,166.003 74.5,191.5C 64.7519,196.789 55.2519,202.456 46,208.5C 45.3333,183.167 45.3333,157.833 46,132.5C 55.646,126.933 65.146,121.266 74.5,115.5 Z M 119.5,136.5 C 129.273,141.555 138.94,146.888 148.5,152.5C 149.666,163.819 149.832,175.152 149,186.5C 139.333,180.833 129.667,175.167 120,169.5C 119.5,158.505 119.333,147.505 119.5,136.5 Z M 184.5,136.5 C 185.829,141.624 186.495,147.124 186.5,153C 186.333,158.5 186.167,164 186,169.5C 176.748,175.544 167.248,181.211 157.5,186.5C 156.334,175.515 156.168,164.515 157,153.5C 166.147,147.683 175.314,142.016 184.5,136.5 Z M 114.5,176.5 C 119.464,177.949 124.131,180.115 128.5,183C 134.002,186.585 139.669,189.919 145.5,193C 123.625,205.769 101.625,218.269 79.5,230.5C 69.3882,225.945 59.7215,220.611 50.5,214.5C 71.8966,201.807 93.2299,189.14 114.5,176.5 Z M 148.5,199.5 C 149.659,210.659 149.826,221.992 149,233.5C 127,246.167 105,258.833 83,271.5C 82.3333,260.167 82.3333,248.833 83,237.5C 105.142,225.185 126.975,212.519 148.5,199.5 Z"/></g>
<g><path style="opacity:0.96" fill="#ff2d20" d="M 264.5,129.5 C 270.5,129.5 276.5,129.5 282.5,129.5C 282.5,159.167 282.5,188.833 282.5,218.5C 293.167,218.5 303.833,218.5 314.5,218.5C 314.5,223.833 314.5,229.167 314.5,234.5C 297.833,234.5 281.167,234.5 264.5,234.5C 264.5,199.5 264.5,164.5 264.5,129.5 Z"/></g>
<g><path style="opacity:0.943" fill="#ff2c20" d="M 699.5,129.5 C 699.5,164.5 699.5,199.5 699.5,234.5C 693.833,234.5 688.167,234.5 682.5,234.5C 682.5,199.5 682.5,164.5 682.5,129.5C 688.167,129.5 693.833,129.5 699.5,129.5 Z"/></g>
<g><path style="opacity:0.97" fill="#ff2c1f" d="M 345.5,162.5 C 356.293,160.817 365.46,163.817 373,171.5C 373.497,169.19 373.663,166.857 373.5,164.5C 379.167,164.5 384.833,164.5 390.5,164.5C 390.5,187.833 390.5,211.167 390.5,234.5C 384.833,234.5 379.167,234.5 373.5,234.5C 373.663,232.143 373.497,229.81 373,227.5C 362.339,236.638 350.506,238.471 337.5,233C 324.18,225.714 317.18,214.38 316.5,199C 317.919,180.099 327.586,167.933 345.5,162.5 Z M 350.5,177.5 C 367.739,178.913 375.239,188.246 373,205.5C 366.892,219.982 356.725,223.815 342.5,217C 334.093,208.48 332.26,198.647 337,187.5C 340.404,182.561 344.904,179.228 350.5,177.5 Z"/></g>
<g><path style="opacity:0.958" fill="#ff2d1f" d="M 476.5,162.5 C 487.578,160.805 497.078,163.805 505,171.5C 505.497,169.19 505.663,166.857 505.5,164.5C 511.167,164.5 516.833,164.5 522.5,164.5C 522.5,187.833 522.5,211.167 522.5,234.5C 516.833,234.5 511.167,234.5 505.5,234.5C 505.664,231.813 505.497,229.146 505,226.5C 495.395,235.797 484.229,238.297 471.5,234C 450.242,222.574 443.742,205.407 452,182.5C 457.24,172.145 465.406,165.478 476.5,162.5 Z M 482.5,177.5 C 498.221,178.389 505.721,186.723 505,202.5C 500.905,218.63 491.072,223.797 475.5,218C 462.558,206.088 462.225,193.755 474.5,181C 477.158,179.522 479.825,178.355 482.5,177.5 Z"/></g>
<g><path style="opacity:0.957" fill="#ff2d1f" d="M 631.5,162.5 C 651.549,160.406 665.049,168.739 672,187.5C 673.239,193.435 673.739,199.435 673.5,205.5C 655.488,205.167 637.488,205.5 619.5,206.5C 624.232,219.2 633.232,224.033 646.5,221C 651.577,218.42 656.244,215.253 660.5,211.5C 665.002,214.177 668.502,217.51 671,221.5C 655.26,237.361 637.426,240.194 617.5,230C 604.428,219.116 599.928,205.283 604,188.5C 608.448,174.717 617.614,166.05 631.5,162.5 Z M 632.5,176.5 C 645.386,174.599 653.72,179.765 657.5,192C 644.833,192.667 632.167,192.667 619.5,192C 621.189,184.488 625.523,179.321 632.5,176.5 Z"/></g>
<g><path style="opacity:0.954" fill="#fe2c20" d="M 402.5,164.5 C 417.5,164.5 432.5,164.5 447.5,164.5C 447.5,169.833 447.5,175.167 447.5,180.5C 438.167,180.5 428.833,180.5 419.5,180.5C 419.5,198.5 419.5,216.5 419.5,234.5C 413.833,234.5 408.167,234.5 402.5,234.5C 402.5,211.167 402.5,187.833 402.5,164.5 Z"/></g>
<g><path style="opacity:0.961" fill="#ff2c1f" d="M 529.5,164.5 C 535.5,164.5 541.5,164.5 547.5,164.5C 553.04,181.453 559.374,198.119 566.5,214.5C 573.285,198.32 579.785,181.986 586,165.5C 591.779,164.193 597.612,164.193 603.5,165.5C 594.833,188.167 586.167,210.833 577.5,233.5C 570.197,234.497 562.863,234.831 555.5,234.5C 546.84,211.177 538.173,187.844 529.5,164.5 Z"/></g>
</svg>
