<?xml version="1.0" encoding="UTF-8"?>
<!DOCTYPE svg PUBLIC "-//W3C//DTD SVG 1.1//EN" "http://www.w3.org/Graphics/SVG/1.1/DTD/svg11.dtd">
<svg xmlns="http://www.w3.org/2000/svg" version="1.1" width="505px" height="250px" style="shape-rendering:geometricPrecision; text-rendering:geometricPrecision; image-rendering:optimizeQuality; fill-rule:evenodd; clip-rule:evenodd" xmlns:xlink="http://www.w3.org/1999/xlink">
<g><path style="opacity:0.099" fill="#fdfdfd" d="M 99.5,-0.5 C 105.5,-0.5 111.5,-0.5 117.5,-0.5C 142.574,5.42928 156.074,21.4293 158,47.5C 158.235,56.5367 158.902,65.5367 160,74.5C 161.059,77.6179 162.392,80.6179 164,83.5C 173.825,95.1392 182.158,107.806 189,121.5C 193.613,133.732 195.946,146.399 196,159.5C 198.842,168.185 202.509,176.519 207,184.5C 209.826,199.376 206.826,213.042 198,225.5C 193.286,230.442 187.786,234.275 181.5,237C 162.83,245.006 143.496,249.173 123.5,249.5C 110.167,249.5 96.8333,249.5 83.5,249.5C 60.0444,247.771 37.3777,242.271 15.5,233C 5.14669,227.116 -0.186646,218.283 -0.5,206.5C -0.5,206.167 -0.5,205.833 -0.5,205.5C 0.328538,198.679 0.828538,191.679 1,184.5C 1.96237,170.911 8.62904,161.245 21,155.5C 23.766,138.76 29.4326,123.093 38,108.5C 44,99.8333 50,91.1667 56,82.5C 56.9876,79.5755 57.6543,76.5755 58,73.5C 58.3333,62.5 58.6667,51.5 59,40.5C 62.8843,17.174 76.3843,3.50735 99.5,-0.5 Z"/></g>
<g><path style="opacity:1" fill="#0b0b0b" d="M 175.5,164.5 C 173.585,164.784 171.919,164.451 170.5,163.5C 170.702,161.011 170.202,158.677 169,156.5C 164.756,153.822 160.923,150.822 157.5,147.5C 158.917,132.947 154.083,120.614 143,110.5C 143.72,113.265 145.387,115.599 148,117.5C 154.608,126.26 156.608,135.927 154,146.5C 153.617,147.056 153.117,147.389 152.5,147.5C 151.5,147.5 150.5,147.5 149.5,147.5C 145.386,132.285 139.386,117.951 131.5,104.5C 128.968,96.9044 126.635,89.2377 124.5,81.5C 126.48,76.6901 125.48,72.6901 121.5,69.5C 125.709,62.6224 125.376,55.9557 120.5,49.5C 121.441,47.2279 122.774,45.2279 124.5,43.5C 125.363,41.5786 126.029,39.5786 126.5,37.5C 126.802,34.9407 126.468,32.6074 125.5,30.5C 124.92,28.2512 123.587,26.5846 121.5,25.5C 110.328,17.5416 98.9944,17.5416 87.5,25.5C 84.3528,27.3129 82.3528,29.9796 81.5,33.5C 80.6618,33.8417 80.3284,34.5084 80.5,35.5C 79.3187,38.3623 79.3187,41.3623 80.5,44.5C 81.1355,46.7946 82.4689,48.4613 84.5,49.5C 79.532,55.8675 79.1987,62.5341 83.5,69.5C 81.2726,71.5727 79.6059,74.0727 78.5,77C 78.9274,80.0234 80.2607,82.5234 82.5,84.5C 80.1534,101.539 74.6534,117.539 66,132.5C 63.2259,139.929 61.5592,147.596 61,155.5C 57.5989,151.125 56.0989,146.125 56.5,140.5C 57.8797,131.404 61.213,123.071 66.5,115.5C 65.8333,114.167 65.1667,114.167 64.5,115.5C 58.5568,124.498 54.8901,134.331 53.5,145C 53.5056,147.033 53.8389,148.866 54.5,150.5C 54.5919,154.684 56.2586,158.017 59.5,160.5C 65.1897,165.518 71.1897,170.185 77.5,174.5C 80.5516,177.936 82.5516,181.936 83.5,186.5C 83.3392,190.992 81.0059,192.992 76.5,192.5C 71.3378,186.189 67.1711,179.189 64,171.5C 60.7516,164.583 55.4182,160.25 48,158.5C 45.2915,159.109 42.7915,160.109 40.5,161.5C 39.5599,152.072 41.0599,143.072 45,134.5C 52.1728,120.143 60.8395,106.81 71,94.5C 72.5302,90.9099 73.8635,87.2432 75,83.5C 76,67.8333 77,52.1667 78,36.5C 83.3183,22.8378 93.3183,16.5045 108,17.5C 128.065,17.8958 138.732,28.2291 140,48.5C 140.333,57.8333 140.667,67.1667 141,76.5C 141.667,79.1667 142.333,81.8333 143,84.5C 150.508,96.1841 158.508,107.517 167,118.5C 176.461,132.635 179.294,147.969 175.5,164.5 Z"/></g>
<g><path style="opacity:1" fill="#6d6d6d" d="M 125.5,30.5 C 126.468,32.6074 126.802,34.9407 126.5,37.5C 111.333,36.1742 96.1666,36.1742 81,37.5C 80.5357,36.9056 80.369,36.2389 80.5,35.5C 80.3284,34.5084 80.6618,33.8417 81.5,33.5C 93.0112,33.5796 104.511,33.2462 116,32.5C 119.576,32.4848 122.742,31.8182 125.5,30.5 Z"/></g>
<g><path style="opacity:1" fill="#8a8a8a" d="M 87.5,25.5 C 98.8333,26.8333 110.167,26.8333 121.5,25.5C 123.587,26.5846 124.92,28.2512 125.5,30.5C 122.742,31.8182 119.576,32.4848 116,32.5C 104.511,33.2462 93.0112,33.5796 81.5,33.5C 82.3528,29.9796 84.3528,27.3129 87.5,25.5 Z"/></g>
<g><path style="opacity:1" fill="#b2b2b2" d="M 121.5,25.5 C 110.167,26.8333 98.8333,26.8333 87.5,25.5C 98.9944,17.5416 110.328,17.5416 121.5,25.5 Z"/></g>
<g><path style="opacity:1" fill="#484848" d="M 80.5,35.5 C 80.369,36.2389 80.5357,36.9056 81,37.5C 96.1666,36.1742 111.333,36.1742 126.5,37.5C 126.029,39.5786 125.363,41.5786 124.5,43.5C 109.755,43.184 95.0884,43.5174 80.5,44.5C 79.3187,41.3623 79.3187,38.3623 80.5,35.5 Z"/></g>
<g><path style="opacity:1" fill="#262626" d="M 124.5,43.5 C 122.774,45.2279 121.441,47.2279 120.5,49.5C 115.833,45.5 111.167,45.5 106.5,49.5C 101.167,48.1667 95.8333,48.1667 90.5,49.5C 88.5,48.1667 86.5,48.1667 84.5,49.5C 82.4689,48.4613 81.1355,46.7946 80.5,44.5C 95.0884,43.5174 109.755,43.184 124.5,43.5 Z"/></g>
<g><path style="opacity:1" fill="#060606" d="M 90.5,49.5 C 95.8333,48.1667 101.167,48.1667 106.5,49.5C 104.94,51.9535 103.94,54.6202 103.5,57.5C 102.566,58.5676 102.232,59.901 102.5,61.5C 100.265,61.2053 98.2646,61.5386 96.5,62.5C 96.1667,62.5 95.8333,62.5 95.5,62.5C 95.9694,57.2266 94.3027,52.8932 90.5,49.5 Z"/></g>
<g><path style="opacity:1" fill="#cac6c1" d="M 120.5,49.5 C 125.376,55.9557 125.709,62.6224 121.5,69.5C 120.167,69.5 118.833,69.5 117.5,69.5C 116.833,68.8333 116.167,68.1667 115.5,67.5C 118.341,63.1832 118.008,59.0166 114.5,55C 113.251,54.2599 112.251,54.4265 111.5,55.5C 109.856,55.8102 108.856,56.8102 108.5,58.5C 108.5,60.5 108.5,62.5 108.5,64.5C 106.95,63.5592 105.284,62.8925 103.5,62.5C 103.5,60.8333 103.5,59.1667 103.5,57.5C 103.94,54.6202 104.94,51.9535 106.5,49.5C 111.167,45.5 115.833,45.5 120.5,49.5 Z"/></g>
<g><path style="opacity:1" fill="#cbc6bf" d="M 90.5,49.5 C 94.3027,52.8932 95.9694,57.2266 95.5,62.5C 94.1667,63.1667 92.8333,63.8333 91.5,64.5C 91.634,62.7085 91.3007,61.0418 90.5,59.5C 90.516,57.5159 89.516,56.5159 87.5,56.5C 85.8247,56.8684 84.8247,57.8684 84.5,59.5C 84.4054,62.6967 85.0721,65.6967 86.5,68.5C 85.791,69.404 84.791,69.7373 83.5,69.5C 79.1987,62.5341 79.532,55.8675 84.5,49.5C 86.5,48.1667 88.5,48.1667 90.5,49.5 Z"/></g>
<g><path style="opacity:1" fill="#161413" d="M 111.5,55.5 C 112.251,54.4265 113.251,54.2599 114.5,55C 118.008,59.0166 118.341,63.1832 115.5,67.5C 113.046,66.7729 110.713,65.7729 108.5,64.5C 108.5,62.5 108.5,60.5 108.5,58.5C 110.114,60.0746 112.114,60.7413 114.5,60.5C 114.759,58.0107 113.759,56.344 111.5,55.5 Z"/></g>
<g><path style="opacity:1" fill="#646463" d="M 111.5,55.5 C 113.759,56.344 114.759,58.0107 114.5,60.5C 112.114,60.7413 110.114,60.0746 108.5,58.5C 108.856,56.8102 109.856,55.8102 111.5,55.5 Z"/></g>
<g><path style="opacity:1" fill="#595958" d="M 90.5,59.5 C 88.5,62.1667 86.5,62.1667 84.5,59.5C 84.8247,57.8684 85.8247,56.8684 87.5,56.5C 89.516,56.5159 90.516,57.5159 90.5,59.5 Z"/></g>
<g><path style="opacity:1" fill="#191513" d="M 84.5,59.5 C 86.5,62.1667 88.5,62.1667 90.5,59.5C 91.3007,61.0418 91.634,62.7085 91.5,64.5C 89.8333,65.8333 88.1667,67.1667 86.5,68.5C 85.0721,65.6967 84.4054,62.6967 84.5,59.5 Z"/></g>
<g><path style="opacity:1" fill="#644329" d="M 103.5,57.5 C 103.5,59.1667 103.5,60.8333 103.5,62.5C 101.167,62.5 98.8333,62.5 96.5,62.5C 98.2646,61.5386 100.265,61.2053 102.5,61.5C 102.232,59.901 102.566,58.5676 103.5,57.5 Z"/></g>
<g><path style="opacity:0.136" fill="#fefefe" d="M 504.5,105.5 C 504.5,109.833 504.5,114.167 504.5,118.5C 501.636,122.869 498.969,127.369 496.5,132C 498.8,137.435 501.466,142.602 504.5,147.5C 504.5,151.833 504.5,156.167 504.5,160.5C 499.971,169.947 492.304,174.614 481.5,174.5C 475.303,173.759 469.137,172.426 463,170.5C 459.029,171.422 455.196,172.588 451.5,174C 435.32,174.235 419.154,174.735 403,175.5C 396.778,174.356 390.611,173.022 384.5,171.5C 378.3,173.221 371.966,174.221 365.5,174.5C 360.613,174.195 355.779,173.528 351,172.5C 339.052,173.737 327.052,174.404 315,174.5C 286.214,174.389 257.381,174.055 228.5,173.5C 218.588,170.755 213.255,164.255 212.5,154C 215.169,139.609 216.002,125.109 215,110.5C 212.662,103.649 210.828,96.6487 209.5,89.5C 209.996,78.9975 215.33,72.4975 225.5,70C 235.5,69.3333 245.5,69.3333 255.5,70C 272.439,76.9711 276.273,88.4711 267,104.5C 266.044,111.337 266.378,118.004 268,124.5C 271.749,121.91 272.582,118.577 270.5,114.5C 270.944,109.666 272.11,104.999 274,100.5C 273.288,74.9234 285.455,65.0901 310.5,71C 318.896,75.6076 323.396,82.7743 324,92.5C 324.893,93.0814 325.893,93.4148 327,93.5C 335.869,92.807 344.702,91.807 353.5,90.5C 361.148,91.3627 368.482,93.3627 375.5,96.5C 386.799,92.2666 398.299,91.6 410,94.5C 424.834,93.3733 439.668,92.3733 454.5,91.5C 459.728,92.2322 464.895,93.2322 470,94.5C 474.956,93.9804 479.79,92.9804 484.5,91.5C 493.679,92.6936 500.346,97.3602 504.5,105.5 Z"/></g>
<g><path style="opacity:1" fill="#ffd091" d="M 108.5,69.5 C 109.167,69.5 109.5,69.8333 109.5,70.5C 102.833,71.8333 96.1667,71.8333 89.5,70.5C 95.3547,64.1698 101.688,63.8364 108.5,69.5 Z"/></g>
<g><path style="opacity:1" fill="#fdb433" d="M 108.5,69.5 C 111.327,68.6317 114.327,68.6317 117.5,69.5C 119.868,70.783 122.035,72.4497 124,74.5C 124.765,76.0657 124.598,77.3991 123.5,78.5C 123.5,77.5 123.5,76.5 123.5,75.5C 120.278,77.0206 116.944,78.354 113.5,79.5C 114.574,78.1154 115.907,76.9487 117.5,76C 114.518,75.502 111.518,75.3354 108.5,75.5C 109.355,74.4693 110.022,73.3026 110.5,72C 110.43,71.2352 110.097,70.7352 109.5,70.5C 109.5,69.8333 109.167,69.5 108.5,69.5 Z"/></g>
<g><path style="opacity:1" fill="#ffc961" d="M 88.5,70.5 C 88.8333,70.5 89.1667,70.5 89.5,70.5C 96.1667,71.8333 102.833,71.8333 109.5,70.5C 110.097,70.7352 110.43,71.2352 110.5,72C 110.022,73.3026 109.355,74.4693 108.5,75.5C 108.167,75.5 107.833,75.5 107.5,75.5C 101.491,75.6662 95.4908,75.4995 89.5,75C 88.6198,73.6439 88.2865,72.1439 88.5,70.5 Z"/></g>
<g><path style="opacity:1" fill="#fcbf32" d="M 88.5,70.5 C 88.2865,72.1439 88.6198,73.6439 89.5,75C 95.4908,75.4995 101.491,75.6662 107.5,75.5C 107.389,76.1174 107.056,76.6174 106.5,77C 99.5,77.3333 92.5,77.6667 85.5,78C 91.1502,82.4835 90.8169,83.3169 84.5,80.5C 83.5836,80.5427 82.9169,80.8761 82.5,81.5C 81.8826,81.3893 81.3826,81.056 81,80.5C 80.3333,78.5 80.3333,76.5 81,74.5C 83.3333,72.8333 85.6667,71.1667 88,69.5C 88.3988,69.7284 88.5654,70.0618 88.5,70.5 Z"/></g>
<g><path style="opacity:1" fill="#fece21" d="M 107.5,75.5 C 107.833,75.5 108.167,75.5 108.5,75.5C 111.518,75.3354 114.518,75.502 117.5,76C 115.907,76.9487 114.574,78.1154 113.5,79.5C 109.855,80.9873 106.188,82.4873 102.5,84C 98.596,84.2877 94.9293,84.4543 91.5,84.5C 90.2905,84.9321 89.2905,85.5987 88.5,86.5C 86.0905,85.2993 84.0905,83.6326 82.5,81.5C 82.9169,80.8761 83.5836,80.5427 84.5,80.5C 90.8169,83.3169 91.1502,82.4835 85.5,78C 92.5,77.6667 99.5,77.3333 106.5,77C 107.056,76.6174 107.389,76.1174 107.5,75.5 Z"/></g>
<g><path style="opacity:1" fill="#de8b43" d="M 117.5,69.5 C 118.833,69.5 120.167,69.5 121.5,69.5C 125.48,72.6901 126.48,76.6901 124.5,81.5C 122.637,83.7053 120.303,85.0387 117.5,85.5C 120.213,83.7865 122.213,81.4532 123.5,78.5C 124.598,77.3991 124.765,76.0657 124,74.5C 122.035,72.4497 119.868,70.783 117.5,69.5 Z"/></g>
<g><path style="opacity:1" fill="#eea732" d="M 113.5,79.5 C 107.184,85.313 99.8507,86.9797 91.5,84.5C 94.9293,84.4543 98.596,84.2877 102.5,84C 106.188,82.4873 109.855,80.9873 113.5,79.5 Z"/></g>
<g><path style="opacity:0.997" fill="#070707" d="M 295.5,85.5 C 303.656,84.8211 307.156,88.4878 306,96.5C 301.333,101.833 296.667,101.833 292,96.5C 290.662,91.9597 291.829,88.293 295.5,85.5 Z"/></g>
<g><path style="opacity:1" fill="#fee413" d="M 123.5,78.5 C 122.213,81.4532 120.213,83.7865 117.5,85.5C 111.686,88.4786 105.52,90.8119 99,92.5C 94.8519,91.6748 91.3519,89.6748 88.5,86.5C 89.2905,85.5987 90.2905,84.9321 91.5,84.5C 99.8507,86.9797 107.184,85.313 113.5,79.5C 116.944,78.354 120.278,77.0206 123.5,75.5C 123.5,76.5 123.5,77.5 123.5,78.5 Z"/></g>
<g><path style="opacity:1" fill="#020202" d="M 224.5,87.5 C 235.167,87.5 245.833,87.5 256.5,87.5C 256.5,88.8333 256.5,90.1667 256.5,91.5C 253.315,91.0196 250.481,91.6863 248,93.5C 247.5,112.497 247.333,131.497 247.5,150.5C 255.867,150.705 264.2,150.371 272.5,149.5C 273.167,145.833 273.833,142.167 274.5,138.5C 276.167,138.5 277.833,138.5 279.5,138.5C 278.759,144.471 278.425,150.471 278.5,156.5C 261.487,156.833 244.487,156.499 227.5,155.5C 229.829,154.002 231.663,152.002 233,149.5C 233.667,130.833 233.667,112.167 233,93.5C 230.519,91.6863 227.685,91.0196 224.5,91.5C 224.5,90.1667 224.5,88.8333 224.5,87.5 Z"/></g>
<g><path style="opacity:1" fill="#ea9643" d="M 95.5,62.5 C 95.8333,62.5 96.1667,62.5 96.5,62.5C 98.8333,62.5 101.167,62.5 103.5,62.5C 105.284,62.8925 106.95,63.5592 108.5,64.5C 110.713,65.7729 113.046,66.7729 115.5,67.5C 116.167,68.1667 116.833,68.8333 117.5,69.5C 114.327,68.6317 111.327,68.6317 108.5,69.5C 101.688,63.8364 95.3547,64.1698 89.5,70.5C 89.1667,70.5 88.8333,70.5 88.5,70.5C 88.5654,70.0618 88.3988,69.7284 88,69.5C 85.6667,71.1667 83.3333,72.8333 81,74.5C 80.3333,76.5 80.3333,78.5 81,80.5C 81.3826,81.056 81.8826,81.3893 82.5,81.5C 84.0905,83.6326 86.0905,85.2993 88.5,86.5C 91.3519,89.6748 94.8519,91.6748 99,92.5C 105.52,90.8119 111.686,88.4786 117.5,85.5C 117.5,85.8333 117.5,86.1667 117.5,86.5C 113.078,88.4056 108.744,90.5723 104.5,93C 101.167,93.6667 97.8333,93.6667 94.5,93C 91.1223,89.9854 87.4556,87.4854 83.5,85.5C 83.5,84.8333 83.1667,84.5 82.5,84.5C 80.2607,82.5234 78.9274,80.0234 78.5,77C 79.6059,74.0727 81.2726,71.5727 83.5,69.5C 84.791,69.7373 85.791,69.404 86.5,68.5C 88.1667,67.1667 89.8333,65.8333 91.5,64.5C 92.8333,63.8333 94.1667,63.1667 95.5,62.5 Z"/></g>
<g><path style="opacity:1" fill="#eeeae5" d="M 83.5,85.5 C 87.4556,87.4854 91.1223,89.9854 94.5,93C 97.8333,93.6667 101.167,93.6667 104.5,93C 108.744,90.5723 113.078,88.4056 117.5,86.5C 119.624,87.0312 121.124,88.3645 122,90.5C 122.784,93.7603 122.617,96.9269 121.5,100C 109.179,100.868 96.8461,101.368 84.5,101.5C 83.5998,96.228 83.2665,90.8947 83.5,85.5 Z"/></g>
<g><path style="opacity:1" fill="#d6d2cc" d="M 124.5,81.5 C 126.635,89.2377 128.968,96.9044 131.5,104.5C 126.063,105.966 120.396,107.466 114.5,109C 106.167,109.667 97.8333,109.667 89.5,109C 87.0199,107.094 85.3533,104.594 84.5,101.5C 96.8461,101.368 109.179,100.868 121.5,100C 122.617,96.9269 122.784,93.7603 122,90.5C 121.124,88.3645 119.624,87.0312 117.5,86.5C 117.5,86.1667 117.5,85.8333 117.5,85.5C 120.303,85.0387 122.637,83.7053 124.5,81.5 Z"/></g>
<g><path style="opacity:1" fill="#787878" d="M 161.5,115.5 C 160.167,115.5 158.833,115.5 157.5,115.5C 153.327,108.83 149.994,102.163 147.5,95.5C 152.679,101.875 157.345,108.542 161.5,115.5 Z"/></g>
<g><path style="opacity:1" fill="#030303" d="M 335.5,108.5 C 336.5,108.5 337.5,108.5 338.5,108.5C 338.336,111.187 338.503,113.854 339,116.5C 342.167,114 345.333,111.5 348.5,109C 357.436,106.557 363.936,109.39 368,117.5C 368.333,128.833 368.667,140.167 369,151.5C 371.041,152.423 373.208,152.756 375.5,152.5C 375.5,153.833 375.5,155.167 375.5,156.5C 369.167,156.5 362.833,156.5 356.5,156.5C 356.667,145.495 356.5,134.495 356,123.5C 353.259,118.581 349.092,116.748 343.5,118C 341.43,118.948 339.93,120.448 339,122.5C 338.333,132.167 338.333,141.833 339,151.5C 341.041,152.423 343.208,152.756 345.5,152.5C 345.5,153.833 345.5,155.167 345.5,156.5C 336.833,156.5 328.167,156.5 319.5,156.5C 319.5,155.167 319.5,153.833 319.5,152.5C 321.792,152.756 323.959,152.423 326,151.5C 326.667,140.5 326.667,129.5 326,118.5C 323.959,117.577 321.792,117.244 319.5,117.5C 319.5,115.833 319.5,114.167 319.5,112.5C 325.225,112.293 330.559,110.96 335.5,108.5 Z"/></g>
<g><path style="opacity:1" fill="#050505" d="M 301.5,108.5 C 302.833,108.5 304.167,108.5 305.5,108.5C 305.333,122.504 305.5,136.504 306,150.5C 307.754,152.25 309.921,152.917 312.5,152.5C 312.5,153.833 312.5,155.167 312.5,156.5C 303.5,156.5 294.5,156.5 285.5,156.5C 285.5,155.167 285.5,153.833 285.5,152.5C 287.833,152.5 290.167,152.5 292.5,152.5C 293.601,141.2 293.767,129.867 293,118.5C 290.865,116.722 288.365,116.055 285.5,116.5C 285.5,115.167 285.5,113.833 285.5,112.5C 291.156,112.01 296.49,110.677 301.5,108.5 Z"/></g>
<g><path style="opacity:1" fill="#050505" d="M 396.5,108.5 C 397.833,108.5 399.167,108.5 400.5,108.5C 400.334,118.839 400.5,129.172 401,139.5C 401.655,147.746 405.821,150.246 413.5,147C 415.815,145.891 417.315,144.057 418,141.5C 418.667,133.5 418.667,125.5 418,117.5C 415.619,116.565 413.119,116.232 410.5,116.5C 410.5,115.167 410.5,113.833 410.5,112.5C 417.305,111.785 423.972,110.452 430.5,108.5C 430.333,122.837 430.5,137.171 431,151.5C 433.041,152.423 435.208,152.756 437.5,152.5C 437.5,153.833 437.5,155.167 437.5,156.5C 430.833,156.5 424.167,156.5 417.5,156.5C 417.75,153.786 417.917,151.119 418,148.5C 410.777,158.348 402.111,160.015 392,153.5C 390.561,151.725 389.561,149.725 389,147.5C 388.667,137.5 388.333,127.5 388,117.5C 385.959,116.577 383.792,116.244 381.5,116.5C 381.5,115.167 381.5,113.833 381.5,112.5C 386.862,112.116 391.862,110.783 396.5,108.5 Z"/></g>
<g><path style="opacity:0.999" fill="#080808" d="M 453.5,108.5 C 455.467,108.261 457.301,108.594 459,109.5C 462.581,114.328 465.915,119.328 469,124.5C 472.378,119.578 475.878,114.745 479.5,110C 482.817,109.502 486.15,109.335 489.5,109.5C 489.5,110.833 489.5,112.167 489.5,113.5C 487.692,113.491 486.025,113.991 484.5,115C 480.106,119.723 476.106,124.723 472.5,130C 476.362,137.858 481.028,145.192 486.5,152C 487.448,152.483 488.448,152.649 489.5,152.5C 489.5,153.833 489.5,155.167 489.5,156.5C 484.156,156.666 478.823,156.499 473.5,156C 470.364,150.699 467.03,145.532 463.5,140.5C 459.283,145.227 455.616,150.393 452.5,156C 449.183,156.498 445.85,156.665 442.5,156.5C 442.5,155.167 442.5,153.833 442.5,152.5C 444.308,152.509 445.975,152.009 447.5,151C 452.212,145.957 456.545,140.623 460.5,135C 457.207,129.582 454.04,124.082 451,118.5C 448.695,116.07 445.862,115.07 442.5,115.5C 442.238,114.022 442.571,112.689 443.5,111.5C 447.02,110.74 450.353,109.74 453.5,108.5 Z"/></g>
<g><path style="opacity:1" fill="#747474" d="M 54.5,128.5 C 53.2905,128.068 52.2905,127.401 51.5,126.5C 55.8363,117.176 61.6697,108.842 69,101.5C 69.3152,102.908 68.9819,104.241 68,105.5C 62.9841,112.865 58.4841,120.532 54.5,128.5 Z"/></g>
<g><path style="opacity:1" fill="#565656" d="M 157.5,115.5 C 158.833,115.5 160.167,115.5 161.5,115.5C 164.839,118.835 167.172,122.835 168.5,127.5C 166.81,127.758 164.81,127.758 162.5,127.5C 161.368,123.24 159.701,119.24 157.5,115.5 Z"/></g>
<g><path style="opacity:1" fill="#9fa0a1" d="M 56.5,140.5 C 55.2154,143.589 54.5488,146.922 54.5,150.5C 53.8389,148.866 53.5056,147.033 53.5,145C 54.8901,134.331 58.5568,124.498 64.5,115.5C 65.1667,114.167 65.8333,114.167 66.5,115.5C 61.213,123.071 57.8797,131.404 56.5,140.5 Z"/></g>
<g><path style="opacity:1" fill="#c5c4c2" d="M 82.5,84.5 C 83.1667,84.5 83.5,84.8333 83.5,85.5C 83.2665,90.8947 83.5998,96.228 84.5,101.5C 85.3533,104.594 87.0199,107.094 89.5,109C 97.8333,109.667 106.167,109.667 114.5,109C 120.396,107.466 126.063,105.966 131.5,104.5C 139.386,117.951 145.386,132.285 149.5,147.5C 150.5,147.5 151.5,147.5 152.5,147.5C 154.442,148.241 156.109,148.241 157.5,147.5C 160.923,150.822 164.756,153.822 169,156.5C 170.202,158.677 170.702,161.011 170.5,163.5C 169.833,163.5 169.167,163.5 168.5,163.5C 168.896,160.956 168.229,158.789 166.5,157C 160.743,152.943 154.409,150.943 147.5,151C 146.627,152.045 145.627,152.878 144.5,153.5C 139.582,152.719 134.582,152.219 129.5,152C 128.944,151.617 128.611,151.117 128.5,150.5C 132.087,146.98 133.753,142.647 133.5,137.5C 134.138,129.609 131.138,123.443 124.5,119C 108.925,110.055 93.5922,110.388 78.5,120C 73.5696,124.028 70.903,129.195 70.5,135.5C 70.5304,139.618 71.1971,143.618 72.5,147.5C 69.4816,147.335 66.4816,147.502 63.5,148C 63.1047,151.267 62.1047,154.267 60.5,157C 61.3279,157.915 62.3279,158.581 63.5,159C 61.9419,159.21 60.6085,159.71 59.5,160.5C 56.2586,158.017 54.5919,154.684 54.5,150.5C 54.5488,146.922 55.2154,143.589 56.5,140.5C 56.0989,146.125 57.5989,151.125 61,155.5C 61.5592,147.596 63.2259,139.929 66,132.5C 74.6534,117.539 80.1534,101.539 82.5,84.5 Z"/></g>
<g><path style="opacity:1" fill="#e8e8e8" d="M 133.5,137.5 C 112.732,135.529 91.7321,134.862 70.5,135.5C 70.903,129.195 73.5696,124.028 78.5,120C 93.5922,110.388 108.925,110.055 124.5,119C 131.138,123.443 134.138,129.609 133.5,137.5 Z"/></g>
<g><path style="opacity:1" fill="#373737" d="M 162.5,127.5 C 164.81,127.758 166.81,127.758 168.5,127.5C 170.483,130.799 171.483,134.466 171.5,138.5C 169.533,138.261 167.699,138.594 166,139.5C 165.018,135.41 163.852,131.41 162.5,127.5 Z"/></g>
<g><path style="opacity:1" fill="#dfdddb" d="M 70.5,135.5 C 91.7321,134.862 112.732,135.529 133.5,137.5C 133.753,142.647 132.087,146.98 128.5,150.5C 110.497,150.667 92.4969,150.5 74.5,150C 73.9341,149.005 73.2674,148.172 72.5,147.5C 71.1971,143.618 70.5304,139.618 70.5,135.5 Z"/></g>
<g><path style="opacity:1" fill="#acadaf" d="M 157.5,147.5 C 156.109,148.241 154.442,148.241 152.5,147.5C 153.117,147.389 153.617,147.056 154,146.5C 156.608,135.927 154.608,126.26 148,117.5C 145.387,115.599 143.72,113.265 143,110.5C 154.083,120.614 158.917,132.947 157.5,147.5 Z"/></g>
<g><path style="opacity:1" fill="#404040" d="M 51.5,126.5 C 52.2905,127.401 53.2905,128.068 54.5,128.5C 51.9282,135.224 50.9282,142.224 51.5,149.5C 49.5,149.5 47.5,149.5 45.5,149.5C 44.6734,140.998 46.6734,133.331 51.5,126.5 Z"/></g>
<g><path style="opacity:1" fill="#100f0d" d="M 168.5,163.5 C 168.443,164.609 168.11,165.609 167.5,166.5C 166.167,167.167 165.167,168.167 164.5,169.5C 162.22,170.64 159.886,171.807 157.5,173C 149.734,174.401 145.067,171.234 143.5,163.5C 143.5,162.833 143.5,162.167 143.5,161.5C 143.5,160.5 143.5,159.5 143.5,158.5C 143.629,156.784 143.962,155.117 144.5,153.5C 145.627,152.878 146.627,152.045 147.5,151C 154.409,150.943 160.743,152.943 166.5,157C 168.229,158.789 168.896,160.956 168.5,163.5 Z"/></g>
<g><path style="opacity:1" fill="#ded6cc" d="M 72.5,147.5 C 73.2674,148.172 73.9341,149.005 74.5,150C 92.4969,150.5 110.497,150.667 128.5,150.5C 128.611,151.117 128.944,151.617 129.5,152C 134.582,152.219 139.582,152.719 144.5,153.5C 143.962,155.117 143.629,156.784 143.5,158.5C 137.167,161.809 133.834,167.143 133.5,174.5C 132.596,173.791 132.263,172.791 132.5,171.5C 115.487,171.167 98.4869,171.501 81.5,172.5C 80.0508,173.172 78.7175,173.839 77.5,174.5C 71.1897,170.185 65.1897,165.518 59.5,160.5C 60.6085,159.71 61.9419,159.21 63.5,159C 62.3279,158.581 61.3279,157.915 60.5,157C 62.1047,154.267 63.1047,151.267 63.5,148C 66.4816,147.502 69.4816,147.335 72.5,147.5 Z"/></g>
<g><path style="opacity:1" fill="#808080" d="M 160.5,157.5 C 156.03,158.486 151.363,158.819 146.5,158.5C 146.5,157.5 146.5,156.5 146.5,155.5C 146.611,154.883 146.944,154.383 147.5,154C 152.525,152.859 156.858,154.025 160.5,157.5 Z"/></g>
<g><path style="opacity:1" fill="#484848" d="M 146.5,155.5 C 146.5,156.5 146.5,157.5 146.5,158.5C 151.363,158.819 156.03,158.486 160.5,157.5C 162.719,159.065 163.052,161.065 161.5,163.5C 156.5,164.833 151.5,164.833 146.5,163.5C 145.224,160.697 145.224,158.03 146.5,155.5 Z"/></g>
<g><path style="opacity:1" fill="#fda640" d="M 143.5,161.5 C 143.5,162.167 143.5,162.833 143.5,163.5C 141.762,165.921 140.429,168.588 139.5,171.5C 138.515,175.634 138.182,179.968 138.5,184.5C 138.5,186.5 138.5,188.5 138.5,190.5C 137.811,193.189 136.144,194.856 133.5,195.5C 134.941,187.225 136.107,178.892 137,170.5C 137.725,168.051 138.725,165.717 140,163.5C 140.816,162.177 141.983,161.511 143.5,161.5 Z"/></g>
<g><path style="opacity:0.998" fill="#e59044" d="M 143.5,158.5 C 143.5,159.5 143.5,160.5 143.5,161.5C 141.983,161.511 140.816,162.177 140,163.5C 138.725,165.717 137.725,168.051 137,170.5C 136.107,178.892 134.941,187.225 133.5,195.5C 130.509,202.402 129.509,209.402 130.5,216.5C 131.786,219.117 133.453,221.45 135.5,223.5C 143.22,226.712 150.553,225.878 157.5,221C 165.107,211.868 174.44,205.201 185.5,201C 186.71,199.961 187.71,198.794 188.5,197.5C 189.493,193.453 188.16,190.119 184.5,187.5C 183.488,186.128 182.488,184.795 181.5,183.5C 181.5,182.833 181.5,182.167 181.5,181.5C 180.642,175.95 178.308,171.117 174.5,167C 172.19,166.503 169.857,166.337 167.5,166.5C 168.11,165.609 168.443,164.609 168.5,163.5C 169.167,163.5 169.833,163.5 170.5,163.5C 171.919,164.451 173.585,164.784 175.5,164.5C 180.941,168.714 183.774,174.38 184,181.5C 186.596,185.03 188.929,188.697 191,192.5C 191.667,194.833 191.667,197.167 191,199.5C 188.175,202.476 185.008,204.809 181.5,206.5C 173.284,209.219 166.617,214.052 161.5,221C 158.93,223.087 156.263,224.92 153.5,226.5C 147.935,228.623 142.268,228.957 136.5,227.5C 134.858,226.197 133.191,224.864 131.5,223.5C 129.884,221.262 128.551,218.929 127.5,216.5C 127.268,210.384 127.934,204.384 129.5,198.5C 132.999,190.91 134.332,182.91 133.5,174.5C 133.834,167.143 137.167,161.809 143.5,158.5 Z"/></g>
<g><path style="opacity:1" fill="#ffbf52" d="M 167.5,180.5 C 166.108,183.007 165.108,185.673 164.5,188.5C 159.124,188.803 154.124,190.136 149.5,192.5C 145.815,191.831 142.148,191.165 138.5,190.5C 138.5,188.5 138.5,186.5 138.5,184.5C 145.69,184.656 152.856,184.322 160,183.5C 162.957,183.307 165.457,182.307 167.5,180.5 Z"/></g>
<g><path style="opacity:1" fill="#fecb21" d="M 181.5,183.5 C 182.488,184.795 183.488,186.128 184.5,187.5C 166.244,196.295 148.244,205.628 130.5,215.5C 130.261,213.533 130.594,211.699 131.5,210C 148.689,202.048 165.355,193.215 181.5,183.5 Z"/></g>
<g><path style="opacity:1" fill="#ffbd6d" d="M 139.5,171.5 C 139.5,172.5 139.5,173.5 139.5,174.5C 148.909,176.327 158.076,177.327 167,177.5C 167.49,176.207 167.657,174.873 167.5,173.5C 168.623,175.688 168.623,178.021 167.5,180.5C 165.457,182.307 162.957,183.307 160,183.5C 152.856,184.322 145.69,184.656 138.5,184.5C 138.182,179.968 138.515,175.634 139.5,171.5 Z"/></g>
<g><path style="opacity:1" fill="#feb335" d="M 167.5,166.5 C 169.857,166.337 172.19,166.503 174.5,167C 178.308,171.117 180.642,175.95 181.5,181.5C 180.85,181.196 180.183,180.863 179.5,180.5C 174.346,182.91 169.346,185.577 164.5,188.5C 165.108,185.673 166.108,183.007 167.5,180.5C 168.623,178.021 168.623,175.688 167.5,173.5C 166.5,172.167 165.5,170.833 164.5,169.5C 165.167,168.167 166.167,167.167 167.5,166.5 Z"/></g>
<g><path style="opacity:1" fill="#fbc381" d="M 143.5,163.5 C 145.067,171.234 149.734,174.401 157.5,173C 159.886,171.807 162.22,170.64 164.5,169.5C 165.5,170.833 166.5,172.167 167.5,173.5C 167.657,174.873 167.49,176.207 167,177.5C 158.076,177.327 148.909,176.327 139.5,174.5C 139.5,173.5 139.5,172.5 139.5,171.5C 140.429,168.588 141.762,165.921 143.5,163.5 Z"/></g>
<g><path style="opacity:1" fill="#f6e7d2" d="M 133.5,174.5 C 134.332,182.91 132.999,190.91 129.5,198.5C 114.665,207.863 99.3316,208.863 83.5,201.5C 80.9362,198.72 78.6029,195.72 76.5,192.5C 81.0059,192.992 83.3392,190.992 83.5,186.5C 82.5516,181.936 80.5516,177.936 77.5,174.5C 78.7175,173.839 80.0508,173.172 81.5,172.5C 98.4869,171.501 115.487,171.167 132.5,171.5C 132.263,172.791 132.596,173.791 133.5,174.5 Z"/></g>
<g><path style="opacity:1" fill="#fee610" d="M 188.5,197.5 C 187.71,198.794 186.71,199.961 185.5,201C 174.44,205.201 165.107,211.868 157.5,221C 150.553,225.878 143.22,226.712 135.5,223.5C 137.309,222.519 138.643,221.019 139.5,219C 155.751,210.56 172.085,202.393 188.5,194.5C 188.5,195.5 188.5,196.5 188.5,197.5 Z"/></g>
<g><path style="opacity:1" fill="#fec02e" d="M 181.5,181.5 C 181.5,182.167 181.5,182.833 181.5,183.5C 165.355,193.215 148.689,202.048 131.5,210C 130.594,211.699 130.261,213.533 130.5,215.5C 130.5,215.833 130.5,216.167 130.5,216.5C 129.509,209.402 130.509,202.402 133.5,195.5C 136.144,194.856 137.811,193.189 138.5,190.5C 142.148,191.165 145.815,191.831 149.5,192.5C 154.124,190.136 159.124,188.803 164.5,188.5C 169.346,185.577 174.346,182.91 179.5,180.5C 180.183,180.863 180.85,181.196 181.5,181.5 Z"/></g>
<g><path style="opacity:1" fill="#0a0907" d="M 129.5,198.5 C 127.934,204.384 127.268,210.384 127.5,216.5C 120.449,216.32 113.449,215.653 106.5,214.5C 99.8902,214.796 93.3902,215.796 87,217.5C 85.9701,217.164 85.4701,216.497 85.5,215.5C 86.7715,210.578 86.1048,205.911 83.5,201.5C 99.3316,208.863 114.665,207.863 129.5,198.5 Z"/></g>
<g><path style="opacity:1" fill="#fed71a" d="M 184.5,187.5 C 188.16,190.119 189.493,193.453 188.5,197.5C 188.5,196.5 188.5,195.5 188.5,194.5C 172.085,202.393 155.751,210.56 139.5,219C 138.643,221.019 137.309,222.519 135.5,223.5C 133.453,221.45 131.786,219.117 130.5,216.5C 130.5,216.167 130.5,215.833 130.5,215.5C 148.244,205.628 166.244,196.295 184.5,187.5 Z"/></g>
<g><path style="opacity:0.454" fill="#c4bcb1" d="M 181.5,206.5 C 181.611,207.117 181.944,207.617 182.5,208C 196.71,209.447 198.376,214.447 187.5,223C 184.479,223.849 181.479,224.683 178.5,225.5C 176.75,226.87 174.75,227.87 172.5,228.5C 165.838,228.535 159.504,227.869 153.5,226.5C 156.263,224.92 158.93,223.087 161.5,221C 166.617,214.052 173.284,209.219 181.5,206.5 Z"/></g>
<g><path style="opacity:0.369" fill="#e3dfda" d="M 17.5,204.5 C 16.9526,212.288 20.6193,216.288 28.5,216.5C 26.4551,217.887 24.7884,219.053 23.5,220C 24.5792,222.429 26.2458,224.262 28.5,225.5C 25.5214,224.683 22.5214,223.849 19.5,223C 17,220.5 14.5,218 12,215.5C 12.2025,211.095 14.0358,207.428 17.5,204.5 Z"/></g>
<g><path style="opacity:0.169" fill="#afa697" d="M 178.5,225.5 C 175.413,225.543 172.413,225.71 169.5,226C 168.833,225 168.167,224 167.5,223C 169.604,222.209 170.937,220.709 171.5,218.5C 176.516,216.124 181.85,214.791 187.5,214.5C 191.394,214.265 192.061,215.765 189.5,219C 187.667,220.167 185.833,221.333 184,222.5C 183.667,222.167 183.333,221.833 183,221.5C 181.333,222.733 179.833,224.067 178.5,225.5 Z"/></g>
<g><path style="opacity:0.44" fill="#c3bbb0" d="M 28.5,216.5 C 34.1168,217.331 39.7835,218.164 45.5,219C 50.9773,221.742 56.644,223.908 62.5,225.5C 65.9619,226.482 69.6286,226.815 73.5,226.5C 73.3433,227.873 73.51,229.207 74,230.5C 75.98,231.749 77.8133,233.082 79.5,234.5C 73.4491,233.655 67.4491,232.488 61.5,231C 54.8417,230.5 48.175,230.334 41.5,230.5C 36.5481,230.16 32.2148,228.493 28.5,225.5C 26.2458,224.262 24.5792,222.429 23.5,220C 24.7884,219.053 26.4551,217.887 28.5,216.5 Z"/></g>
<g><path style="opacity:0.999" fill="#e38e43" d="M 76.5,192.5 C 78.6029,195.72 80.9362,198.72 83.5,201.5C 86.1048,205.911 86.7715,210.578 85.5,215.5C 84.5139,217.426 83.5139,219.426 82.5,221.5C 80.6917,222.907 78.6917,224.074 76.5,225C 71.8452,225.499 67.1785,225.666 62.5,225.5C 56.644,223.908 50.9773,221.742 45.5,219C 39.7835,218.164 34.1168,217.331 28.5,216.5C 20.6193,216.288 16.9526,212.288 17.5,204.5C 19.7336,198.287 20.0669,191.953 18.5,185.5C 18.1457,181.042 19.8123,177.542 23.5,175C 31.7058,173.621 37.3724,169.121 40.5,161.5C 42.7915,160.109 45.2915,159.109 48,158.5C 55.4182,160.25 60.7516,164.583 64,171.5C 67.1711,179.189 71.3378,186.189 76.5,192.5 Z"/></g>
<g><path style="opacity:1" fill="#fed71a" d="M 81.5,216.5 C 80.8333,219.167 79.1667,220.833 76.5,221.5C 60.0342,216.405 43.3675,211.572 26.5,207C 24.1475,206.287 22.1475,205.121 20.5,203.5C 20.5,203.167 20.5,202.833 20.5,202.5C 22.4705,201.838 24.4705,201.172 26.5,200.5C 44.8612,205.844 63.1945,211.177 81.5,216.5 Z"/></g>
<g><path style="opacity:1" fill="#fec42f" d="M 83.5,208.5 C 83.7947,210.735 83.4614,212.735 82.5,214.5C 77.9275,212.584 73.2608,210.75 68.5,209C 53.5123,205.449 38.6789,201.283 24,196.5C 23.6174,197.056 23.1174,197.389 22.5,197.5C 22.5,196.5 22.5,195.5 22.5,194.5C 23.1174,194.389 23.6174,194.056 24,193.5C 38.5685,198.518 53.4018,202.018 68.5,204C 70.5256,205.959 72.6922,206.793 75,206.5C 77.6212,207.991 80.4545,208.658 83.5,208.5 Z"/></g>
<g><path style="opacity:1" fill="#fee511" d="M 20.5,203.5 C 22.1475,205.121 24.1475,206.287 26.5,207C 43.3675,211.572 60.0342,216.405 76.5,221.5C 67.413,224.753 58.7464,223.586 50.5,218C 41.9552,215.691 33.2885,214.024 24.5,213C 23.0692,212.535 21.9025,211.701 21,210.5C 20.5034,208.19 20.3367,205.857 20.5,203.5 Z"/></g>
<g><path style="opacity:1" fill="#febd3d" d="M 36.5,192.5 C 37.1667,192.833 37.8333,193.167 38.5,193.5C 40.8193,196.294 43.8193,198.128 47.5,199C 56.7899,198.911 65.6233,200.744 74,204.5C 75.0299,204.164 75.5299,203.497 75.5,202.5C 77.5786,202.971 79.5786,203.637 81.5,204.5C 82.6737,205.514 83.3404,206.847 83.5,208.5C 80.4545,208.658 77.6212,207.991 75,206.5C 72.6922,206.793 70.5256,205.959 68.5,204C 53.4018,202.018 38.5685,198.518 24,193.5C 23.6174,194.056 23.1174,194.389 22.5,194.5C 22.5,192.833 22.5,191.167 22.5,189.5C 27.2546,190.085 31.9213,191.085 36.5,192.5 Z"/></g>
<g><path style="opacity:1" fill="#ffbe55" d="M 38.5,193.5 C 48.5231,193.025 58.0231,195.025 67,199.5C 68.9562,199.216 71.1229,199.216 73.5,199.5C 74.4013,200.29 75.0679,201.29 75.5,202.5C 75.5299,203.497 75.0299,204.164 74,204.5C 65.6233,200.744 56.7899,198.911 47.5,199C 43.8193,198.128 40.8193,196.294 38.5,193.5 Z"/></g>
<g><path style="opacity:1" fill="#fecb22" d="M 82.5,214.5 C 82.6716,215.492 82.3382,216.158 81.5,216.5C 63.1945,211.177 44.8612,205.844 26.5,200.5C 24.4705,201.172 22.4705,201.838 20.5,202.5C 20.8333,201.167 21.1667,199.833 21.5,198.5C 22.1667,198.5 22.5,198.167 22.5,197.5C 23.1174,197.389 23.6174,197.056 24,196.5C 38.6789,201.283 53.5123,205.449 68.5,209C 73.2608,210.75 77.9275,212.584 82.5,214.5 Z"/></g>
<g><path style="opacity:1" fill="#ffbc6b" d="M 33.5,188.5 C 44.3725,191.787 55.3725,191.787 66.5,188.5C 68.8872,190.913 71.0539,193.58 73,196.5C 73.4828,197.448 73.6495,198.448 73.5,199.5C 71.1229,199.216 68.9562,199.216 67,199.5C 58.0231,195.025 48.5231,193.025 38.5,193.5C 37.8333,193.167 37.1667,192.833 36.5,192.5C 35.5,191.167 34.5,189.833 33.5,188.5 Z"/></g>
<g><path style="opacity:1" fill="#fda740" d="M 81.5,204.5 C 79.5786,203.637 77.5786,202.971 75.5,202.5C 75.0679,201.29 74.4013,200.29 73.5,199.5C 73.6495,198.448 73.4828,197.448 73,196.5C 71.0539,193.58 68.8872,190.913 66.5,188.5C 64.2155,184.927 62.2155,181.26 60.5,177.5C 58.8604,173.559 56.6937,169.892 54,166.5C 50.9842,164.528 47.8175,164.195 44.5,165.5C 40.4366,170.885 36.1033,175.885 31.5,180.5C 30.8761,180.917 30.5427,181.584 30.5,182.5C 31.4892,184.494 32.4892,186.494 33.5,188.5C 34.5,189.833 35.5,191.167 36.5,192.5C 31.9213,191.085 27.2546,190.085 22.5,189.5C 22.5,191.167 22.5,192.833 22.5,194.5C 22.5,195.5 22.5,196.5 22.5,197.5C 22.5,198.167 22.1667,198.5 21.5,198.5C 21.2071,192.107 21.5404,185.773 22.5,179.5C 26.674,176.912 31.0074,174.579 35.5,172.5C 38.1448,168.721 41.1448,165.221 44.5,162C 47.1667,161.333 49.8333,161.333 52.5,162C 59.2043,168.726 64.371,176.559 68,185.5C 73.1327,191.453 77.6327,197.786 81.5,204.5 Z"/></g>
<g><path style="opacity:1" fill="#ffc687" d="M 60.5,177.5 C 62.2155,181.26 64.2155,184.927 66.5,188.5C 55.3725,191.787 44.3725,191.787 33.5,188.5C 32.4892,186.494 31.4892,184.494 30.5,182.5C 30.5427,181.584 30.8761,180.917 31.5,180.5C 31.4701,181.497 31.9701,182.164 33,182.5C 40.6559,181.501 48.3226,180.501 56,179.5C 57.9855,179.431 59.4855,178.765 60.5,177.5 Z"/></g>
<g><path style="opacity:1" fill="#ffd3a1" d="M 60.5,177.5 C 59.4855,178.765 57.9855,179.431 56,179.5C 48.3226,180.501 40.6559,181.501 33,182.5C 31.9701,182.164 31.4701,181.497 31.5,180.5C 36.1033,175.885 40.4366,170.885 44.5,165.5C 47.8175,164.195 50.9842,164.528 54,166.5C 56.6937,169.892 58.8604,173.559 60.5,177.5 Z"/></g>
<g><path style="opacity:0.414" fill="#978974" d="M 127.5,216.5 C 128.551,218.929 129.884,221.262 131.5,223.5C 130.146,226.974 128.146,230.14 125.5,233C 114.833,233.667 104.167,233.667 93.5,233C 90.9999,232.625 88.6666,231.792 86.5,230.5C 85.5493,228.099 84.216,225.932 82.5,224C 83.3353,222.869 83.3353,222.036 82.5,221.5C 83.5139,219.426 84.5139,217.426 85.5,215.5C 85.4701,216.497 85.9701,217.164 87,217.5C 93.3902,215.796 99.8902,214.796 106.5,214.5C 113.449,215.653 120.449,216.32 127.5,216.5 Z"/></g>
<g><path style="opacity:0.253" fill="#d3cec5" d="M 153.5,226.5 C 159.504,227.869 165.838,228.535 172.5,228.5C 129.02,239.599 85.3537,240.266 41.5,230.5C 48.175,230.334 54.8417,230.5 61.5,231C 67.4491,232.488 73.4491,233.655 79.5,234.5C 96.5091,235.872 113.509,235.705 130.5,234C 133.733,232.901 135.733,230.735 136.5,227.5C 142.268,228.957 147.935,228.623 153.5,226.5 Z"/></g>
<g><path style="opacity:0.18" fill="#b0a595" d="M 82.5,221.5 C 83.3353,222.036 83.3353,222.869 82.5,224C 84.216,225.932 85.5493,228.099 86.5,230.5C 88.6666,231.792 90.9999,232.625 93.5,233C 104.167,233.667 114.833,233.667 125.5,233C 128.146,230.14 130.146,226.974 131.5,223.5C 133.191,224.864 134.858,226.197 136.5,227.5C 135.733,230.735 133.733,232.901 130.5,234C 113.509,235.705 96.5091,235.872 79.5,234.5C 77.8133,233.082 75.98,231.749 74,230.5C 73.51,229.207 73.3433,227.873 73.5,226.5C 69.6286,226.815 65.9619,226.482 62.5,225.5C 67.1785,225.666 71.8452,225.499 76.5,225C 78.6917,224.074 80.6917,222.907 82.5,221.5 Z"/></g>
</svg>
