<?xml version="1.0" encoding="UTF-8"?>
<!DOCTYPE svg PUBLIC "-//W3C//DTD SVG 1.1//EN" "http://www.w3.org/Graphics/SVG/1.1/DTD/svg11.dtd">
<svg xmlns="http://www.w3.org/2000/svg" version="1.1" width="900px" height="420px" style="shape-rendering:geometricPrecision; text-rendering:geometricPrecision; image-rendering:optimizeQuality; fill-rule:evenodd; clip-rule:evenodd" xmlns:xlink="http://www.w3.org/1999/xlink">
<g><path style="opacity:1" fill="#db7736" d="M 190.5,-0.5 C 211.833,-0.5 233.167,-0.5 254.5,-0.5C 254.5,0.166667 254.833,0.5 255.5,0.5C 263.609,2.22139 271.943,3.22139 280.5,3.5C 286.31,3.86269 291.977,4.86269 297.5,6.5C 301.2,8.24534 305.2,9.24534 309.5,9.5C 311.099,9.23219 312.432,9.56552 313.5,10.5C 315.515,11.9238 317.848,12.5905 320.5,12.5C 321.791,12.2627 322.791,12.596 323.5,13.5C 325.102,15.0739 327.102,15.7406 329.5,15.5C 330.78,16.9313 332.447,17.5979 334.5,17.5C 334.987,18.4734 335.487,19.4734 336,20.5C 337.011,19.6634 338.178,19.33 339.5,19.5C 341.426,21.2927 343.759,22.2927 346.5,22.5C 347.492,22.3284 348.158,22.6618 348.5,23.5C 349.287,25.1042 350.62,25.7709 352.5,25.5C 353.492,25.3284 354.158,25.6618 354.5,26.5C 354.973,27.9063 355.973,28.573 357.5,28.5C 358.657,30.1376 359.824,31.8043 361,33.5C 361.414,33.0426 361.914,32.7093 362.5,32.5C 363.622,33.6302 364.956,34.2969 366.5,34.5C 367.911,36.914 369.911,38.5806 372.5,39.5C 373.5,39.8333 374.167,40.5 374.5,41.5C 376.094,44.7642 378.427,47.4309 381.5,49.5C 381.427,51.0269 382.094,52.0269 383.5,52.5C 383.229,54.3797 383.896,55.713 385.5,56.5C 385.59,58.6963 385.923,60.863 386.5,63C 386.684,64.3756 387.351,65.2089 388.5,65.5C 388.5,158.833 388.5,252.167 388.5,345.5C 388.5,345.833 388.5,346.167 388.5,346.5C 386.733,348.792 385.733,351.458 385.5,354.5C 385.672,355.492 385.338,356.158 384.5,356.5C 383.094,356.973 382.427,357.973 382.5,359.5C 382.573,361.027 381.906,362.027 380.5,362.5C 378.738,363.262 377.738,364.596 377.5,366.5C 376.5,366.833 375.833,367.5 375.5,368.5C 374.5,370.167 373.167,371.5 371.5,372.5C 369.251,373.08 367.585,374.413 366.5,376.5C 364.596,376.738 363.262,377.738 362.5,379.5C 360.973,379.427 359.973,380.094 359.5,381.5C 358.833,381.833 358.167,382.167 357.5,382.5C 354.669,383.079 352.336,384.412 350.5,386.5C 350.158,387.338 349.492,387.672 348.5,387.5C 344.848,387.513 341.848,388.847 339.5,391.5C 338.22,392.931 336.553,393.598 334.5,393.5C 330.463,394.065 326.797,395.399 323.5,397.5C 322.791,398.404 321.791,398.737 320.5,398.5C 317.848,398.41 315.515,399.076 313.5,400.5C 312.432,401.434 311.099,401.768 309.5,401.5C 305.2,401.755 301.2,402.755 297.5,404.5C 295.621,405.341 293.621,405.675 291.5,405.5C 285.578,405.764 279.911,406.764 274.5,408.5C 271.236,409.324 267.902,409.658 264.5,409.5C 240.172,410.153 215.839,410.486 191.5,410.5C 179.7,410.189 168.034,408.856 156.5,406.5C 154.162,404.96 151.495,404.294 148.5,404.5C 147.833,404.5 147.167,404.5 146.5,404.5C 141.809,402.409 136.809,401.076 131.5,400.5C 131.167,400.5 130.833,400.5 130.5,400.5C 129.07,399.463 127.403,398.796 125.5,398.5C 124.737,397.732 123.737,397.232 122.5,397C 123.672,396.581 124.672,395.915 125.5,395C 123.744,394.86 122.078,395.36 120.5,396.5C 118.929,395.691 117.262,395.357 115.5,395.5C 113.898,393.926 111.898,393.259 109.5,393.5C 108.508,393.672 107.842,393.338 107.5,392.5C 106.71,391.599 105.71,390.932 104.5,390.5C 103.047,389.175 103.381,388.342 105.5,388C 102.911,384.263 100.578,384.096 98.5,387.5C 96.0518,386.197 94.5518,384.197 94,381.5C 93.4806,382.516 92.6473,383.182 91.5,383.5C 90.1508,383.154 88.8175,382.821 87.5,382.5C 86.5084,382.672 85.8417,382.338 85.5,381.5C 85.0269,380.094 84.0269,379.427 82.5,379.5C 81.7377,377.738 80.4044,376.738 78.5,376.5C 77.4154,374.413 75.7488,373.08 73.5,372.5C 72.8333,371.167 71.8333,370.167 70.5,369.5C 69.8333,369.5 69.5,369.167 69.5,368.5C 68.8333,367.167 67.8333,366.167 66.5,365.5C 65.8333,365.5 65.5,365.167 65.5,364.5C 64.6597,362.147 63.3264,360.147 61.5,358.5C 58.8673,352.602 56.8673,346.602 55.5,340.5C 54.1684,250.264 54.1684,159.931 55.5,69.5C 56.913,66.7814 57.5797,63.7814 57.5,60.5C 58.9313,59.2196 59.5979,57.5529 59.5,55.5C 60.9063,55.0269 61.573,54.0269 61.5,52.5C 63.2624,51.7377 64.2624,50.4044 64.5,48.5C 64.7376,46.5956 65.7376,45.2623 67.5,44.5C 69.1667,43.5 70.5,42.1667 71.5,40.5C 75.4627,37.8715 79.1294,34.8715 82.5,31.5C 84.0269,31.573 85.0269,30.9063 85.5,29.5C 87.9893,29.7593 89.656,28.7593 90.5,26.5C 94.3789,25.5641 97.7123,23.8975 100.5,21.5C 101.496,21.4142 102.329,21.7476 103,22.5C 104.25,20.8065 105.75,19.4732 107.5,18.5C 108.78,17.0687 110.447,16.4021 112.5,16.5C 115.636,16.3969 118.302,15.3969 120.5,13.5C 123.228,13.8294 125.562,13.1628 127.5,11.5C 134.132,10.5932 140.466,8.92651 146.5,6.5C 161.149,3.40887 175.816,1.07554 190.5,-0.5 Z M 198.5,30.5 C 231.127,29.0247 263.461,31.358 295.5,37.5C 299.897,39.4054 304.563,40.7388 309.5,41.5C 311.701,42.5664 314.035,43.233 316.5,43.5C 317.78,44.9313 319.447,45.5979 321.5,45.5C 322.209,46.404 323.209,46.7373 324.5,46.5C 325.78,47.9313 327.447,48.5979 329.5,48.5C 331.849,50.341 334.515,51.6743 337.5,52.5C 338.659,54.2503 340.326,55.2503 342.5,55.5C 342.842,56.3382 343.508,56.6716 344.5,56.5C 345.585,58.5869 347.251,59.9202 349.5,60.5C 349.973,61.9063 350.973,62.573 352.5,62.5C 352.738,64.4044 353.738,65.7377 355.5,66.5C 355.427,68.0269 356.094,69.0269 357.5,69.5C 357.993,71.8056 358.326,74.139 358.5,76.5C 356.917,78.6626 355.584,80.9959 354.5,83.5C 352.833,84.5 351.5,85.8333 350.5,87.5C 346.808,89.3437 343.475,91.6771 340.5,94.5C 338.181,94.9925 336.181,95.9925 334.5,97.5C 332.181,97.9925 330.181,98.9925 328.5,100.5C 326.447,100.402 324.78,101.069 323.5,102.5C 320.557,102.98 317.89,103.98 315.5,105.5C 311.952,106.13 308.619,107.13 305.5,108.5C 302.572,108.565 299.905,109.232 297.5,110.5C 294.572,110.565 291.905,111.232 289.5,112.5C 287.265,112.205 285.265,112.539 283.5,113.5C 279.295,113.717 275.295,114.383 271.5,115.5C 265.64,115.717 259.973,116.383 254.5,117.5C 249.305,117.179 244.305,117.513 239.5,118.5C 223.489,118.585 207.489,118.252 191.5,117.5C 190.833,117.5 190.167,117.5 189.5,117.5C 185.02,116.479 180.353,115.813 175.5,115.5C 174.833,115.5 174.167,115.5 173.5,115.5C 168.025,114.141 162.358,113.141 156.5,112.5C 156.167,112.5 155.833,112.5 155.5,112.5C 153.039,111.469 150.373,110.802 147.5,110.5C 143.619,109.097 139.619,108.097 135.5,107.5C 133.786,106.262 131.786,105.595 129.5,105.5C 127.11,103.98 124.443,102.98 121.5,102.5C 120.07,101.463 118.403,100.796 116.5,100.5C 113.912,98.3754 110.912,97.0421 107.5,96.5C 106.341,94.7497 104.674,93.7497 102.5,93.5C 102.027,92.0937 101.027,91.427 99.5,91.5C 99.0269,90.0937 98.0269,89.427 96.5,89.5C 96.5,88.8333 96.1667,88.5 95.5,88.5C 93.5,85.8333 91.1667,83.5 88.5,81.5C 86.9767,78.3652 86.31,75.0318 86.5,71.5C 87.6737,70.4863 88.3404,69.153 88.5,67.5C 89.1667,67.5 89.5,67.1667 89.5,66.5C 92.1667,64.5 94.5,62.1667 96.5,59.5C 98.0269,59.573 99.0269,58.9063 99.5,57.5C 100.167,57.5 100.5,57.1667 100.5,56.5C 102.027,56.573 103.027,55.9063 103.5,54.5C 105.819,54.0075 107.819,53.0075 109.5,51.5C 111.153,51.3404 112.486,50.6737 113.5,49.5C 114.492,49.6716 115.158,49.3382 115.5,48.5C 119.137,47.7365 122.47,46.4032 125.5,44.5C 128.785,44.0719 131.785,43.0719 134.5,41.5C 138.427,41.0743 142.093,40.0743 145.5,38.5C 150.391,37.9901 155.058,36.9901 159.5,35.5C 166.046,35.0191 172.379,34.0191 178.5,32.5C 178.833,32.5 179.167,32.5 179.5,32.5C 186.016,32.2101 192.35,31.5435 198.5,30.5 Z M 87.5,120.5 C 89.3356,122.588 91.6689,123.921 94.5,124.5C 95.5137,125.674 96.847,126.34 98.5,126.5C 100.426,128.293 102.759,129.293 105.5,129.5C 108.53,131.403 111.863,132.737 115.5,133.5C 117.214,134.738 119.214,135.405 121.5,135.5C 124.619,136.87 127.952,137.87 131.5,138.5C 132.568,139.434 133.901,139.768 135.5,139.5C 137.905,140.768 140.572,141.435 143.5,141.5C 143.833,141.5 144.167,141.5 144.5,141.5C 147.219,142.913 150.219,143.58 153.5,143.5C 157.683,144.907 162.016,145.574 166.5,145.5C 175.263,147.385 184.263,148.385 193.5,148.5C 212.456,149.641 231.456,149.808 250.5,149C 265.806,147.98 280.806,145.814 295.5,142.5C 298.781,142.58 301.781,141.913 304.5,140.5C 306.099,140.768 307.432,140.434 308.5,139.5C 315.638,138.72 322.305,136.72 328.5,133.5C 329.791,133.737 330.791,133.404 331.5,132.5C 333.553,132.598 335.22,131.931 336.5,130.5C 338.553,130.598 340.22,129.931 341.5,128.5C 346.086,127.54 350.086,125.54 353.5,122.5C 355.153,122.34 356.486,121.674 357.5,120.5C 358.81,136.372 358.81,152.372 357.5,168.5C 356.094,168.973 355.427,169.973 355.5,171.5C 353.738,172.262 352.738,173.596 352.5,175.5C 351.833,175.5 351.5,175.833 351.5,176.5C 349.973,176.427 348.973,177.094 348.5,178.5C 345.63,179.433 343.296,181.1 341.5,183.5C 337.182,184.992 333.182,186.992 329.5,189.5C 327.447,189.402 325.78,190.069 324.5,191.5C 321.514,191.903 318.848,192.903 316.5,194.5C 312.952,195.13 309.619,196.13 306.5,197.5C 302.573,197.926 298.907,198.926 295.5,200.5C 291.922,200.549 288.589,201.215 285.5,202.5C 283.379,202.325 281.379,202.659 279.5,203.5C 275.295,203.717 271.295,204.383 267.5,205.5C 260.309,205.681 253.309,206.348 246.5,207.5C 230.5,207.5 214.5,207.5 198.5,207.5C 191.691,206.348 184.691,205.681 177.5,205.5C 171.699,204.089 165.699,203.089 159.5,202.5C 159.167,202.5 158.833,202.5 158.5,202.5C 154.425,200.882 150.092,199.882 145.5,199.5C 143.095,198.232 140.428,197.565 137.5,197.5C 135.786,196.262 133.786,195.595 131.5,195.5C 129.786,194.262 127.786,193.595 125.5,193.5C 123.208,191.733 120.542,190.733 117.5,190.5C 117.158,189.662 116.492,189.328 115.5,189.5C 113.151,187.659 110.485,186.326 107.5,185.5C 107.158,184.662 106.492,184.328 105.5,184.5C 104.341,182.75 102.674,181.75 100.5,181.5C 100.027,180.094 99.0269,179.427 97.5,179.5C 97.5,178.833 97.1667,178.5 96.5,178.5C 94.1667,175.5 91.5,172.833 88.5,170.5C 88.2914,169.078 87.7914,167.745 87,166.5C 86.1721,150.994 86.3388,135.661 87.5,120.5 Z M 88.5,210.5 C 89.5137,211.674 90.847,212.34 92.5,212.5C 92.9731,213.906 93.9731,214.573 95.5,214.5C 95.8333,214.5 96.1667,214.5 96.5,214.5C 96.9731,215.906 97.9731,216.573 99.5,216.5C 101.954,218.06 104.62,219.06 107.5,219.5C 109.509,221.065 111.843,222.065 114.5,222.5C 117.215,224.072 120.215,225.072 123.5,225.5C 125.515,226.924 127.848,227.59 130.5,227.5C 135.878,229.593 141.545,230.927 147.5,231.5C 152.572,233.246 157.905,234.246 163.5,234.5C 170.946,236.145 178.612,237.145 186.5,237.5C 220.383,240.848 254.05,239.515 287.5,233.5C 291.078,233.451 294.411,232.785 297.5,231.5C 299.099,231.768 300.432,231.434 301.5,230.5C 308.219,229.905 314.552,228.238 320.5,225.5C 322.898,225.741 324.898,225.074 326.5,223.5C 326.833,223.5 327.167,223.5 327.5,223.5C 329.553,223.598 331.22,222.931 332.5,221.5C 334.403,221.204 336.07,220.537 337.5,219.5C 340.912,218.958 343.912,217.625 346.5,215.5C 349.485,214.674 352.151,213.341 354.5,211.5C 355.583,211.461 356.583,211.127 357.5,210.5C 358.499,225.485 358.833,240.485 358.5,255.5C 357.326,256.514 356.66,257.847 356.5,259.5C 354.413,260.585 353.08,262.251 352.5,264.5C 350.251,265.08 348.585,266.413 347.5,268.5C 345.973,268.427 344.973,269.094 344.5,270.5C 342.973,270.427 341.973,271.094 341.5,272.5C 340.508,272.328 339.842,272.662 339.5,273.5C 335.849,274.659 332.515,276.326 329.5,278.5C 328.508,278.328 327.842,278.662 327.5,279.5C 325.447,279.402 323.78,280.069 322.5,281.5C 312.504,284.828 302.504,287.828 292.5,290.5C 291.833,290.5 291.167,290.5 290.5,290.5C 287.273,290.676 284.273,291.343 281.5,292.5C 252.627,296.66 223.627,297.994 194.5,296.5C 180.93,294.759 167.263,292.759 153.5,290.5C 153.167,290.5 152.833,290.5 152.5,290.5C 148.761,288.898 144.761,287.898 140.5,287.5C 138.401,286.388 136.067,285.721 133.5,285.5C 131.786,284.262 129.786,283.595 127.5,283.5C 122.883,280.734 117.883,278.734 112.5,277.5C 110.819,275.992 108.819,274.992 106.5,274.5C 106.027,273.094 105.027,272.427 103.5,272.5C 102.833,272.167 102.167,271.833 101.5,271.5C 101.027,270.094 100.027,269.427 98.5,269.5C 97.4154,267.413 95.7488,266.08 93.5,265.5C 93.1898,263.856 92.1898,262.856 90.5,262.5C 90.2624,260.596 89.2624,259.262 87.5,258.5C 87.4431,257.391 87.1098,256.391 86.5,255.5C 85.8497,240.129 86.5163,225.129 88.5,210.5 Z M 88.5,299.5 C 88.9731,300.906 89.9731,301.573 91.5,301.5C 91.8417,302.338 92.5084,302.672 93.5,302.5C 94.287,304.104 95.6203,304.771 97.5,304.5C 100.088,306.592 103.088,307.925 106.5,308.5C 107.78,309.931 109.447,310.598 111.5,310.5C 115.098,312.74 119.098,314.074 123.5,314.5C 125.214,315.738 127.214,316.405 129.5,316.5C 131.905,317.768 134.572,318.435 137.5,318.5C 139.905,319.768 142.572,320.435 145.5,320.5C 148.589,321.785 151.922,322.451 155.5,322.5C 162.694,324.242 170.027,325.242 177.5,325.5C 183.288,326.81 189.288,327.477 195.5,327.5C 216.58,329.002 237.58,328.668 258.5,326.5C 264.389,326.55 270.056,325.884 275.5,324.5C 280.297,324.477 284.964,323.811 289.5,322.5C 294.092,322.118 298.425,321.118 302.5,319.5C 306.8,319.281 310.8,318.281 314.5,316.5C 317.152,316.59 319.485,315.924 321.5,314.5C 322.791,314.737 323.791,314.404 324.5,313.5C 329.517,312.607 334.183,310.94 338.5,308.5C 339.492,308.672 340.158,308.338 340.5,307.5C 343.241,307.293 345.574,306.293 347.5,304.5C 349.062,304.267 350.395,303.6 351.5,302.5C 353.674,302.25 355.341,301.25 356.5,299.5C 357.83,305.631 358.497,312.131 358.5,319C 358.448,326.533 358.115,334.033 357.5,341.5C 356.662,341.842 356.328,342.508 356.5,343.5C 353.5,345.833 350.833,348.5 348.5,351.5C 346.973,351.427 345.973,352.094 345.5,353.5C 343.973,353.427 342.973,354.094 342.5,355.5C 340.326,355.75 338.659,356.75 337.5,358.5C 335.62,358.229 334.287,358.896 333.5,360.5C 332.508,360.328 331.842,360.662 331.5,361.5C 328.759,361.707 326.426,362.707 324.5,364.5C 320.463,365.065 316.797,366.399 313.5,368.5C 308.555,369.233 303.888,370.566 299.5,372.5C 296.219,372.42 293.219,373.087 290.5,374.5C 286.709,374.659 283.042,375.325 279.5,376.5C 274.951,376.624 270.618,377.291 266.5,378.5C 258.448,378.812 250.448,379.478 242.5,380.5C 218.758,381.038 195.092,380.038 171.5,377.5C 164.405,375.55 157.071,374.216 149.5,373.5C 143.776,371.233 137.776,369.566 131.5,368.5C 129.786,367.262 127.786,366.595 125.5,366.5C 122.47,364.597 119.137,363.263 115.5,362.5C 114.486,361.326 113.153,360.66 111.5,360.5C 110.486,359.326 109.153,358.66 107.5,358.5C 107.158,357.662 106.492,357.328 105.5,357.5C 105.027,356.094 104.027,355.427 102.5,355.5C 101.341,353.75 99.674,352.75 97.5,352.5C 97.5,351.833 97.1667,351.5 96.5,351.5C 94.1667,348.5 91.5,345.833 88.5,343.5C 88.3404,341.847 87.6737,340.514 86.5,339.5C 85.8519,325.791 86.5186,312.458 88.5,299.5 Z"/></g>
<g><path style="opacity:0.298" fill="#ecd5c6" d="M 255.5,0.5 C 264.057,0.778614 272.391,1.77861 280.5,3.5C 271.943,3.22139 263.609,2.22139 255.5,0.5 Z"/></g>
<g><path style="opacity:0.271" fill="#eed8cc" d="M 297.5,6.5 C 301.8,6.75466 305.8,7.75466 309.5,9.5C 305.2,9.24534 301.2,8.24534 297.5,6.5 Z"/></g>
<g><path style="opacity:0.812" fill="#f2c9b4" d="M 146.5,6.5 C 140.466,8.92651 134.132,10.5932 127.5,11.5C 133.526,9.07558 139.859,7.40891 146.5,6.5 Z"/></g>
<g><path style="opacity:0.271" fill="#eeded5" d="M 313.5,10.5 C 316.152,10.4095 318.485,11.0762 320.5,12.5C 317.848,12.5905 315.515,11.9238 313.5,10.5 Z"/></g>
<g><path style="opacity:1" fill="#f6cab2" d="M 127.5,11.5 C 125.562,13.1628 123.228,13.8294 120.5,13.5C 122.515,12.0762 124.848,11.4095 127.5,11.5 Z"/></g>
<g><path style="opacity:0.588" fill="#f4d2bf" d="M 323.5,13.5 C 325.786,13.595 327.786,14.2616 329.5,15.5C 327.102,15.7406 325.102,15.0739 323.5,13.5 Z"/></g>
<g><path style="opacity:0.412" fill="#efceba" d="M 120.5,13.5 C 118.302,15.3969 115.636,16.3969 112.5,16.5C 114.792,14.7329 117.458,13.7329 120.5,13.5 Z"/></g>
<g><path style="opacity:0.412" fill="#f9dece" d="M 329.5,15.5 C 331.553,15.4021 333.22,16.0687 334.5,17.5C 332.447,17.5979 330.78,16.9313 329.5,15.5 Z"/></g>
<g><path style="opacity:1" fill="#f1b08a" d="M 334.5,17.5 C 336.553,17.4021 338.22,18.0687 339.5,19.5C 338.178,19.33 337.011,19.6634 336,20.5C 335.487,19.4734 334.987,18.4734 334.5,17.5 Z"/></g>
<g><path style="opacity:0.243" fill="#f7e3d5" d="M 339.5,19.5 C 342.241,19.7073 344.574,20.7073 346.5,22.5C 343.759,22.2927 341.426,21.2927 339.5,19.5 Z"/></g>
<g><path style="opacity:1" fill="#f1bb98" d="M 107.5,18.5 C 105.75,19.4732 104.25,20.8065 103,22.5C 102.329,21.7476 101.496,21.4142 100.5,21.5C 102.426,19.7073 104.759,18.7073 107.5,18.5 Z"/></g>
<g><path style="opacity:1" fill="#eab99b" d="M 100.5,21.5 C 97.7123,23.8975 94.3789,25.5641 90.5,26.5C 93.3677,24.0875 96.701,22.4208 100.5,21.5 Z"/></g>
<g><path style="opacity:0.486" fill="#f7d9c8" d="M 348.5,23.5 C 350.153,23.6596 351.486,24.3263 352.5,25.5C 350.62,25.7709 349.287,25.1042 348.5,23.5 Z"/></g>
<g><path style="opacity:0.224" fill="#faede9" d="M 354.5,26.5 C 356.027,26.427 357.027,27.0937 357.5,28.5C 355.973,28.573 354.973,27.9063 354.5,26.5 Z"/></g>
<g><path style="opacity:1" fill="#e4a57e" d="M 90.5,26.5 C 89.656,28.7593 87.9893,29.7593 85.5,29.5C 86.8993,28.1103 88.5659,27.1103 90.5,26.5 Z"/></g>
<g><path style="opacity:0.702" fill="#efcfb9" d="M 85.5,29.5 C 85.0269,30.9063 84.0269,31.573 82.5,31.5C 82.9731,30.0937 83.9731,29.427 85.5,29.5 Z"/></g>
<g><path style="opacity:0.337" fill="#f6ddcd" d="M 198.5,30.5 C 192.35,31.5435 186.016,32.2101 179.5,32.5C 185.584,30.8228 191.918,30.1561 198.5,30.5 Z"/></g>
<g><path style="opacity:1" fill="#eab696" d="M 357.5,28.5 C 361.025,29.7589 364.025,31.7589 366.5,34.5C 364.956,34.2969 363.622,33.6302 362.5,32.5C 361.914,32.7093 361.414,33.0426 361,33.5C 359.824,31.8043 358.657,30.1376 357.5,28.5 Z"/></g>
<g><path style="opacity:0.345" fill="#ecd7cb" d="M 178.5,32.5 C 172.379,34.0191 166.046,35.0191 159.5,35.5C 165.556,33.5473 171.889,32.5473 178.5,32.5 Z"/></g>
<g><path style="opacity:0.42" fill="#f2ceb7" d="M 82.5,31.5 C 79.1294,34.8715 75.4627,37.8715 71.5,40.5C 74.2901,36.3717 77.9568,33.3717 82.5,31.5 Z"/></g>
<g><path style="opacity:0.318" fill="#edd8c8" d="M 366.5,34.5 C 369.089,35.4194 371.089,37.086 372.5,39.5C 369.911,38.5806 367.911,36.914 366.5,34.5 Z"/></g>
<g><path style="opacity:0.204" fill="#f7e0d5" d="M 159.5,35.5 C 155.058,36.9901 150.391,37.9901 145.5,38.5C 149.833,36.4983 154.5,35.4983 159.5,35.5 Z"/></g>
<g><path style="opacity:0.729" fill="#eec9b5" d="M 295.5,37.5 C 300.55,37.8545 305.217,39.1879 309.5,41.5C 304.563,40.7388 299.897,39.4054 295.5,37.5 Z"/></g>
<g><path style="opacity:0.278" fill="#f5ded1" d="M 145.5,38.5 C 142.093,40.0743 138.427,41.0743 134.5,41.5C 137.799,39.5165 141.466,38.5165 145.5,38.5 Z"/></g>
<g><path style="opacity:0.447" fill="#ecdfd5" d="M 71.5,40.5 C 70.5,42.1667 69.1667,43.5 67.5,44.5C 67.8333,42.1667 69.1667,40.8333 71.5,40.5 Z"/></g>
<g><path style="opacity:0.925" fill="#efcdba" d="M 374.5,41.5 C 377.573,43.5691 379.906,46.2358 381.5,49.5C 378.427,47.4309 376.094,44.7642 374.5,41.5 Z"/></g>
<g><path style="opacity:0.196" fill="#f4e7df" d="M 316.5,43.5 C 318.553,43.4021 320.22,44.0687 321.5,45.5C 319.447,45.5979 317.78,44.9313 316.5,43.5 Z"/></g>
<g><path style="opacity:0.4" fill="#f2ddd3" d="M 125.5,44.5 C 122.47,46.4032 119.137,47.7365 115.5,48.5C 118.37,46.2057 121.703,44.8723 125.5,44.5 Z"/></g>
<g><path style="opacity:0.251" fill="#f9e4d9" d="M 324.5,46.5 C 326.553,46.4021 328.22,47.0687 329.5,48.5C 327.447,48.5979 325.78,47.9313 324.5,46.5 Z"/></g>
<g><path style="opacity:0.749" fill="#e8bea2" d="M 64.5,48.5 C 64.2624,50.4044 63.2624,51.7377 61.5,52.5C 61.7376,50.5956 62.7376,49.2623 64.5,48.5 Z"/></g>
<g><path style="opacity:0.29" fill="#eeddd5" d="M 113.5,49.5 C 112.486,50.6737 111.153,51.3404 109.5,51.5C 110.287,49.8958 111.62,49.2291 113.5,49.5 Z"/></g>
<g><path style="opacity:0.365" fill="#e9dbd8" d="M 381.5,49.5 C 382.906,49.9731 383.573,50.9731 383.5,52.5C 382.094,52.0269 381.427,51.0269 381.5,49.5 Z"/></g>
<g><path style="opacity:0.298" fill="#f0e6de" d="M 337.5,52.5 C 339.674,52.7497 341.341,53.7497 342.5,55.5C 340.326,55.2503 338.659,54.2503 337.5,52.5 Z"/></g>
<g><path style="opacity:0.337" fill="#f1e3d4" d="M 61.5,52.5 C 61.573,54.0269 60.9063,55.0269 59.5,55.5C 59.427,53.9731 60.0937,52.9731 61.5,52.5 Z"/></g>
<g><path style="opacity:0.251" fill="#ede2d9" d="M 103.5,54.5 C 103.027,55.9063 102.027,56.573 100.5,56.5C 100.973,55.0937 101.973,54.427 103.5,54.5 Z"/></g>
<g><path style="opacity:0.459" fill="#f1d6c5" d="M 383.5,52.5 C 384.674,53.5137 385.34,54.847 385.5,56.5C 383.896,55.713 383.229,54.3797 383.5,52.5 Z"/></g>
<g><path style="opacity:0.196" fill="#f9f1e9" d="M 59.5,55.5 C 59.5979,57.5529 58.9313,59.2196 57.5,60.5C 57.4021,58.4471 58.0687,56.7804 59.5,55.5 Z"/></g>
<g><path style="opacity:0.588" fill="#ebd7ca" d="M 344.5,56.5 C 346.749,57.0798 348.415,58.4131 349.5,60.5C 347.251,59.9202 345.585,58.5869 344.5,56.5 Z"/></g>
<g><path style="opacity:0.196" fill="#f8f4f6" d="M 99.5,57.5 C 99.0269,58.9063 98.0269,59.573 96.5,59.5C 96.9731,58.0937 97.9731,57.427 99.5,57.5 Z"/></g>
<g><path style="opacity:0.71" fill="#f4d2bc" d="M 349.5,60.5 C 351.027,60.427 352.027,61.0937 352.5,62.5C 350.973,62.573 349.973,61.9063 349.5,60.5 Z"/></g>
<g><path style="opacity:0.271" fill="#eeded6" d="M 96.5,59.5 C 94.5,62.1667 92.1667,64.5 89.5,66.5C 90.8333,63.1667 93.1667,60.8333 96.5,59.5 Z"/></g>
<g><path style="opacity:0.216" fill="#f5ddd1" d="M 352.5,62.5 C 354.262,63.2623 355.262,64.5956 355.5,66.5C 353.738,65.7377 352.738,64.4044 352.5,62.5 Z"/></g>
<g><path style="opacity:1" fill="#e89f72" d="M 385.5,56.5 C 387.472,59.0836 388.472,62.0836 388.5,65.5C 387.351,65.2089 386.684,64.3756 386.5,63C 385.923,60.863 385.59,58.6963 385.5,56.5 Z"/></g>
<g><path style="opacity:0.945" fill="#ebba9d" d="M 57.5,60.5 C 57.5797,63.7814 56.913,66.7814 55.5,69.5C 55.4203,66.2186 56.087,63.2186 57.5,60.5 Z"/></g>
<g><path style="opacity:0.196" fill="#fcf1ea" d="M 355.5,66.5 C 356.906,66.9731 357.573,67.9731 357.5,69.5C 356.094,69.0269 355.427,68.0269 355.5,66.5 Z"/></g>
<g><path style="opacity:0.4" fill="#ecd9d0" d="M 88.5,67.5 C 88.3404,69.153 87.6737,70.4863 86.5,71.5C 86.2291,69.6203 86.8958,68.287 88.5,67.5 Z"/></g>
<g><path style="opacity:0.494" fill="#f7dbc8" d="M 357.5,69.5 C 359.534,71.6548 359.867,73.9882 358.5,76.5C 358.326,74.139 357.993,71.8056 357.5,69.5 Z"/></g>
<g><path style="opacity:0.365" fill="#f5e5d9" d="M 358.5,76.5 C 358.445,79.6145 357.112,81.9478 354.5,83.5C 355.584,80.9959 356.917,78.6626 358.5,76.5 Z"/></g>
<g><path style="opacity:0.851" fill="#f5d3be" d="M 88.5,81.5 C 91.1667,83.5 93.5,85.8333 95.5,88.5C 92.1667,87.1667 89.8333,84.8333 88.5,81.5 Z"/></g>
<g><path style="opacity:0.796" fill="#e7bca2" d="M 354.5,83.5 C 354.167,85.8333 352.833,87.1667 350.5,87.5C 351.5,85.8333 352.833,84.5 354.5,83.5 Z"/></g>
<g><path style="opacity:0.478" fill="#edd9cc" d="M 350.5,87.5 C 347.875,90.8152 344.542,93.1486 340.5,94.5C 343.475,91.6771 346.808,89.3437 350.5,87.5 Z"/></g>
<g><path style="opacity:0.196" fill="#f7e6de" d="M 96.5,89.5 C 98.0269,89.427 99.0269,90.0937 99.5,91.5C 97.9731,91.573 96.9731,90.9063 96.5,89.5 Z"/></g>
<g><path style="opacity:0.263" fill="#ebded7" d="M 99.5,91.5 C 101.027,91.427 102.027,92.0937 102.5,93.5C 100.973,93.573 99.9731,92.9063 99.5,91.5 Z"/></g>
<g><path style="opacity:0.431" fill="#ead2c4" d="M 102.5,93.5 C 104.674,93.7497 106.341,94.7497 107.5,96.5C 105.326,96.2503 103.659,95.2503 102.5,93.5 Z"/></g>
<g><path style="opacity:0.357" fill="#f6e1d5" d="M 340.5,94.5 C 339.341,96.2503 337.674,97.2503 335.5,97.5C 335.167,97.5 334.833,97.5 334.5,97.5C 336.181,95.9925 338.181,94.9925 340.5,94.5 Z"/></g>
<g><path style="opacity:0.392" fill="#eedbd1" d="M 107.5,96.5 C 110.912,97.0421 113.912,98.3754 116.5,100.5C 113.088,99.9579 110.088,98.6246 107.5,96.5 Z"/></g>
<g><path style="opacity:1" fill="#eaac86" d="M 334.5,97.5 C 334.833,97.5 335.167,97.5 335.5,97.5C 333.91,99.821 331.577,100.821 328.5,100.5C 330.181,98.9925 332.181,97.9925 334.5,97.5 Z"/></g>
<g><path style="opacity:0.278" fill="#ebddd7" d="M 328.5,100.5 C 327.22,101.931 325.553,102.598 323.5,102.5C 324.78,101.069 326.447,100.402 328.5,100.5 Z"/></g>
<g><path style="opacity:0.384" fill="#f1dcce" d="M 121.5,102.5 C 124.443,102.98 127.11,103.98 129.5,105.5C 126.351,105.585 123.684,104.585 121.5,102.5 Z"/></g>
<g><path style="opacity:0.918" fill="#f1c9b2" d="M 323.5,102.5 C 321.316,104.585 318.649,105.585 315.5,105.5C 317.89,103.98 320.557,102.98 323.5,102.5 Z"/></g>
<g><path style="opacity:0.6" fill="#efcfb8" d="M 129.5,105.5 C 131.786,105.595 133.786,106.262 135.5,107.5C 133.102,107.741 131.102,107.074 129.5,105.5 Z"/></g>
<g><path style="opacity:0.953" fill="#f1c0a3" d="M 315.5,105.5 C 312.619,107.68 309.286,108.68 305.5,108.5C 308.619,107.13 311.952,106.13 315.5,105.5 Z"/></g>
<g><path style="opacity:0.216" fill="#fadccb" d="M 147.5,110.5 C 150.373,110.802 153.039,111.469 155.5,112.5C 152.447,112.889 149.78,112.223 147.5,110.5 Z"/></g>
<g><path style="opacity:0.886" fill="#e9c6b3" d="M 297.5,110.5 C 295.162,112.04 292.495,112.706 289.5,112.5C 291.905,111.232 294.572,110.565 297.5,110.5 Z"/></g>
<g><path style="opacity:0.357" fill="#ecd7cc" d="M 156.5,112.5 C 162.358,113.141 168.025,114.141 173.5,115.5C 167.511,115.633 161.844,114.633 156.5,112.5 Z"/></g>
<g><path style="opacity:0.702" fill="#f1d0ba" d="M 283.5,113.5 C 279.79,115.136 275.79,115.802 271.5,115.5C 275.295,114.383 279.295,113.717 283.5,113.5 Z"/></g>
<g><path style="opacity:0.58" fill="#f3d6c3" d="M 175.5,115.5 C 180.353,115.813 185.02,116.479 189.5,117.5C 184.547,117.877 179.881,117.211 175.5,115.5 Z"/></g>
<g><path style="opacity:0.886" fill="#f2ccb4" d="M 271.5,115.5 C 266.084,117.117 260.417,117.784 254.5,117.5C 259.973,116.383 265.64,115.717 271.5,115.5 Z"/></g>
<g><path style="opacity:0.584" fill="#ecc4ab" d="M 191.5,117.5 C 207.489,118.252 223.489,118.585 239.5,118.5C 233.509,119.166 227.343,119.5 221,119.5C 210.958,119.636 201.125,118.969 191.5,117.5 Z"/></g>
<g><path style="opacity:0.992" fill="#e5996a" d="M 388.5,65.5 C 389.234,76.0109 389.901,86.6775 390.5,97.5C 390.34,177.02 390.34,256.52 390.5,336C 389.95,339.324 389.283,342.491 388.5,345.5C 388.5,252.167 388.5,158.833 388.5,65.5 Z"/></g>
<g><path style="opacity:0.216" fill="#f8eae3" d="M 87.5,120.5 C 90.3311,121.079 92.6644,122.412 94.5,124.5C 91.6689,123.921 89.3356,122.588 87.5,120.5 Z"/></g>
<g><path style="opacity:0.682" fill="#f3d9c9" d="M 672.5,123.5 C 662.11,123.386 651.777,124.052 641.5,125.5C 651.716,122.655 662.05,121.988 672.5,123.5 Z"/></g>
<g><path style="opacity:0.31" fill="#f7ede4" d="M 94.5,124.5 C 96.3797,124.229 97.713,124.896 98.5,126.5C 96.847,126.34 95.5137,125.674 94.5,124.5 Z"/></g>
<g><path style="opacity:0.325" fill="#ebded7" d="M 353.5,122.5 C 350.086,125.54 346.086,127.54 341.5,128.5C 345.182,125.992 349.182,123.992 353.5,122.5 Z"/></g>
<g><path style="opacity:0.243" fill="#f9e3d6" d="M 685.5,125.5 C 690.289,125.654 694.622,126.987 698.5,129.5C 693.951,128.537 689.617,127.204 685.5,125.5 Z"/></g>
<g><path style="opacity:1" fill="#db7736" d="M 507.5,157.5 C 499.056,157.447 494.89,161.447 495,169.5C 495.383,170.056 495.883,170.389 496.5,170.5C 496.738,172.404 497.738,173.738 499.5,174.5C 499.833,175.5 500.5,176.167 501.5,176.5C 503.239,179.243 505.573,181.243 508.5,182.5C 508.5,183.5 508.5,184.5 508.5,185.5C 511.406,185.957 514.072,186.957 516.5,188.5C 517.167,188.5 517.5,188.833 517.5,189.5C 518.262,191.262 519.596,192.262 521.5,192.5C 522.262,194.262 523.596,195.262 525.5,195.5C 526.167,195.5 526.5,195.833 526.5,196.5C 527.585,198.587 529.251,199.92 531.5,200.5C 532.911,202.914 534.911,204.581 537.5,205.5C 538.5,205.833 539.167,206.5 539.5,207.5C 542.167,210.833 545.167,213.833 548.5,216.5C 549.08,218.749 550.413,220.415 552.5,221.5C 552.738,223.404 553.738,224.738 555.5,225.5C 556.338,225.842 556.672,226.508 556.5,227.5C 556.427,229.027 557.094,230.027 558.5,230.5C 559.404,231.209 559.737,232.209 559.5,233.5C 559.804,236.522 560.304,239.522 561,242.5C 561.383,243.056 561.883,243.389 562.5,243.5C 563.163,245.641 563.497,247.975 563.5,250.5C 563.637,254.447 562.97,258.114 561.5,261.5C 560.262,263.214 559.595,265.214 559.5,267.5C 558.094,267.973 557.427,268.973 557.5,270.5C 557.672,271.492 557.338,272.158 556.5,272.5C 555.5,273.167 554.5,273.833 553.5,274.5C 551.952,274.821 551.285,275.821 551.5,277.5C 550.127,277.343 548.793,277.51 547.5,278C 548.252,278.671 548.586,279.504 548.5,280.5C 547.5,280.833 546.833,281.5 546.5,282.5C 546.5,283.167 546.167,283.5 545.5,283.5C 543.973,283.427 542.973,284.094 542.5,285.5C 542.158,286.338 541.492,286.672 540.5,286.5C 536.848,286.513 533.848,287.847 531.5,290.5C 528.848,290.41 526.515,291.076 524.5,292.5C 503.576,293.488 482.576,293.821 461.5,293.5C 461.5,282.5 461.5,271.5 461.5,260.5C 478.332,261.469 494.998,261.469 511.5,260.5C 513.265,259.539 515.265,259.205 517.5,259.5C 520.01,259.946 522.01,259.28 523.5,257.5C 525.833,257.167 527.167,255.833 527.5,253.5C 527.5,252.833 527.5,252.167 527.5,251.5C 527.539,248.911 526.539,246.911 524.5,245.5C 523.833,245.5 523.5,245.167 523.5,244.5C 522.581,241.911 520.914,239.911 518.5,238.5C 517.738,236.738 516.404,235.738 514.5,235.5C 512.761,232.757 510.427,230.757 507.5,229.5C 506.089,227.086 504.089,225.419 501.5,224.5C 500.415,222.413 498.749,221.08 496.5,220.5C 495.833,219.167 494.833,218.167 493.5,217.5C 491.761,214.757 489.427,212.757 486.5,211.5C 485.833,210.167 484.833,209.167 483.5,208.5C 480.833,206.5 478.5,204.167 476.5,201.5C 476.262,199.596 475.262,198.262 473.5,197.5C 473.573,195.973 472.906,194.973 471.5,194.5C 471.573,192.973 470.906,191.973 469.5,191.5C 469.573,189.973 468.906,188.973 467.5,188.5C 466.326,187.486 465.66,186.153 465.5,184.5C 465.598,182.447 464.931,180.78 463.5,179.5C 462.596,178.791 462.263,177.791 462.5,176.5C 462.741,174.102 462.074,172.102 460.5,170.5C 459.167,163.167 459.167,155.833 460.5,148.5C 461.674,147.486 462.34,146.153 462.5,144.5C 462.328,143.508 462.662,142.842 463.5,142.5C 466.5,140.167 469.167,137.5 471.5,134.5C 473.027,134.573 474.027,133.906 474.5,132.5C 475.514,131.326 476.847,130.66 478.5,130.5C 480.553,130.598 482.22,129.931 483.5,128.5C 486.152,128.59 488.485,127.924 490.5,126.5C 512.696,125.181 534.863,125.181 557,126.5C 557.819,137.077 557.652,147.577 556.5,158C 540.208,156.564 523.875,156.397 507.5,157.5 Z"/></g>
<g><path style="opacity:0.98" fill="#ecbc9f" d="M 641.5,125.5 C 639.562,127.163 637.228,127.829 634.5,127.5C 636.599,126.388 638.933,125.721 641.5,125.5 Z"/></g>
<g><path style="opacity:1" fill="#db7634" d="M 672.5,123.5 C 677.1,123.28 681.433,123.946 685.5,125.5C 689.617,127.204 693.951,128.537 698.5,129.5C 701.515,131.674 704.849,133.341 708.5,134.5C 708.973,135.906 709.973,136.573 711.5,136.5C 713.027,136.427 714.027,137.094 714.5,138.5C 715.262,140.262 716.596,141.262 718.5,141.5C 720.833,144.5 723.5,147.167 726.5,149.5C 727.5,149.833 728.167,150.5 728.5,151.5C 728.738,153.404 729.738,154.738 731.5,155.5C 731.427,157.027 732.094,158.027 733.5,158.5C 734.401,159.29 735.068,160.29 735.5,161.5C 736.536,163.391 736.536,165.224 735.5,167C 736.901,167.41 738.234,167.91 739.5,168.5C 739.12,170.698 739.787,172.365 741.5,173.5C 742.537,174.93 743.204,176.597 743.5,178.5C 743.171,181.228 743.837,183.562 745.5,185.5C 746.907,189.683 747.574,194.016 747.5,198.5C 747.619,209.518 747.286,220.518 746.5,231.5C 746.258,235.479 745.258,239.146 743.5,242.5C 741.935,244.509 740.935,246.843 740.5,249.5C 738.659,251.849 737.326,254.515 736.5,257.5C 733.759,259.975 731.759,262.975 730.5,266.5C 730.5,267.167 730.167,267.5 729.5,267.5C 727.738,268.262 726.738,269.596 726.5,271.5C 725.833,272.833 724.833,273.833 723.5,274.5C 722.167,275.167 721.167,276.167 720.5,277.5C 720.167,278.5 719.5,279.167 718.5,279.5C 716.251,280.08 714.585,281.413 713.5,283.5C 713.027,284.906 712.027,285.573 710.5,285.5C 708.973,285.427 707.973,286.094 707.5,287.5C 707.158,288.338 706.492,288.672 705.5,288.5C 703.181,288.992 701.181,289.992 699.5,291.5C 698.22,292.931 696.553,293.598 694.5,293.5C 692.214,293.595 690.214,294.262 688.5,295.5C 686.533,295.261 684.699,295.594 683,296.5C 682.5,303.158 682.334,309.825 682.5,316.5C 672.167,316.5 661.833,316.5 651.5,316.5C 651.5,290.167 651.5,263.833 651.5,237.5C 661.167,237.5 670.833,237.5 680.5,237.5C 680.5,244.833 680.5,252.167 680.5,259.5C 682.553,259.598 684.22,258.931 685.5,257.5C 688.313,257.975 690.313,256.975 691.5,254.5C 693.027,254.573 694.027,253.906 694.5,252.5C 695.167,251.167 696.167,250.167 697.5,249.5C 699.587,248.415 700.92,246.749 701.5,244.5C 704.843,242.503 706.51,239.503 706.5,235.5C 708.104,234.713 708.771,233.38 708.5,231.5C 710.975,228.749 711.975,225.416 711.5,221.5C 711.323,217.766 711.656,214.099 712.5,210.5C 713.251,203.285 711.918,196.618 708.5,190.5C 708.598,188.447 707.931,186.78 706.5,185.5C 706.25,183.326 705.25,181.659 703.5,180.5C 702.99,177.326 701.323,174.992 698.5,173.5C 696.5,169.5 693.5,166.5 689.5,164.5C 689.027,163.094 688.027,162.427 686.5,162.5C 685.508,162.672 684.842,162.338 684.5,161.5C 683.713,159.896 682.38,159.229 680.5,159.5C 679.365,157.787 677.698,157.12 675.5,157.5C 673.097,157.552 670.764,157.219 668.5,156.5C 662.311,155.053 656.311,155.719 650.5,158.5C 648.447,158.402 646.78,159.069 645.5,160.5C 644.486,161.674 643.153,162.34 641.5,162.5C 639.596,162.738 638.262,163.738 637.5,165.5C 635.596,165.738 634.262,166.738 633.5,168.5C 633.167,169.5 632.5,170.167 631.5,170.5C 628.757,172.239 626.757,174.573 625.5,177.5C 622.836,179.484 621.169,182.151 620.5,185.5C 620.672,186.492 620.338,187.158 619.5,187.5C 617.415,189.684 616.415,192.351 616.5,195.5C 616.768,197.099 616.434,198.432 615.5,199.5C 614.016,203.054 613.349,206.888 613.5,211C 613.503,213.69 613.836,216.19 614.5,218.5C 615.301,220.042 615.634,221.708 615.5,223.5C 615.054,226.01 615.72,228.01 617.5,229.5C 617.248,232.32 617.748,234.986 619,237.5C 619.77,236.402 620.603,236.402 621.5,237.5C 622.488,238.795 623.488,240.128 624.5,241.5C 625.757,244.427 627.757,246.761 630.5,248.5C 630.833,248.5 631.167,248.5 631.5,248.5C 633.731,251.392 636.564,253.726 640,255.5C 640.5,267.495 640.667,279.495 640.5,291.5C 638.833,291.5 637.167,291.5 635.5,291.5C 634.22,290.069 632.553,289.402 630.5,289.5C 626.849,288.341 623.515,286.674 620.5,284.5C 620.027,283.094 619.027,282.427 617.5,282.5C 615.704,280.1 613.37,278.433 610.5,277.5C 608.431,274.427 605.764,272.094 602.5,270.5C 601.92,268.251 600.587,266.585 598.5,265.5C 597.833,265.5 597.5,265.167 597.5,264.5C 597.167,263.5 596.5,262.833 595.5,262.5C 595.262,260.596 594.262,259.262 592.5,258.5C 592.573,256.973 591.906,255.973 590.5,255.5C 590.25,253.326 589.25,251.659 587.5,250.5C 586.326,249.486 585.66,248.153 585.5,246.5C 585.293,243.759 584.293,241.426 582.5,239.5C 582.074,235.573 581.074,231.907 579.5,228.5C 577.96,222.749 577.294,216.749 577.5,210.5C 577.32,203.928 577.986,197.595 579.5,191.5C 580.945,188.063 581.945,184.397 582.5,180.5C 584.897,177.691 586.23,174.358 586.5,170.5C 589.58,169.958 590.913,167.625 590.5,163.5C 591.906,163.027 592.573,162.027 592.5,160.5C 593.906,160.027 594.573,159.027 594.5,157.5C 596.587,156.415 597.92,154.749 598.5,152.5C 603.526,147.805 608.526,143.139 613.5,138.5C 615.027,138.573 616.027,137.906 616.5,136.5C 618.027,136.573 619.027,135.906 619.5,134.5C 619.842,133.662 620.508,133.328 621.5,133.5C 623.819,133.008 625.819,132.008 627.5,130.5C 630.491,130.834 632.824,129.834 634.5,127.5C 637.228,127.829 639.562,127.163 641.5,125.5C 651.777,124.052 662.11,123.386 672.5,123.5 Z"/></g>
<g><path style="opacity:0.298" fill="#ecdad2" d="M 98.5,126.5 C 101.241,126.707 103.574,127.707 105.5,129.5C 102.759,129.293 100.426,128.293 98.5,126.5 Z"/></g>
<g><path style="opacity:0.176" fill="#faebe3" d="M 490.5,126.5 C 488.485,127.924 486.152,128.59 483.5,128.5C 485.515,127.076 487.848,126.41 490.5,126.5 Z"/></g>
<g><path style="opacity:1" fill="#dc7737" d="M 764.5,125.5 C 776.5,125.5 788.5,125.5 800.5,125.5C 800.184,164.864 800.518,204.197 801.5,243.5C 801.157,245.483 801.824,246.817 803.5,247.5C 804.08,249.749 805.413,251.415 807.5,252.5C 808.492,252.328 809.158,252.662 809.5,253.5C 810.78,254.931 812.447,255.598 814.5,255.5C 823.999,255.949 833.332,256.615 842.5,257.5C 842.5,269.167 842.5,280.833 842.5,292.5C 825.167,292.5 807.833,292.5 790.5,292.5C 787.458,292.267 784.792,291.267 782.5,289.5C 782.027,288.094 781.027,287.427 779.5,287.5C 777.833,285.167 775.833,283.167 773.5,281.5C 772.833,281.5 772.5,281.167 772.5,280.5C 772.573,278.973 771.906,277.973 770.5,277.5C 767.973,272.085 766.14,266.418 765,260.5C 764.5,215.501 764.333,170.501 764.5,125.5 Z"/></g>
<g><path style="opacity:1" fill="#e8c4ae" d="M 105.5,129.5 C 109.327,129.752 112.66,131.085 115.5,133.5C 111.863,132.737 108.53,131.403 105.5,129.5 Z"/></g>
<g><path style="opacity:0.278" fill="#f8e4d4" d="M 341.5,128.5 C 340.22,129.931 338.553,130.598 336.5,130.5C 337.78,129.069 339.447,128.402 341.5,128.5 Z"/></g>
<g><path style="opacity:0.267" fill="#f8e5de" d="M 483.5,128.5 C 482.22,129.931 480.553,130.598 478.5,130.5C 479.78,129.069 481.447,128.402 483.5,128.5 Z"/></g>
<g><path style="opacity:1" fill="#e6a67e" d="M 634.5,127.5 C 632.824,129.834 630.491,130.834 627.5,130.5C 629.509,128.935 631.843,127.935 634.5,127.5 Z"/></g>
<g><path style="opacity:0.337" fill="#edd8cb" d="M 627.5,130.5 C 625.819,132.008 623.819,133.008 621.5,133.5C 622.911,131.461 624.911,130.461 627.5,130.5 Z"/></g>
<g><path style="opacity:0.29" fill="#f9e3d7" d="M 336.5,130.5 C 335.22,131.931 333.553,132.598 331.5,132.5C 332.78,131.069 334.447,130.402 336.5,130.5 Z"/></g>
<g><path style="opacity:0.365" fill="#ecd5c8" d="M 698.5,129.5 C 702.42,130.127 705.753,131.793 708.5,134.5C 704.849,133.341 701.515,131.674 698.5,129.5 Z"/></g>
<g><path style="opacity:1" fill="#ebb8a1" d="M 115.5,133.5 C 118.01,133.054 120.01,133.72 121.5,135.5C 119.214,135.405 117.214,134.738 115.5,133.5 Z"/></g>
<g><path style="opacity:0.682" fill="#ecd0bf" d="M 474.5,132.5 C 474.027,133.906 473.027,134.573 471.5,134.5C 471.973,133.094 472.973,132.427 474.5,132.5 Z"/></g>
<g><path style="opacity:0.973" fill="#f7cdb3" d="M 121.5,135.5 C 125.286,135.32 128.619,136.32 131.5,138.5C 127.952,137.87 124.619,136.87 121.5,135.5 Z"/></g>
<g><path style="opacity:0.655" fill="#faddc7" d="M 619.5,134.5 C 619.027,135.906 618.027,136.573 616.5,136.5C 616.973,135.094 617.973,134.427 619.5,134.5 Z"/></g>
<g><path style="opacity:0.412" fill="#f1d6c0" d="M 708.5,134.5 C 710.027,134.427 711.027,135.094 711.5,136.5C 709.973,136.573 708.973,135.906 708.5,134.5 Z"/></g>
<g><path style="opacity:0.635" fill="#fcdfc9" d="M 616.5,136.5 C 616.027,137.906 615.027,138.573 613.5,138.5C 613.973,137.094 614.973,136.427 616.5,136.5 Z"/></g>
<g><path style="opacity:0.29" fill="#f1dfd3" d="M 328.5,133.5 C 322.305,136.72 315.638,138.72 308.5,139.5C 314.976,137.21 321.643,135.21 328.5,133.5 Z"/></g>
<g><path style="opacity:0.773" fill="#edccbb" d="M 471.5,134.5 C 469.167,137.5 466.5,140.167 463.5,142.5C 465.167,138.833 467.833,136.167 471.5,134.5 Z"/></g>
<g><path style="opacity:0.251" fill="#eedfd6" d="M 714.5,138.5 C 716.404,138.738 717.738,139.738 718.5,141.5C 716.596,141.262 715.262,140.262 714.5,138.5 Z"/></g>
<g><path style="opacity:0.356" fill="#f0dfd3" d="M 357.5,120.5 C 357.56,119.957 357.893,119.624 358.5,119.5C 359.666,135.49 359.833,151.49 359,167.5C 358.617,168.056 358.117,168.389 357.5,168.5C 358.81,152.372 358.81,136.372 357.5,120.5 Z"/></g>
<g><path style="opacity:0.565" fill="#edd0be" d="M 764.5,125.5 C 764.333,170.501 764.5,215.501 765,260.5C 766.14,266.418 767.973,272.085 770.5,277.5C 766.896,272.877 764.729,267.543 764,261.5C 763.169,215.998 763.335,170.665 764.5,125.5 Z"/></g>
<g><path style="opacity:0.216" fill="#f5e0d6" d="M 135.5,139.5 C 138.495,139.294 141.162,139.96 143.5,141.5C 140.572,141.435 137.905,140.768 135.5,139.5 Z"/></g>
<g><path style="opacity:0.278" fill="#ecdbd3" d="M 304.5,140.5 C 301.781,141.913 298.781,142.58 295.5,142.5C 298.219,141.087 301.219,140.42 304.5,140.5 Z"/></g>
<g><path style="opacity:0.293" fill="#ede4de" d="M 718.5,141.5 C 722.167,143.167 724.833,145.833 726.5,149.5C 723.5,147.167 720.833,144.5 718.5,141.5 Z"/></g>
<g><path style="opacity:0.271" fill="#f4f1ef" d="M 87.5,120.5 C 86.3388,135.661 86.1721,150.994 87,166.5C 87.7914,167.745 88.2914,169.078 88.5,170.5C 87.2101,169.942 86.3768,168.942 86,167.5C 85.1671,151.49 85.3338,135.49 86.5,119.5C 87.1067,119.624 87.44,119.957 87.5,120.5 Z"/></g>
<g><path style="opacity:0.553" fill="#f8ddc8" d="M 144.5,141.5 C 147.781,141.42 150.781,142.087 153.5,143.5C 150.219,143.58 147.219,142.913 144.5,141.5 Z"/></g>
<g><path style="opacity:0.459" fill="#ebdbd1" d="M 613.5,138.5 C 608.526,143.139 603.526,147.805 598.5,152.5C 602.217,146.45 607.217,141.783 613.5,138.5 Z"/></g>
<g><path style="opacity:0.973" fill="#ecbfa3" d="M 166.5,145.5 C 175.702,145.944 184.702,146.944 193.5,148.5C 184.263,148.385 175.263,147.385 166.5,145.5 Z"/></g>
<g><path style="opacity:0.188" fill="#fbede4" d="M 462.5,144.5 C 462.34,146.153 461.674,147.486 460.5,148.5C 460.229,146.62 460.896,145.287 462.5,144.5 Z"/></g>
<g><path style="opacity:0.553" fill="#ebd7c8" d="M 728.5,151.5 C 730.262,152.262 731.262,153.596 731.5,155.5C 729.738,154.738 728.738,153.404 728.5,151.5 Z"/></g>
<g><path style="opacity:0.318" fill="#f7ded2" d="M 598.5,152.5 C 597.92,154.749 596.587,156.415 594.5,157.5C 595.08,155.251 596.413,153.585 598.5,152.5 Z"/></g>
<g><path style="opacity:0.29" fill="#edd8cc" d="M 668.5,156.5 C 662.42,156.517 656.42,157.183 650.5,158.5C 656.311,155.719 662.311,155.053 668.5,156.5 Z"/></g>
<g><path style="opacity:0.906" fill="#efc3ae" d="M 675.5,157.5 C 677.698,157.12 679.365,157.787 680.5,159.5C 678.597,159.204 676.93,158.537 675.5,157.5 Z"/></g>
<g><path style="opacity:0.506" fill="#e8cfc2" d="M 731.5,155.5 C 732.906,155.973 733.573,156.973 733.5,158.5C 732.094,158.027 731.427,157.027 731.5,155.5 Z"/></g>
<g><path style="opacity:0.796" fill="#f7cfb7" d="M 594.5,157.5 C 594.573,159.027 593.906,160.027 592.5,160.5C 592.427,158.973 593.094,157.973 594.5,157.5 Z"/></g>
<g><path style="opacity:0.196" fill="#f1e7e6" d="M 650.5,158.5 C 649.22,159.931 647.553,160.598 645.5,160.5C 646.78,159.069 648.447,158.402 650.5,158.5 Z"/></g>
<g><path style="opacity:0.298" fill="#fbf0eb" d="M 680.5,159.5 C 682.38,159.229 683.713,159.896 684.5,161.5C 682.847,161.34 681.514,160.674 680.5,159.5 Z"/></g>
<g><path style="opacity:0.553" fill="#ebcab7" d="M 592.5,160.5 C 592.573,162.027 591.906,163.027 590.5,163.5C 590.427,161.973 591.094,160.973 592.5,160.5 Z"/></g>
<g><path style="opacity:0.325" fill="#fbe9e1" d="M 686.5,162.5 C 688.027,162.427 689.027,163.094 689.5,164.5C 687.973,164.573 686.973,163.906 686.5,162.5 Z"/></g>
<g><path style="opacity:0.278" fill="#f2e6e0" d="M 641.5,162.5 C 640.738,164.262 639.404,165.262 637.5,165.5C 638.262,163.738 639.596,162.738 641.5,162.5 Z"/></g>
<g><path style="opacity:0.655" fill="#fadac7" d="M 689.5,164.5 C 693.5,166.5 696.5,169.5 698.5,173.5C 695.167,170.833 692.167,167.833 689.5,164.5 Z"/></g>
<g><path style="opacity:0.176" fill="#f8e6dd" d="M 507.5,157.5 C 503.047,158.65 499.214,160.984 496,164.5C 495.51,166.545 495.677,168.545 496.5,170.5C 495.883,170.389 495.383,170.056 495,169.5C 494.89,161.447 499.056,157.447 507.5,157.5 Z"/></g>
<g><path style="opacity:0.271" fill="#ede3de" d="M 637.5,165.5 C 636.738,167.262 635.404,168.262 633.5,168.5C 634.262,166.738 635.596,165.738 637.5,165.5 Z"/></g>
<g><path style="opacity:1" fill="#f3bb9b" d="M 735.5,161.5 C 737.588,163.336 738.921,165.669 739.5,168.5C 738.234,167.91 736.901,167.41 735.5,167C 736.536,165.224 736.536,163.391 735.5,161.5 Z"/></g>
<g><path style="opacity:1" fill="#e8a77e" d="M 590.5,163.5 C 590.913,167.625 589.58,169.958 586.5,170.5C 587.079,167.669 588.412,165.336 590.5,163.5 Z"/></g>
<g><path style="opacity:0.357" fill="#efe7dc" d="M 357.5,168.5 C 357.573,170.027 356.906,171.027 355.5,171.5C 355.427,169.973 356.094,168.973 357.5,168.5 Z"/></g>
<g><path style="opacity:1" fill="#e9bca2" d="M 739.5,168.5 C 740.931,169.78 741.598,171.447 741.5,173.5C 739.787,172.365 739.12,170.698 739.5,168.5 Z"/></g>
<g><path style="opacity:0.286" fill="#fdede6" d="M 496.5,170.5 C 498.262,171.262 499.262,172.596 499.5,174.5C 497.738,173.738 496.738,172.404 496.5,170.5 Z"/></g>
<g><path style="opacity:0.588" fill="#ebcfbe" d="M 355.5,171.5 C 355.262,173.404 354.262,174.738 352.5,175.5C 352.738,173.596 353.738,172.262 355.5,171.5 Z"/></g>
<g><path style="opacity:0.616" fill="#e6c8b4" d="M 460.5,170.5 C 462.074,172.102 462.741,174.102 462.5,176.5C 461.262,174.786 460.595,172.786 460.5,170.5 Z"/></g>
<g><path style="opacity:0.235" fill="#eee1db" d="M 631.5,170.5 C 630.243,173.427 628.243,175.761 625.5,177.5C 626.757,174.573 628.757,172.239 631.5,170.5 Z"/></g>
<g><path style="opacity:0.357" fill="#f9e6dd" d="M 88.5,170.5 C 91.5,172.833 94.1667,175.5 96.5,178.5C 92.8333,176.833 90.1667,174.167 88.5,170.5 Z"/></g>
<g><path style="opacity:0.196" fill="#e8e7e8" d="M 499.5,174.5 C 500.833,174.5 501.5,175.167 501.5,176.5C 500.5,176.167 499.833,175.5 499.5,174.5 Z"/></g>
<g><path style="opacity:1" fill="#e6aa83" d="M 586.5,170.5 C 586.23,174.358 584.897,177.691 582.5,180.5C 582.872,176.703 584.206,173.37 586.5,170.5 Z"/></g>
<g><path style="opacity:0.796" fill="#e4baa5" d="M 351.5,176.5 C 351.027,177.906 350.027,178.573 348.5,178.5C 348.973,177.094 349.973,176.427 351.5,176.5 Z"/></g>
<g><path style="opacity:0.278" fill="#f6e0d1" d="M 501.5,176.5 C 504.427,177.757 506.761,179.757 508.5,182.5C 505.573,181.243 503.239,179.243 501.5,176.5 Z"/></g>
<g><path style="opacity:0.29" fill="#f2e2d9" d="M 698.5,173.5 C 701.323,174.992 702.99,177.326 703.5,180.5C 701.453,178.45 699.786,176.117 698.5,173.5 Z"/></g>
<g><path style="opacity:0.243" fill="#f6e7dd" d="M 97.5,179.5 C 99.0269,179.427 100.027,180.094 100.5,181.5C 98.9731,181.573 97.9731,180.906 97.5,179.5 Z"/></g>
<g><path style="opacity:0.208" fill="#f9e7dd" d="M 463.5,179.5 C 464.931,180.78 465.598,182.447 465.5,184.5C 464.069,183.22 463.402,181.553 463.5,179.5 Z"/></g>
<g><path style="opacity:0.4" fill="#eddcd4" d="M 348.5,178.5 C 346.704,180.9 344.37,182.567 341.5,183.5C 343.296,181.1 345.63,179.433 348.5,178.5 Z"/></g>
<g><path style="opacity:0.204" fill="#fcf5ee" d="M 100.5,181.5 C 102.674,181.75 104.341,182.75 105.5,184.5C 103.326,184.25 101.659,183.25 100.5,181.5 Z"/></g>
<g><path style="opacity:0.898" fill="#f2c7b3" d="M 743.5,178.5 C 744.612,180.599 745.279,182.933 745.5,185.5C 743.837,183.562 743.171,181.228 743.5,178.5 Z"/></g>
<g><path style="opacity:0.196" fill="#fbf0ea" d="M 703.5,180.5 C 705.25,181.659 706.25,183.326 706.5,185.5C 704.75,184.341 703.75,182.674 703.5,180.5 Z"/></g>
<g><path style="opacity:1" fill="#eeb89a" d="M 508.5,182.5 C 511.533,184.016 514.2,186.016 516.5,188.5C 514.072,186.957 511.406,185.957 508.5,185.5C 508.5,184.5 508.5,183.5 508.5,182.5 Z"/></g>
<g><path style="opacity:0.271" fill="#f9e8dc" d="M 625.5,177.5 C 624.331,180.511 622.664,183.178 620.5,185.5C 621.169,182.151 622.836,179.484 625.5,177.5 Z"/></g>
<g><path style="opacity:0.325" fill="#f6e1d6" d="M 107.5,185.5 C 110.485,186.326 113.151,187.659 115.5,189.5C 112.246,189.206 109.579,187.873 107.5,185.5 Z"/></g>
<g><path style="opacity:0.224" fill="#faebe0" d="M 706.5,185.5 C 707.931,186.78 708.598,188.447 708.5,190.5C 707.069,189.22 706.402,187.553 706.5,185.5 Z"/></g>
<g><path style="opacity:0.345" fill="#ebd8cb" d="M 329.5,189.5 C 328.22,190.931 326.553,191.598 324.5,191.5C 325.78,190.069 327.447,189.402 329.5,189.5 Z"/></g>
<g><path style="opacity:0.176" fill="#f7e5db" d="M 517.5,189.5 C 519.404,189.738 520.738,190.738 521.5,192.5C 519.596,192.262 518.262,191.262 517.5,189.5 Z"/></g>
<g><path style="opacity:0.196" fill="#fcebe3" d="M 467.5,188.5 C 468.906,188.973 469.573,189.973 469.5,191.5C 468.094,191.027 467.427,190.027 467.5,188.5 Z"/></g>
<g><path style="opacity:0.643" fill="#f5d8c8" d="M 582.5,180.5 C 581.945,184.397 580.945,188.063 579.5,191.5C 579.432,187.43 580.432,183.763 582.5,180.5 Z"/></g>
<g><path style="opacity:0.4" fill="#e8d3c8" d="M 619.5,187.5 C 619.02,190.443 618.02,193.11 616.5,195.5C 616.415,192.351 617.415,189.684 619.5,187.5 Z"/></g>
<g><path style="opacity:0.384" fill="#eedacf" d="M 117.5,190.5 C 120.542,190.733 123.208,191.733 125.5,193.5C 122.458,193.267 119.792,192.267 117.5,190.5 Z"/></g>
<g><path style="opacity:0.227" fill="#eae3dc" d="M 521.5,192.5 C 523.404,192.738 524.738,193.738 525.5,195.5C 523.596,195.262 522.262,194.262 521.5,192.5 Z"/></g>
<g><path style="opacity:0.345" fill="#f2d6c5" d="M 324.5,191.5 C 322.302,193.397 319.636,194.397 316.5,194.5C 318.848,192.903 321.514,191.903 324.5,191.5 Z"/></g>
<g><path style="opacity:0.259" fill="#fce1d6" d="M 469.5,191.5 C 470.906,191.973 471.573,192.973 471.5,194.5C 470.094,194.027 469.427,193.027 469.5,191.5 Z"/></g>
<g><path style="opacity:0.459" fill="#f3dace" d="M 708.5,190.5 C 711.918,196.618 713.251,203.285 712.5,210.5C 711.821,203.831 710.488,197.165 708.5,190.5 Z"/></g>
<g><path style="opacity:0.58" fill="#e9ccc0" d="M 125.5,193.5 C 127.786,193.595 129.786,194.262 131.5,195.5C 129.102,195.741 127.102,195.074 125.5,193.5 Z"/></g>
<g><path style="opacity:1" fill="#efbb9d" d="M 316.5,194.5 C 313.679,196.712 310.345,197.712 306.5,197.5C 309.619,196.13 312.952,195.13 316.5,194.5 Z"/></g>
<g><path style="opacity:0.149" fill="#f9e9e0" d="M 471.5,194.5 C 472.906,194.973 473.573,195.973 473.5,197.5C 472.094,197.027 471.427,196.027 471.5,194.5 Z"/></g>
<g><path style="opacity:0.635" fill="#e8c9b7" d="M 131.5,195.5 C 133.786,195.595 135.786,196.262 137.5,197.5C 135.102,197.741 133.102,197.074 131.5,195.5 Z"/></g>
<g><path style="opacity:0.196" fill="#f6e3d6" d="M 137.5,197.5 C 140.428,197.565 143.095,198.232 145.5,199.5C 142.505,199.706 139.838,199.04 137.5,197.5 Z"/></g>
<g><path style="opacity:0.306" fill="#f4e0d0" d="M 526.5,196.5 C 528.749,197.08 530.415,198.413 531.5,200.5C 529.251,199.92 527.585,198.587 526.5,196.5 Z"/></g>
<g><path style="opacity:0.58" fill="#f3d8c7" d="M 306.5,197.5 C 303.201,199.483 299.534,200.483 295.5,200.5C 298.907,198.926 302.573,197.926 306.5,197.5 Z"/></g>
<g><path style="opacity:0.176" fill="#f4ebe3" d="M 473.5,197.5 C 475.262,198.262 476.262,199.596 476.5,201.5C 474.738,200.738 473.738,199.404 473.5,197.5 Z"/></g>
<g><path style="opacity:0.251" fill="#ead5ca" d="M 145.5,199.5 C 150.092,199.882 154.425,200.882 158.5,202.5C 153.849,202.373 149.515,201.373 145.5,199.5 Z"/></g>
<g><path style="opacity:0.216" fill="#f6e4db" d="M 295.5,200.5 C 292.456,202.011 289.122,202.678 285.5,202.5C 288.589,201.215 291.922,200.549 295.5,200.5 Z"/></g>
<g><path style="opacity:0.149" fill="#f9eae0" d="M 531.5,200.5 C 534.089,201.419 536.089,203.086 537.5,205.5C 534.911,204.581 532.911,202.914 531.5,200.5 Z"/></g>
<g><path style="opacity:0.373" fill="#f6ddd0" d="M 159.5,202.5 C 165.699,203.089 171.699,204.089 177.5,205.5C 171.196,205.561 165.196,204.561 159.5,202.5 Z"/></g>
<g><path style="opacity:0.98" fill="#eabb9f" d="M 279.5,203.5 C 275.79,205.136 271.79,205.802 267.5,205.5C 271.295,204.383 275.295,203.717 279.5,203.5 Z"/></g>
<g><path style="opacity:0.878" fill="#efc8b1" d="M 267.5,205.5 C 260.73,207.075 253.73,207.741 246.5,207.5C 253.309,206.348 260.309,205.681 267.5,205.5 Z"/></g>
<g><path style="opacity:0.345" fill="#ead5c9" d="M 177.5,205.5 C 184.691,205.681 191.691,206.348 198.5,207.5C 191.27,207.741 184.27,207.075 177.5,205.5 Z"/></g>
<g><path style="opacity:0.267" fill="#f1ded3" d="M 539.5,207.5 C 543.5,209.5 546.5,212.5 548.5,216.5C 545.167,213.833 542.167,210.833 539.5,207.5 Z"/></g>
<g><path style="opacity:0.729" fill="#ecc3ab" d="M 747.5,198.5 C 748.166,202.653 748.499,206.987 748.5,211.5C 748.654,218.398 747.987,225.064 746.5,231.5C 747.286,220.518 747.619,209.518 747.5,198.5 Z"/></g>
<g><path style="opacity:0.188" fill="#fef8f6" d="M 483.5,208.5 C 484.833,209.167 485.833,210.167 486.5,211.5C 484.5,211.5 483.5,210.5 483.5,208.5 Z"/></g>
<g><path style="opacity:0.812" fill="#f4d1bd" d="M 486.5,211.5 C 489.427,212.757 491.761,214.757 493.5,217.5C 490.573,216.243 488.239,214.243 486.5,211.5 Z"/></g>
<g><path style="opacity:0.31" fill="#f4d5c5" d="M 615.5,199.5 C 614.74,205.804 614.407,212.137 614.5,218.5C 613.836,216.19 613.503,213.69 613.5,211C 613.349,206.888 614.016,203.054 615.5,199.5 Z"/></g>
<g><path style="opacity:0.278" fill="#fae8e0" d="M 92.5,212.5 C 94.0269,212.427 95.0269,213.094 95.5,214.5C 93.9731,214.573 92.9731,213.906 92.5,212.5 Z"/></g>
<g><path style="opacity:0.251" fill="#fbebe2" d="M 96.5,214.5 C 98.0269,214.427 99.0269,215.094 99.5,216.5C 97.9731,216.573 96.9731,215.906 96.5,214.5 Z"/></g>
<g><path style="opacity:0.58" fill="#ecd0bf" d="M 346.5,215.5 C 343.912,217.625 340.912,218.958 337.5,219.5C 340.088,217.375 343.088,216.042 346.5,215.5 Z"/></g>
<g><path style="opacity:0.176" fill="#f7eae7" d="M 493.5,217.5 C 494.833,218.167 495.833,219.167 496.5,220.5C 494.5,220.5 493.5,219.5 493.5,217.5 Z"/></g>
<g><path style="opacity:1" fill="#efbc9d" d="M 107.5,219.5 C 110.491,219.166 112.824,220.166 114.5,222.5C 111.843,222.065 109.509,221.065 107.5,219.5 Z"/></g>
<g><path style="opacity:0.356" fill="#f0e1d5" d="M 358.5,255.5 C 358.833,240.485 358.499,225.485 357.5,210.5C 356.583,211.127 355.583,211.461 354.5,211.5C 355.406,210.035 356.739,209.035 358.5,208.5C 359.827,224.328 359.827,239.995 358.5,255.5 Z"/></g>
<g><path style="opacity:0.384" fill="#f5d7c1" d="M 548.5,216.5 C 550.587,217.585 551.92,219.251 552.5,221.5C 550.413,220.415 549.08,218.749 548.5,216.5 Z"/></g>
<g><path style="opacity:0.271" fill="#f3f4f2" d="M 88.5,210.5 C 86.5163,225.129 85.8497,240.129 86.5,255.5C 85.1735,239.995 85.1735,224.328 86.5,208.5C 87.5223,208.855 88.189,209.522 88.5,210.5 Z"/></g>
<g><path style="opacity:0.345" fill="#edddd6" d="M 332.5,221.5 C 331.22,222.931 329.553,223.598 327.5,223.5C 328.78,222.069 330.447,221.402 332.5,221.5 Z"/></g>
<g><path style="opacity:0.796" fill="#eec9b3" d="M 114.5,222.5 C 118.044,222.132 121.044,223.132 123.5,225.5C 120.215,225.072 117.215,224.072 114.5,222.5 Z"/></g>
<g><path style="opacity:0.357" fill="#f5d9ca" d="M 496.5,220.5 C 498.749,221.08 500.415,222.413 501.5,224.5C 499.251,223.92 497.585,222.587 496.5,220.5 Z"/></g>
<g><path style="opacity:0.494" fill="#f1d7cb" d="M 552.5,221.5 C 554.262,222.262 555.262,223.596 555.5,225.5C 553.738,224.738 552.738,223.404 552.5,221.5 Z"/></g>
<g><path style="opacity:0.251" fill="#ebddd3" d="M 326.5,223.5 C 324.898,225.074 322.898,225.741 320.5,225.5C 322.214,224.262 324.214,223.595 326.5,223.5 Z"/></g>
<g><path style="opacity:0.263" fill="#ead0c3" d="M 123.5,225.5 C 126.228,225.171 128.562,225.837 130.5,227.5C 127.848,227.59 125.515,226.924 123.5,225.5 Z"/></g>
<g><path style="opacity:0.604" fill="#f2d2c1" d="M 501.5,224.5 C 504.089,225.419 506.089,227.086 507.5,229.5C 504.911,228.581 502.911,226.914 501.5,224.5 Z"/></g>
<g><path style="opacity:1" fill="#efb695" d="M 711.5,221.5 C 711.975,225.416 710.975,228.749 708.5,231.5C 709.13,227.952 710.13,224.619 711.5,221.5 Z"/></g>
<g><path style="opacity:0.831" fill="#eccbb7" d="M 130.5,227.5 C 136.455,228.073 142.122,229.407 147.5,231.5C 141.545,230.927 135.878,229.593 130.5,227.5 Z"/></g>
<g><path style="opacity:1" fill="#ebc3aa" d="M 615.5,223.5 C 616.738,225.214 617.405,227.214 617.5,229.5C 615.72,228.01 615.054,226.01 615.5,223.5 Z"/></g>
<g><path style="opacity:0.243" fill="#f9e3d7" d="M 320.5,225.5 C 314.552,228.238 308.219,229.905 301.5,230.5C 307.612,228.387 313.946,226.721 320.5,225.5 Z"/></g>
<g><path style="opacity:0.267" fill="#fce8de" d="M 556.5,227.5 C 557.906,227.973 558.573,228.973 558.5,230.5C 557.094,230.027 556.427,229.027 556.5,227.5 Z"/></g>
<g><path style="opacity:0.408" fill="#f2dfd2" d="M 507.5,229.5 C 510.427,230.757 512.761,232.757 514.5,235.5C 511.573,234.243 509.239,232.243 507.5,229.5 Z"/></g>
<g><path style="opacity:0.243" fill="#fbe1d3" d="M 579.5,228.5 C 581.074,231.907 582.074,235.573 582.5,239.5C 580.517,236.201 579.517,232.534 579.5,228.5 Z"/></g>
<g><path style="opacity:0.29" fill="#ead7cd" d="M 297.5,231.5 C 294.411,232.785 291.078,233.451 287.5,233.5C 290.544,231.989 293.878,231.322 297.5,231.5 Z"/></g>
<g><path style="opacity:0.886" fill="#ebc8b2" d="M 163.5,234.5 C 171.407,234.709 179.073,235.709 186.5,237.5C 178.612,237.145 170.946,236.145 163.5,234.5 Z"/></g>
<g><path style="opacity:0.318" fill="#f9e9e1" d="M 708.5,231.5 C 708.771,233.38 708.104,234.713 706.5,235.5C 706.66,233.847 707.326,232.514 708.5,231.5 Z"/></g>
<g><path style="opacity:0.863" fill="#f5c9b3" d="M 514.5,235.5 C 516.404,235.738 517.738,236.738 518.5,238.5C 516.596,238.262 515.262,237.262 514.5,235.5 Z"/></g>
<g><path style="opacity:1" fill="#e8a47b" d="M 617.5,229.5 C 619.341,231.849 620.674,234.515 621.5,237.5C 620.603,236.402 619.77,236.402 619,237.5C 617.748,234.986 617.248,232.32 617.5,229.5 Z"/></g>
<g><path style="opacity:0.992" fill="#edb797" d="M 685.5,257.5 C 684.22,258.931 682.553,259.598 680.5,259.5C 680.5,252.167 680.5,244.833 680.5,237.5C 670.833,237.5 661.167,237.5 651.5,237.5C 651.5,263.833 651.5,290.167 651.5,316.5C 661.833,316.5 672.167,316.5 682.5,316.5C 682.5,316.833 682.5,317.167 682.5,317.5C 671.833,317.5 661.167,317.5 650.5,317.5C 650.167,290.492 650.5,263.492 651.5,236.5C 661.449,235.984 671.449,235.984 681.5,236.5C 681.334,243.841 681.5,251.174 682,258.5C 683.011,257.663 684.178,257.33 685.5,257.5 Z"/></g>
<g><path style="opacity:0.239" fill="#f2d9cd" d="M 518.5,238.5 C 520.914,239.911 522.581,241.911 523.5,244.5C 521.086,243.089 519.419,241.089 518.5,238.5 Z"/></g>
<g><path style="opacity:0.345" fill="#e9ddd1" d="M 582.5,239.5 C 584.293,241.426 585.293,243.759 585.5,246.5C 583.707,244.574 582.707,242.241 582.5,239.5 Z"/></g>
<g><path style="opacity:1" fill="#e29b6f" d="M 559.5,233.5 C 561.68,236.381 562.68,239.714 562.5,243.5C 561.883,243.389 561.383,243.056 561,242.5C 560.304,239.522 559.804,236.522 559.5,233.5 Z"/></g>
<g><path style="opacity:0.898" fill="#e9bfa6" d="M 706.5,235.5 C 706.51,239.503 704.843,242.503 701.5,244.5C 703.357,241.583 705.024,238.583 706.5,235.5 Z"/></g>
<g><path style="opacity:0.796" fill="#ebcab5" d="M 624.5,241.5 C 627.243,243.239 629.243,245.573 630.5,248.5C 627.757,246.761 625.757,244.427 624.5,241.5 Z"/></g>
<g><path style="opacity:1" fill="#f1c2a6" d="M 801.5,243.5 C 802.674,244.514 803.34,245.847 803.5,247.5C 801.824,246.817 801.157,245.483 801.5,243.5 Z"/></g>
<g><path style="opacity:0.31" fill="#f6eae1" d="M 701.5,244.5 C 700.92,246.749 699.587,248.415 697.5,249.5C 698.08,247.251 699.413,245.585 701.5,244.5 Z"/></g>
<g><path style="opacity:0.157" fill="#fbeee8" d="M 524.5,245.5 C 526.539,246.911 527.539,248.911 527.5,251.5C 525.992,249.819 524.992,247.819 524.5,245.5 Z"/></g>
<g><path style="opacity:0.365" fill="#edd7cc" d="M 743.5,242.5 C 743.448,245.346 742.448,247.68 740.5,249.5C 740.935,246.843 741.935,244.509 743.5,242.5 Z"/></g>
<g><path style="opacity:0.522" fill="#f9e0d5" d="M 803.5,247.5 C 805.587,248.585 806.92,250.251 807.5,252.5C 805.413,251.415 804.08,249.749 803.5,247.5 Z"/></g>
<g><path style="opacity:0.337" fill="#ebdad4" d="M 587.5,250.5 C 589.25,251.659 590.25,253.326 590.5,255.5C 588.75,254.341 587.75,252.674 587.5,250.5 Z"/></g>
<g><path style="opacity:0.235" fill="#f3e7e3" d="M 740.5,249.5 C 740.206,252.754 738.873,255.421 736.5,257.5C 737.326,254.515 738.659,251.849 740.5,249.5 Z"/></g>
<g><path style="opacity:0.541" fill="#fde3d3" d="M 694.5,252.5 C 694.027,253.906 693.027,254.573 691.5,254.5C 691.973,253.094 692.973,252.427 694.5,252.5 Z"/></g>
<g><path style="opacity:0.376" fill="#f9e7dc" d="M 809.5,253.5 C 811.553,253.402 813.22,254.069 814.5,255.5C 812.447,255.598 810.78,254.931 809.5,253.5 Z"/></g>
<g><path style="opacity:0.376" fill="#fae8de" d="M 527.5,253.5 C 527.167,255.833 525.833,257.167 523.5,257.5C 524.5,255.833 525.833,254.5 527.5,253.5 Z"/></g>
<g><path style="opacity:0.945" fill="#eebea5" d="M 691.5,254.5 C 690.313,256.975 688.313,257.975 685.5,257.5C 687.456,256.508 689.456,255.508 691.5,254.5 Z"/></g>
<g><path style="opacity:0.278" fill="#f1e7dc" d="M 590.5,255.5 C 591.906,255.973 592.573,256.973 592.5,258.5C 591.094,258.027 590.427,257.027 590.5,255.5 Z"/></g>
<g><path style="opacity:1" fill="#ecbca6" d="M 523.5,257.5 C 522.01,259.28 520.01,259.946 517.5,259.5C 519.214,258.262 521.214,257.595 523.5,257.5 Z"/></g>
<g><path style="opacity:0.263" fill="#f9eae1" d="M 592.5,258.5 C 594.262,259.262 595.262,260.596 595.5,262.5C 593.738,261.738 592.738,260.404 592.5,258.5 Z"/></g>
<g><path style="opacity:0.345" fill="#efddd3" d="M 736.5,257.5 C 735.277,261.049 733.277,264.049 730.5,266.5C 731.759,262.975 733.759,259.975 736.5,257.5 Z"/></g>
<g><path style="opacity:0.561" fill="#edd1c1" d="M 87.5,258.5 C 89.2624,259.262 90.2624,260.596 90.5,262.5C 88.7376,261.738 87.7376,260.404 87.5,258.5 Z"/></g>
<g><path style="opacity:0.233" fill="#f3e2d5" d="M 511.5,260.5 C 494.998,261.469 478.332,261.469 461.5,260.5C 461.5,271.5 461.5,282.5 461.5,293.5C 460.505,282.346 460.172,271.012 460.5,259.5C 477.494,260.07 494.494,260.403 511.5,260.5 Z"/></g>
<g><path style="opacity:0.384" fill="#f5e3db" d="M 356.5,259.5 C 355.92,261.749 354.587,263.415 352.5,264.5C 353.08,262.251 354.413,260.585 356.5,259.5 Z"/></g>
<g><path style="opacity:0.278" fill="#f1d9c8" d="M 90.5,262.5 C 92.1898,262.856 93.1898,263.856 93.5,265.5C 91.8102,265.144 90.8102,264.144 90.5,262.5 Z"/></g>
<g><path style="opacity:0.196" fill="#fdf6f5" d="M 595.5,262.5 C 596.5,262.833 597.167,263.5 597.5,264.5C 596.167,264.5 595.5,263.833 595.5,262.5 Z"/></g>
<g><path style="opacity:0.345" fill="#f2e9e1" d="M 631.5,248.5 C 634.723,250.364 637.89,252.364 641,254.5C 641.827,267.34 641.66,280.007 640.5,292.5C 640.5,292.167 640.5,291.833 640.5,291.5C 640.667,279.495 640.5,267.495 640,255.5C 636.564,253.726 633.731,251.392 631.5,248.5 Z"/></g>
<g><path style="opacity:0.239" fill="#f0d9cc" d="M 561.5,261.5 C 561.741,263.898 561.074,265.898 559.5,267.5C 559.595,265.214 560.262,263.214 561.5,261.5 Z"/></g>
<g><path style="opacity:0.467" fill="#f7d8ca" d="M 352.5,264.5 C 351.415,266.587 349.749,267.92 347.5,268.5C 348.585,266.413 350.251,265.08 352.5,264.5 Z"/></g>
<g><path style="opacity:0.204" fill="#f2d5c4" d="M 598.5,265.5 C 600.587,266.585 601.92,268.251 602.5,270.5C 600.413,269.415 599.08,267.749 598.5,265.5 Z"/></g>
<g><path style="opacity:0.345" fill="#efdaca" d="M 93.5,265.5 C 95.7488,266.08 97.4154,267.413 98.5,269.5C 96.2512,268.92 94.5846,267.587 93.5,265.5 Z"/></g>
<g><path style="opacity:0.278" fill="#efe0d5" d="M 729.5,267.5 C 729.262,269.404 728.262,270.738 726.5,271.5C 726.738,269.596 727.738,268.262 729.5,267.5 Z"/></g>
<g><path style="opacity:0.196" fill="#f6e3d8" d="M 98.5,269.5 C 100.027,269.427 101.027,270.094 101.5,271.5C 99.9731,271.573 98.9731,270.906 98.5,269.5 Z"/></g>
<g><path style="opacity:0.506" fill="#feebd8" d="M 347.5,268.5 C 347.027,269.906 346.027,270.573 344.5,270.5C 344.973,269.094 345.973,268.427 347.5,268.5 Z"/></g>
<g><path style="opacity:0.337" fill="#fadccb" d="M 559.5,267.5 C 559.573,269.027 558.906,270.027 557.5,270.5C 557.427,268.973 558.094,267.973 559.5,267.5 Z"/></g>
<g><path style="opacity:0.824" fill="#efd0ba" d="M 602.5,270.5 C 605.764,272.094 608.431,274.427 610.5,277.5C 607.236,275.906 604.569,273.573 602.5,270.5 Z"/></g>
<g><path style="opacity:0.514" fill="#efddda" d="M 344.5,270.5 C 344.027,271.906 343.027,272.573 341.5,272.5C 341.973,271.094 342.973,270.427 344.5,270.5 Z"/></g>
<g><path style="opacity:0.251" fill="#fce9e3" d="M 103.5,272.5 C 105.027,272.427 106.027,273.094 106.5,274.5C 104.973,274.573 103.973,273.906 103.5,272.5 Z"/></g>
<g><path style="opacity:0.208" fill="#f7e8e1" d="M 556.5,272.5 C 556.262,274.404 555.262,275.738 553.5,276.5C 553.5,275.833 553.5,275.167 553.5,274.5C 554.5,273.833 555.5,273.167 556.5,272.5 Z"/></g>
<g><path style="opacity:0.325" fill="#ecdcd2" d="M 339.5,273.5 C 336.753,276.207 333.42,277.873 329.5,278.5C 332.515,276.326 335.849,274.659 339.5,273.5 Z"/></g>
<g><path style="opacity:0.318" fill="#ece4e1" d="M 723.5,274.5 C 723.5,276.5 722.5,277.5 720.5,277.5C 721.167,276.167 722.167,275.167 723.5,274.5 Z"/></g>
<g><path style="opacity:1" fill="#e5996b" d="M 553.5,274.5 C 553.5,275.167 553.5,275.833 553.5,276.5C 552.5,278.167 551.167,279.5 549.5,280.5C 549.167,280.5 548.833,280.5 548.5,280.5C 548.586,279.504 548.252,278.671 547.5,278C 548.793,277.51 550.127,277.343 551.5,277.5C 551.285,275.821 551.952,274.821 553.5,274.5 Z"/></g>
<g><path style="opacity:0.376" fill="#f3e1d4" d="M 770.5,277.5 C 771.906,277.973 772.573,278.973 772.5,280.5C 771.094,280.027 770.427,279.027 770.5,277.5 Z"/></g>
<g><path style="opacity:0.263" fill="#fbe9e1" d="M 327.5,279.5 C 326.22,280.931 324.553,281.598 322.5,281.5C 323.78,280.069 325.447,279.402 327.5,279.5 Z"/></g>
<g><path style="opacity:0.4" fill="#f3d4c7" d="M 610.5,277.5 C 613.37,278.433 615.704,280.1 617.5,282.5C 614.63,281.567 612.296,279.9 610.5,277.5 Z"/></g>
<g><path style="opacity:0.29" fill="#f9e7de" d="M 112.5,277.5 C 117.883,278.734 122.883,280.734 127.5,283.5C 122.105,282.296 117.105,280.296 112.5,277.5 Z"/></g>
<g><path style="opacity:0.22" fill="#ebe0db" d="M 548.5,280.5 C 548.833,280.5 549.167,280.5 549.5,280.5C 549.027,281.906 548.027,282.573 546.5,282.5C 546.833,281.5 547.5,280.833 548.5,280.5 Z"/></g>
<g><path style="opacity:0.278" fill="#e6dedc" d="M 718.5,279.5 C 717.415,281.587 715.749,282.92 713.5,283.5C 714.585,281.413 716.251,280.08 718.5,279.5 Z"/></g>
<g><path style="opacity:0.267" fill="#fcefe4" d="M 773.5,281.5 C 775.833,283.167 777.833,285.167 779.5,287.5C 776.5,286.5 774.5,284.5 773.5,281.5 Z"/></g>
<g><path style="opacity:0.318" fill="#f0e4e1" d="M 617.5,282.5 C 619.027,282.427 620.027,283.094 620.5,284.5C 618.973,284.573 617.973,283.906 617.5,282.5 Z"/></g>
<g><path style="opacity:0.227" fill="#efe7e0" d="M 545.5,283.5 C 545.027,284.906 544.027,285.573 542.5,285.5C 542.973,284.094 543.973,283.427 545.5,283.5 Z"/></g>
<g><path style="opacity:1" fill="#efb28c" d="M 133.5,285.5 C 136.067,285.721 138.401,286.388 140.5,287.5C 137.612,288.01 135.279,287.344 133.5,285.5 Z"/></g>
<g><path style="opacity:1" fill="#f1bd9c" d="M 540.5,286.5 C 537.912,288.625 534.912,289.958 531.5,290.5C 533.848,287.847 536.848,286.513 540.5,286.5 Z"/></g>
<g><path style="opacity:0.251" fill="#efe4dc" d="M 710.5,285.5 C 710.027,286.906 709.027,287.573 707.5,287.5C 707.973,286.094 708.973,285.427 710.5,285.5 Z"/></g>
<g><path style="opacity:0.271" fill="#ebd7c9" d="M 140.5,287.5 C 144.761,287.898 148.761,288.898 152.5,290.5C 148.163,290.416 144.163,289.416 140.5,287.5 Z"/></g>
<g><path style="opacity:0.953" fill="#ebbc9e" d="M 322.5,281.5 C 313.203,286.331 303.203,289.331 292.5,290.5C 302.504,287.828 312.504,284.828 322.5,281.5 Z"/></g>
<g><path style="opacity:0.514" fill="#f2d8c7" d="M 779.5,287.5 C 781.027,287.427 782.027,288.094 782.5,289.5C 780.973,289.573 779.973,288.906 779.5,287.5 Z"/></g>
<g><path style="opacity:0.318" fill="#ecdbd0" d="M 705.5,288.5 C 704.089,290.539 702.089,291.539 699.5,291.5C 701.181,289.992 703.181,288.992 705.5,288.5 Z"/></g>
<g><path style="opacity:0.365" fill="#ead6ca" d="M 630.5,289.5 C 632.553,289.402 634.22,290.069 635.5,291.5C 633.447,291.598 631.78,290.931 630.5,289.5 Z"/></g>
<g><path style="opacity:0.337" fill="#f0d6c9" d="M 153.5,290.5 C 167.263,292.759 180.93,294.759 194.5,296.5C 180.443,296.204 166.776,294.204 153.5,290.5 Z"/></g>
<g><path style="opacity:0.616" fill="#f7dfcf" d="M 290.5,290.5 C 287.829,292.118 284.829,292.785 281.5,292.5C 284.273,291.343 287.273,290.676 290.5,290.5 Z"/></g>
<g><path style="opacity:0.149" fill="#fcf0e8" d="M 531.5,290.5 C 529.485,291.924 527.152,292.59 524.5,292.5C 526.515,291.076 528.848,290.41 531.5,290.5 Z"/></g>
<g><path style="opacity:1" fill="#e6b395" d="M 635.5,291.5 C 637.167,291.5 638.833,291.5 640.5,291.5C 640.5,291.833 640.5,292.167 640.5,292.5C 638.662,293.678 636.995,293.345 635.5,291.5 Z"/></g>
<g><path style="opacity:0.616" fill="#efd0be" d="M 842.5,257.5 C 843.495,269.322 843.828,281.322 843.5,293.5C 825.659,293.83 807.992,293.497 790.5,292.5C 807.833,292.5 825.167,292.5 842.5,292.5C 842.5,280.833 842.5,269.167 842.5,257.5 Z"/></g>
<g><path style="opacity:0.196" fill="#fce9df" d="M 694.5,293.5 C 692.898,295.074 690.898,295.741 688.5,295.5C 690.214,294.262 692.214,293.595 694.5,293.5 Z"/></g>
<g><path style="opacity:0.384" fill="#e7d7cf" d="M 88.5,299.5 C 90.0269,299.427 91.0269,300.094 91.5,301.5C 89.9731,301.573 88.9731,300.906 88.5,299.5 Z"/></g>
<g><path style="opacity:0.29" fill="#fae8e1" d="M 356.5,299.5 C 355.341,301.25 353.674,302.25 351.5,302.5C 352.659,300.75 354.326,299.75 356.5,299.5 Z"/></g>
<g><path style="opacity:0.243" fill="#ece3e0" d="M 93.5,302.5 C 95.153,302.66 96.4863,303.326 97.5,304.5C 95.6203,304.771 94.287,304.104 93.5,302.5 Z"/></g>
<g><path style="opacity:0.663" fill="#e9bea3" d="M 688.5,295.5 C 687.122,296.234 685.622,296.901 684,297.5C 683.828,304.346 683.328,311.013 682.5,317.5C 682.5,317.167 682.5,316.833 682.5,316.5C 682.334,309.825 682.5,303.158 683,296.5C 684.699,295.594 686.533,295.261 688.5,295.5 Z"/></g>
<g><path style="opacity:0.29" fill="#f9e7e0" d="M 347.5,304.5 C 345.574,306.293 343.241,307.293 340.5,307.5C 342.426,305.707 344.759,304.707 347.5,304.5 Z"/></g>
<g><path style="opacity:1" fill="#eca67f" d="M 97.5,304.5 C 99.8067,304.986 101.973,304.986 104,304.5C 105.095,305.693 105.928,307.027 106.5,308.5C 103.088,307.925 100.088,306.592 97.5,304.5 Z"/></g>
<g><path style="opacity:1" fill="#edbda6" d="M 106.5,308.5 C 108.698,308.12 110.365,308.787 111.5,310.5C 109.447,310.598 107.78,309.931 106.5,308.5 Z"/></g>
<g><path style="opacity:1" fill="#efbb9d" d="M 111.5,310.5 C 115.942,310.732 119.942,312.065 123.5,314.5C 119.098,314.074 115.098,312.74 111.5,310.5 Z"/></g>
<g><path style="opacity:0.337" fill="#eedbd1" d="M 338.5,308.5 C 334.183,310.94 329.517,312.607 324.5,313.5C 328.799,311.065 333.466,309.398 338.5,308.5 Z"/></g>
<g><path style="opacity:0.945" fill="#edc4a9" d="M 123.5,314.5 C 125.898,314.259 127.898,314.926 129.5,316.5C 127.214,316.405 125.214,315.738 123.5,314.5 Z"/></g>
<g><path style="opacity:0.196" fill="#f7e9df" d="M 321.5,314.5 C 319.485,315.924 317.152,316.59 314.5,316.5C 316.515,315.076 318.848,314.41 321.5,314.5 Z"/></g>
<g><path style="opacity:0.655" fill="#edcdb4" d="M 129.5,316.5 C 132.495,316.294 135.162,316.96 137.5,318.5C 134.572,318.435 131.905,317.768 129.5,316.5 Z"/></g>
<g><path style="opacity:0.198" fill="#f7f6f3" d="M 88.5,299.5 C 86.5186,312.458 85.8519,325.791 86.5,339.5C 85.1743,325.661 85.1743,311.661 86.5,297.5C 87.5223,297.855 88.189,298.522 88.5,299.5 Z"/></g>
<g><path style="opacity:0.275" fill="#edd5c8" d="M 137.5,318.5 C 140.495,318.294 143.162,318.96 145.5,320.5C 142.572,320.435 139.905,319.768 137.5,318.5 Z"/></g>
<g><path style="opacity:0.412" fill="#eed9cc" d="M 357.5,341.5 C 358.115,334.033 358.448,326.533 358.5,319C 358.497,312.131 357.83,305.631 356.5,299.5C 356.811,298.522 357.478,297.855 358.5,297.5C 359.666,311.822 359.833,326.155 359,340.5C 358.617,341.056 358.117,341.389 357.5,341.5 Z"/></g>
<g><path style="opacity:0.675" fill="#e9cdbe" d="M 145.5,320.5 C 149.122,320.322 152.456,320.989 155.5,322.5C 151.922,322.451 148.589,321.785 145.5,320.5 Z"/></g>
<g><path style="opacity:0.298" fill="#f2d8c9" d="M 302.5,319.5 C 298.425,321.118 294.092,322.118 289.5,322.5C 293.515,320.627 297.849,319.627 302.5,319.5 Z"/></g>
<g><path style="opacity:0.29" fill="#ecd8cb" d="M 275.5,324.5 C 270.056,325.884 264.389,326.55 258.5,326.5C 263.944,325.116 269.611,324.45 275.5,324.5 Z"/></g>
<g><path style="opacity:0.6" fill="#e8cab7" d="M 177.5,325.5 C 183.726,325.388 189.726,326.054 195.5,327.5C 189.288,327.477 183.288,326.81 177.5,325.5 Z"/></g>
<g><path style="opacity:0.384" fill="#eed8c9" d="M 55.5,340.5 C 56.8673,346.602 58.8673,352.602 61.5,358.5C 57.3325,353.331 55.3325,347.331 55.5,340.5 Z"/></g>
<g><path style="opacity:0.608" fill="#efd5c5" d="M 88.5,343.5 C 91.5,345.833 94.1667,348.5 96.5,351.5C 92.8333,349.833 90.1667,347.167 88.5,343.5 Z"/></g>
<g><path style="opacity:0.627" fill="#f2c9b2" d="M 356.5,343.5 C 354.833,347.167 352.167,349.833 348.5,351.5C 350.833,348.5 353.5,345.833 356.5,343.5 Z"/></g>
<g><path style="opacity:0.541" fill="#fbe6d3" d="M 348.5,351.5 C 348.027,352.906 347.027,353.573 345.5,353.5C 345.973,352.094 346.973,351.427 348.5,351.5 Z"/></g>
<g><path style="opacity:0.373" fill="#f6dbcc" d="M 388.5,346.5 C 388.267,349.542 387.267,352.208 385.5,354.5C 385.733,351.458 386.733,348.792 388.5,346.5 Z"/></g>
<g><path style="opacity:0.196" fill="#f7eee6" d="M 97.5,352.5 C 99.674,352.75 101.341,353.75 102.5,355.5C 100.326,355.25 98.6594,354.25 97.5,352.5 Z"/></g>
<g><path style="opacity:0.494" fill="#f4e4de" d="M 345.5,353.5 C 345.027,354.906 344.027,355.573 342.5,355.5C 342.973,354.094 343.973,353.427 345.5,353.5 Z"/></g>
<g><path style="opacity:0.271" fill="#f6e8e6" d="M 102.5,355.5 C 104.027,355.427 105.027,356.094 105.5,357.5C 103.973,357.573 102.973,356.906 102.5,355.5 Z"/></g>
<g><path style="opacity:0.243" fill="#f1e7dd" d="M 342.5,355.5 C 341.341,357.25 339.674,358.25 337.5,358.5C 338.659,356.75 340.326,355.75 342.5,355.5 Z"/></g>
<g><path style="opacity:0.29" fill="#f9e5d8" d="M 384.5,356.5 C 384.573,358.027 383.906,359.027 382.5,359.5C 382.427,357.973 383.094,356.973 384.5,356.5 Z"/></g>
<g><path style="opacity:0.467" fill="#efd8cb" d="M 107.5,358.5 C 109.153,358.66 110.486,359.326 111.5,360.5C 109.62,360.771 108.287,360.104 107.5,358.5 Z"/></g>
<g><path style="opacity:0.392" fill="#f1e6e0" d="M 337.5,358.5 C 336.486,359.674 335.153,360.34 333.5,360.5C 334.287,358.896 335.62,358.229 337.5,358.5 Z"/></g>
<g><path style="opacity:0.4" fill="#f0dbcf" d="M 61.5,358.5 C 63.3264,360.147 64.6597,362.147 65.5,364.5C 63.1782,363.198 61.8449,361.198 61.5,358.5 Z"/></g>
<g><path style="opacity:0.533" fill="#edd0bd" d="M 111.5,360.5 C 113.153,360.66 114.486,361.326 115.5,362.5C 113.62,362.771 112.287,362.104 111.5,360.5 Z"/></g>
<g><path style="opacity:0.29" fill="#fbe3d5" d="M 331.5,361.5 C 329.574,363.293 327.241,364.293 324.5,364.5C 326.426,362.707 328.759,361.707 331.5,361.5 Z"/></g>
<g><path style="opacity:0.412" fill="#efd7cc" d="M 115.5,362.5 C 119.137,363.263 122.47,364.597 125.5,366.5C 121.703,366.128 118.37,364.794 115.5,362.5 Z"/></g>
<g><path style="opacity:0.196" fill="#f2e6dd" d="M 380.5,362.5 C 380.262,364.404 379.262,365.738 377.5,366.5C 377.738,364.596 378.738,363.262 380.5,362.5 Z"/></g>
<g><path style="opacity:0.298" fill="#f2e9dd" d="M 66.5,365.5 C 67.8333,366.167 68.8333,367.167 69.5,368.5C 67.5,368.5 66.5,367.5 66.5,365.5 Z"/></g>
<g><path style="opacity:0.467" fill="#edc6ae" d="M 324.5,364.5 C 324.389,365.117 324.056,365.617 323.5,366C 320.223,367.143 316.89,367.977 313.5,368.5C 316.797,366.399 320.463,365.065 324.5,364.5 Z"/></g>
<g><path style="opacity:0.205" fill="#fdfdfc" d="M 377.5,366.5 C 377.5,367.833 376.833,368.5 375.5,368.5C 375.833,367.5 376.5,366.833 377.5,366.5 Z"/></g>
<g><path style="opacity:1" fill="#eeb998" d="M 125.5,366.5 C 127.786,366.595 129.786,367.262 131.5,368.5C 130.178,368.33 129.011,368.663 128,369.5C 127.302,368.309 126.469,367.309 125.5,366.5 Z"/></g>
<g><path style="opacity:0.682" fill="#eed3c4" d="M 131.5,368.5 C 137.776,369.566 143.776,371.233 149.5,373.5C 143.131,372.744 137.131,371.077 131.5,368.5 Z"/></g>
<g><path style="opacity:0.933" fill="#e8bea2" d="M 313.5,368.5 C 309.207,370.744 304.54,372.077 299.5,372.5C 303.888,370.566 308.555,369.233 313.5,368.5 Z"/></g>
<g><path style="opacity:0.31" fill="#eee3de" d="M 70.5,369.5 C 71.8333,370.167 72.8333,371.167 73.5,372.5C 71.5,372.5 70.5,371.5 70.5,369.5 Z"/></g>
<g><path style="opacity:0.898" fill="#ecc5ae" d="M 73.5,372.5 C 75.7488,373.08 77.4154,374.413 78.5,376.5C 76.2512,375.92 74.5846,374.587 73.5,372.5 Z"/></g>
<g><path style="opacity:0.776" fill="#f1ccb7" d="M 299.5,372.5 C 296.781,373.913 293.781,374.58 290.5,374.5C 293.219,373.087 296.219,372.42 299.5,372.5 Z"/></g>
<g><path style="opacity:0.224" fill="#f9eae4" d="M 371.5,372.5 C 370.415,374.587 368.749,375.92 366.5,376.5C 367.585,374.413 369.251,373.08 371.5,372.5 Z"/></g>
<g><path style="opacity:0.29" fill="#f4e1d5" d="M 149.5,373.5 C 157.071,374.216 164.405,375.55 171.5,377.5C 163.885,377.042 156.552,375.708 149.5,373.5 Z"/></g>
<g><path style="opacity:0.608" fill="#f2d2bd" d="M 78.5,376.5 C 80.4044,376.738 81.7377,377.738 82.5,379.5C 80.5956,379.262 79.2623,378.262 78.5,376.5 Z"/></g>
<g><path style="opacity:1" fill="#e6b093" d="M 279.5,376.5 C 275.455,378.177 271.122,378.844 266.5,378.5C 270.618,377.291 274.951,376.624 279.5,376.5 Z"/></g>
<g><path style="opacity:0.569" fill="#f0d5c5" d="M 171.5,377.5 C 195.092,380.038 218.758,381.038 242.5,380.5C 228.339,381.661 214.006,381.827 199.5,381C 189.919,380.66 180.586,379.493 171.5,377.5 Z"/></g>
<g><path style="opacity:0.196" fill="#f9f2e9" d="M 366.5,376.5 C 365.738,378.262 364.404,379.262 362.5,379.5C 363.262,377.738 364.596,376.738 366.5,376.5 Z"/></g>
<g><path style="opacity:0.373" fill="#e4ded5" d="M 82.5,379.5 C 84.0269,379.427 85.0269,380.094 85.5,381.5C 83.9731,381.573 82.9731,380.906 82.5,379.5 Z"/></g>
<g><path style="opacity:0.325" fill="#f0e1db" d="M 362.5,379.5 C 362.027,380.906 361.027,381.573 359.5,381.5C 359.973,380.094 360.973,379.427 362.5,379.5 Z"/></g>
<g><path style="opacity:0.235" fill="#f9e5dd" d="M 357.5,382.5 C 355.664,384.588 353.331,385.921 350.5,386.5C 352.336,384.412 354.669,383.079 357.5,382.5 Z"/></g>
<g><path style="opacity:1" fill="#e28d58" d="M 104.5,390.5 C 103.833,390.5 103.167,390.5 102.5,390.5C 97.0157,388.593 92.0157,385.927 87.5,382.5C 88.8175,382.821 90.1508,383.154 91.5,383.5C 92.6473,383.182 93.4806,382.516 94,381.5C 94.5518,384.197 96.0518,386.197 98.5,387.5C 100.578,384.096 102.911,384.263 105.5,388C 103.381,388.342 103.047,389.175 104.5,390.5 Z"/></g>
<g><path style="opacity:1" fill="#f4c2a5" d="M 348.5,387.5 C 345.912,389.625 342.912,390.958 339.5,391.5C 341.848,388.847 344.848,387.513 348.5,387.5 Z"/></g>
<g><path style="opacity:0.243" fill="#fae9de" d="M 102.5,390.5 C 103.167,390.5 103.833,390.5 104.5,390.5C 105.71,390.932 106.71,391.599 107.5,392.5C 105.447,392.598 103.78,391.931 102.5,390.5 Z"/></g>
<g><path style="opacity:0.851" fill="#f4cdb5" d="M 109.5,393.5 C 111.898,393.259 113.898,393.926 115.5,395.5C 113.214,395.405 111.214,394.738 109.5,393.5 Z"/></g>
<g><path style="opacity:0.271" fill="#e9d5ca" d="M 334.5,393.5 C 331.203,395.601 327.537,396.935 323.5,397.5C 326.797,395.399 330.463,394.065 334.5,393.5 Z"/></g>
<g><path style="opacity:1" fill="#e69d6f" d="M 125.5,398.5 C 125.167,398.5 124.833,398.5 124.5,398.5C 121.084,398.472 118.084,397.472 115.5,395.5C 117.262,395.357 118.929,395.691 120.5,396.5C 122.078,395.36 123.744,394.86 125.5,395C 124.672,395.915 123.672,396.581 122.5,397C 123.737,397.232 124.737,397.732 125.5,398.5 Z"/></g>
<g><path style="opacity:0.196" fill="#f6ebe7" d="M 124.5,398.5 C 124.833,398.5 125.167,398.5 125.5,398.5C 127.403,398.796 129.07,399.463 130.5,400.5C 128.102,400.741 126.102,400.074 124.5,398.5 Z"/></g>
<g><path style="opacity:0.251" fill="#eee0d9" d="M 320.5,398.5 C 318.485,399.924 316.152,400.59 313.5,400.5C 315.515,399.076 317.848,398.41 320.5,398.5 Z"/></g>
<g><path style="opacity:0.749" fill="#f2d5c5" d="M 131.5,400.5 C 136.809,401.076 141.809,402.409 146.5,404.5C 141.191,403.924 136.191,402.591 131.5,400.5 Z"/></g>
<g><path style="opacity:0.263" fill="#ead9d1" d="M 309.5,401.5 C 305.8,403.245 301.8,404.245 297.5,404.5C 301.2,402.755 305.2,401.755 309.5,401.5 Z"/></g>
<g><path style="opacity:0.29" fill="#ead3c9" d="M 148.5,404.5 C 151.495,404.294 154.162,404.96 156.5,406.5C 153.572,406.435 150.905,405.768 148.5,404.5 Z"/></g>
<g><path style="opacity:0.4" fill="#f5ddd0" d="M 291.5,405.5 C 286.089,407.236 280.422,408.236 274.5,408.5C 279.911,406.764 285.578,405.764 291.5,405.5 Z"/></g>
<g><path style="opacity:1" fill="#ecad86" d="M 264.5,409.5 C 240.196,412.772 215.862,413.105 191.5,410.5C 215.839,410.486 240.172,410.153 264.5,409.5 Z"/></g>
</svg>
